<svg xmlns="http://www.w3.org/2000/svg" width="1123.361" height="2894.063" viewBox="0 0 1123.361 2894.063">
  <g id="Camada_1-2" transform="translate(-0.02 0.023)">
    <path id="Caminho_5536" data-name="Caminho 5536" d="M989.384,286.212c-7.421-2.437-15.839-4.1-17.943-13.845-.111-.665-1-1.329-1.772-1.772-7.753-4.209-12.959-11.3-19.272-17.057-4.652-4.32-8.418-3.1-11.187,2.658-4.43,9.415-4.209,19.272-4.1,29.241,0,3.212-.443,6.2-2.437,8.529-4.873,6.092-4.209,13.07-3.212,19.826,1,7.421.332,9.082-6.867,10.855-2.326.554-4.541,1.329-6.867,1.661-5.759.775-11.187,2.88-17.389,2.1-16.06-2.1-31.456-7.2-47.073-11.076-5.981-1.44-12.184-2.326-17.611-5.87a449.552,449.552,0,0,1-65.9-51.614c-3.544-3.323-7.864-6.2-10.522-10.19-9.526-14.288-18.5-29.019-27.469-43.64-2.215-3.655-5.649-6.867-6.2-11.408-1-8.086-1.661-16.06-.111-24.146.443-2.547-.443-4.541-1.994-6.535-7.31-8.639-14.62-17.168-21.82-25.918-2.215-2.658-4.209-4.209-7.31-1.329-6.2,5.76-14.288,3.323-21.488,4.541a2.129,2.129,0,0,1-1.994-1.329c-4.873-7.31-11.3-13.956-14.4-21.82-6.2-15.839-11.962-31.9-15.617-48.513a7.136,7.136,0,0,1,1.218-5.76c3.766-5.317,4.984-11.3,4.763-17.722-.221-4.984-1.44-10.3-.554-15.063,1.994-10.633-1-17.722-11.408-21.377-1.994-.665-3.544-2.658-5.981-1.551-5.317,2.437-9.858,1.329-14.4-2.326-3.1-2.437-6.756-5.317-10.522-5.76-3.987-.443-6.313,4.43-9.636,6.646-2.88,1.994-5.538,3.987-5.206,7.975h0c.443,5.76-1.218,11.63,1,17.279h0c1.661,2.769,3.323,5.427,5.095,8.2h0a40.511,40.511,0,0,0-1,12.073h0c-1.44,1-1.108,2.769-2.1,3.987h0c-4.32,1-8.75,1.994-13.07,3.1h0c-3.766-.775-7.2,1.44-11.3.332-5.87-1.551-12.073-1.661-18.165-2.326-1.44-1.772-3.323-.775-5.1-1h0a18.451,18.451,0,0,1-4.873-.665c-5.206-1.108-10.633,1.661-12.405,6.313a138.873,138.873,0,0,0-6.978,25.807h0a5.822,5.822,0,0,0-1.994,4.984h0c-1.108.775-.886,1.994-1,3.1h0c-1.661,1.661-3.1,3.434,0,5.1h0c1,1,1.994,2.1,2.99,3.1h0c.665,2.88,2.769,4.652,5.317,5.87h0c3.877,4.43,7.31,9.415,12.848,12.184h0c1.44,1.772,3.434.886,5.206,1h0a7.138,7.138,0,0,0,3.987,1c1.329,1.772,3.323.775,4.984,1h0c3.434,1.661,7.642,1.772,10.19,5.206h0c.332,2.548,2.215,3.766,4.1,4.984l1,1h0v5.1h0v.886h0c-1.883,1.772-.664,4.1-1,6.092h0a10.815,10.815,0,0,0,0,10.079c1.108,7.2,2.88,14.177,7.089,20.38h0a9.5,9.5,0,0,0,3.1,6.978,5.627,5.627,0,0,0,1.994,5.095h0c.111,2.991,1.772,5.538,2.99,8.086h0a6.233,6.233,0,0,0,1.994,5.1h0c-.332,2.658,2.548,4.763,1.883,7.2-2.437,9.858-2.326,20.823-10.633,28.576a34.464,34.464,0,0,0-2.547,3.1c-7.753,9.193-14.288,19.383-24.81,26.25q-22.6,14.953-44.526,31.124c-11.187,8.2-22.817,15.174-36.773,17.389h0a9.637,9.637,0,0,0-7.31,1.994h0c-1,.332-1.883.665-2.88,1h0c-2.326-.111-4.541,0-6.2,1.994h0l-6.978,1.994h0c-2.326-.111-4.43,0-6.092,1.883h0a2.439,2.439,0,0,1-.886.111h0c-2.658-.111-5.095.222-7.2,1.994h0l-5.981,1.994h0c-2.88-.111-5.76,0-8.2,1.994h0c-4.32,1-8.75,2.1-13.07,3.1h0c-11.187,1.551-22.484,1-33.671.886-4.763,0-6.535,1.551-5.87,6.092h0c-1,1.994-2.215,3.655-4.652,3.987-2.326.222-4.1,1.661-5.649,3.1-3.877,3.655-7.2,7.864-10.965,11.63-3.766,3.877-5.206,7.975-2.1,12.848h0c.554,4.32-1.218,8.861,1,13.07h0v.886h0v7.421c-1.551,2.326-3.1,4.763-4.652,7.089-2.1,2.991-2.991,6.867-6.313,8.861-6.756,3.877-13.624,7.532-20.38,11.3h0a61.818,61.818,0,0,0-20.38,4.984h0c-2.326.443-4.984-1-7.089,1-5.76.554-11.63-1.329-17.279,1h-1.883c-4.763.443-9.636-1.218-14.288,1h-4.984a3.734,3.734,0,0,0-1.883-.554h0c-5.427-1.329-10.965,0-16.393-.443h-1.883c-4.652-2.215-9.525-.554-14.177-1-2.1-1.994-4.763-.665-7.089-1h0c-2.1-1.994-4.763-.665-7.089-1-1.44-1.772-3.434-.775-5.206-1h0c-1.44-.222-2.991-.332-4.43-.665-12.516-3.323-24.921-6.756-37.326-9.968-9.3-2.437-13.513-.221-17.833,8.639h0c-1.218,1-1,2.437-1,3.766v27.026c0,1.329-.222,2.658,1,3.655h0c1.883,5.538-1.44,9.082-4.873,12.516-3.877,3.987-7.2,8.085-3.323,13.956h0c.332,2.1-.665,3.987-1,5.87h0c-1.772,2.326-3.1,4.652-2.991,7.753q.554,10.412-8.2,14.62h0a6.233,6.233,0,0,0-5.095,1.994h0c-10.412,4.763-20.823,9.525-31.345,14.288h0c-1.772-.111-3.323.111-4.1,1.994h0c-2.769,0-4.541,1.108-4.984,3.877-8.972,8.75-17.611,17.5-20.38,30.681-1.551,7.864-3.544,16.06-9.636,22.152-8.861,8.75-12.184,20.6-17.611,31.345h0c-.886.664-1.329,1.661-.443,2.437a2.22,2.22,0,0,0,3.434-.443h0c2.88.332,4.984-2.547,7.975-2.1.222-.111.554-.222.775-.332h0c-.332,0-.554.221-.886.332,2.215-.222,4.984,1,6.092-2.215h0c2.437-7.864,5.206-15.507,11.076-21.488,2.991-3.1,5.981-6.2,7.2-10.633h0a49.874,49.874,0,0,1,1-12.184h0c1.661-1.108,3.212-2.1,4.873-3.212h0c5.427-.222,10.855-1.44,16.282-1h0c.443,1.661-.554,3.655,1.108,5.095h0c1.661,3.434,3.323,1.994,4.984,0h0c1.329-.332,2.548-.775,3.877-1.218h0a5.469,5.469,0,0,0,5.206-1.994c10.19-3.323,19.826-7.31,25.253-17.5,1.218-2.326,3.766-1.883,5.981-1.772,5.649.332,11.187.775,16.393,3.1h0c1.661,1.329,3.434,2.769,5.1,4.1h0c2.1,3.323,6.646,5.206,6.978,9.415.222,4.541,2.88,6.756,6.313,8.75,2.991,1.661,5.981,3.544,8.972,5.206h0c.111,1.994,1.44,2.99,2.991,3.877h0a9.991,9.991,0,0,1,1,1.108h0c0,2.769,3.766,3.877,2.99,6.978h0a10.812,10.812,0,0,0-1.994,6.092h0c-3.323,5.206-2.437,10.744-1,16.171h0c2.437,2.991,3.877,6.756,6.978,9.3h0c-3.877,1.883-8.086.332-12.073.886-1.994-1.883-4.541-2.1-7.089-1.994h0c-3.323-.111-6.2-1.44-9.082-2.769h0c-2.215-2.215-4.209-1.883-5.981.665h0c-1.218.775-2.547,1.551-3.766,2.326q-7.532,4.984-1.329,12.073h0v3.877c-1.661,1.994-1.551,3.987,0,5.981h0c-.554,5.206,2.769,9.858,1.994,15.063h0c-3.655,3.434-7.975,6.2-9.968,11.076-.886,2.1-2.88,3.1-4.43,1.883-2.215-1.551-4.873-1.108-6.867-2.547h0c-1.994-1.883-3.987-1.772-5.981-.221q-5.427,0-5.1,2.991h0c.665.665,1.329,1.44,1.994,2.1h0c.111,1.994,1.44,3.1,3.1,3.987h0c1.108,1.551,1.108,3.212,1,4.984h0a9.1,9.1,0,0,0,0,9.193h0c2.1,6.2-1.661,9.415-6.424,11.851a21.828,21.828,0,0,0-10.855,11.408h0a17.138,17.138,0,0,0-1.994,15.174h0c0,3.212.222,6.424,2.1,9.193h0c.111,1.44-.443,2.99,1,3.987h0V758.5h0c-1.329,1.218-1.108,2.658.111,3.433,4.32,2.991,3.544,6.092.665,9.525-.554.554-.554,1.551-.886,2.326h0c-1.772,2.437,0,4.209,1.108,6.092h0c1.44,2.437,4.32,2.88,6.424,4.541,2.658,2.1,3.655,4.32.443,6.2-5.206,2.991-3.655,6.535-1.772,10.411h0c-.222,5.427,2.658,4.763,6.092,3.1h0c2.769-1,3.655-4.763,6.867-5.1h0c3.212.665,6.092-1.218,9.193-1h0c3.766,1.883,6.535,1.218,8.418-2.769,1-1.994,1.772-4.43,4.763-4.32h0c1.772,1.772,4.1.665,6.2,1h.886c1.772,1.883,4.1.664,6.2,1h0c4.984,1.994,10.079,4.1,15.064,6.2h0c0,1.772.222,3.323,2.215,3.987h0a66.872,66.872,0,0,0,14.288,7.31,8.66,8.66,0,0,1,6.092,6.978c2.1,8.861,3.544,17.943,6.756,26.472h0c.221,1.661-.665,3.655,1.108,4.984h0c1.108,5.095.775,10.965,5.981,14.288h0a2.705,2.705,0,0,0,2.769,2.88h0c.886.665,1.772,1.551,2.658,2.1,7.864,4.984,15.728,9.858,22.927,15.839,2.658,2.215,2.769,6.646,6.978,7.31h0a8.8,8.8,0,0,0,6.092,1.994h0a4.711,4.711,0,0,0,3.877,3.1h0c5.649,4.43,7.089,11.408,10.3,17.279h0v17.279h0c-.665,1.661-1.329,3.434-2.1,5.095-1.883,3.877-4.32,7.2-8.972,7.975h0c-1.772.221-3.655-.665-5.1,1h0a16.58,16.58,0,0,1-3.766,1.218c-4.763.332-7.31,3.323-9.415,7.2-1.883,3.434-2.658,7.089-3.877,10.744-2.769,8.529-10.412,12.737-16.393,18.386h0a3.545,3.545,0,0,0,0,5.1h0c-.111,2.99.443,6.2,3.323,7.421,5.538,2.548,8.75,7.2,11.851,11.851h0c-.332,3.212,3.655,2.99,4.541,5.981,1.883,6.313,1,12.184-.443,18.276h0c-1.329,2.88-5.317,4.874-2.991,9.083h0v6.092c-4.763,6.092-9.525,12.184-14.177,18.276h0a3.416,3.416,0,0,0,0,4.984h0c-.443,3.987,1.772,6.092,4.763,8.639,4.984,4.209,11.408,2.88,16.614,5.76h0c.775,1.772,2.215,1.994,3.877,1.883h0c11.63,5.649,22.484,12.627,33.339,19.494,2.1,1.329,3.877.332,4.984-.886,4.43-4.32,10.079-6.646,15.285-9.526h0c3.544,0,7.089.221,10.633,0,4.209-.332,8.639,1.218,12.738-1h10.965c1.883,1.661,4.43,1.218,6.646,1.772,10.522,2.769,10.522,2.658,8.639,12.405h0c-2.991-.221-4.1,1.329-4.1,4.209v13.956h0c-2.1,6.646-5.206,12.294-12.184,15.064-1.994.886-2.1,3.212-1.994,5.206h0c-1.772,1.994-2.1,4.431-2.1,6.978h0c-2.1,5.316-3.766,10.965-9.082,14.288h0c-1.994,2.326-2.1,5.095-1.994,7.975h0c-1.883,2.1-2.215,4.763-3.1,7.31-3.434,10.079-4.763,10.744-15.174,7.31h0c-1.551-1.994-3.212-1.661-4.984-.221h0c-1.772.221-3.655-.665-5.1,1h0c-.886.332-1.883.665-2.769,1h0c-1.329,5.095.665,9.636,2.769,14.177h0c4.43,3.655,8.75,7.421,13.181,11.076h0c1,1.661,2.1,2.991,4.1,1.108h0c2.215.443,4.1-1.883,6.646-.222,4.763,3.323,9.747,6.2,14.62,9.193h0c1.218,1.883,2.437,3.766,4.873,4.1h0c1.661,2.1,2.437,4.652,3.544,6.978,3.212,6.646,0,13.07.554,19.6.554,4.984-1.883,6.2-6.978,4.984-2.326-.554-4.652-.775-6.867-1.219h0c-2.548,0-5.206-.332-7.2,1.994h0c-1.108,1-2.1,1.994-3.212,3.1h0a5.267,5.267,0,0,0-3.877,2.1,76.857,76.857,0,0,0-8.639,2.437c-2.658,1.108-4.1-.111-4.32-2.437-.443-3.655-2.437-3.323-4.984-2.658-4.32,1.108-8.639,2.547-13.07,3.323-3.434.554-6.756,3.1-10.522,1.44h0c-1.661-2.215-3.987-.886-6.092-1.218-2.1-1.994-4.763-.665-7.2-1h-4.873c-2.547,0-5.206-.332-7.089,1.994h0c-2.99,1.551-5.206.443-7.089-1.994,0-1.994-1.108-2.991-3.1-2.991h0a20.855,20.855,0,0,1-5.1-4.763h0c-1.44-1.994-2.88-.443-2.547.554,1.661,5.76-.886,11.519.554,17.279h0c-4.1,3.212-9.082,5.317-11.741,10.522-3.544,7.089-10.19,11.851-13.624,19.051h0c-2.326,9.858-.886,19.6,1,29.352h0v1.883h0v5.316h0c-1.218,2.215-.775,5.206-2.991,6.978h0c-1.883,1.218-3.766,2.437-4.1,4.873h0l-9.3,8.307h0c-1.661.332-3.323.665-4.873,1h0c-2.88-1.883-4.652-2.326-5.206,2.215-.222,2.548,0,5.76-3.434,7.2a57.179,57.179,0,0,0-9.193,5.095c-7.975,5.317-18.829,6.313-23.481,16.393,0,.111-.222.332-.332.443h0c-1.661,0-3.1.222-3.877,1.883h0c-4.32,2.437-8.529,5.095-12.959,7.421-3.212,1.661-4.43,4.209-5.538,7.532-1.551,4.541,2.215,9.3-.886,13.513h0a3.545,3.545,0,0,0,0,5.1h0c.443,2.769.665,5.538,1.994,8.2h0c0,3.212,1.44,3.877,3.987,1.994h0c1.772.554,3.877-2.1,5.095-.222,2.769,4.1,8.086,6.424,8.2,12.516.111,4.984,2.88,8.861,7.753,10.855,5.095,2.1,10.19,4.209,15.4,6.313h0c1.883,1.661,4.1.664,6.2.886h.886c2.1,1.994,4.652.665,6.978,1.108h0c2.658,1.218,5.206,2.88,8.2,3.1h0a5.911,5.911,0,0,0,5.095,1.994h0c2.658,1.108,5.427,2.1,8.086,3.212h0c.111,1.994,1.44,2.991,3.1,3.877h0c4.1,3.1,8.086,6.2,12.184,9.3h0c.443,1.661.665,3.544,1.883,4.874h0c1.661,2.326,3.544,4.541,5.095,6.867.775,1.108,1.883,3.1-.554,3.544-5.206.886-6.313,5.316-8.529,8.861h0c-.886.665-1.329,1.661-.332,2.437a2.22,2.22,0,0,0,3.434-.443c1.772-.222,5.206-2.548,3.212,2.437a2.361,2.361,0,0,0,.886,2.658h0c.111,2.658-.665,5.76,2.991,6.978h0a45.4,45.4,0,0,1,14.51,6.092c6.646,4.43,15.839,5.538,18.719,14.953.554,1.994,2.326,1.218,3.434-1,2.991-6.313,4.984-13.181,8.639-19.161h0c1.994-1.108,2.326-2.99,2.215-5.1h0c0-.775,0-1.551.775-1.993h0c2.1-3.766,5.427-4.541,9.415-3.988h0a47.667,47.667,0,0,0,16.282,1.994h0a20.924,20.924,0,0,0,8.972,2.1h0c5.76,2.991,13.291,2.769,17.279,9.193h0c0,1.772,1,2.769,2.88,2.99,4.652,6.314,9.747,12.294,13.4,19.273h0c0,1.993.443,3.766,2.1,4.984a5.627,5.627,0,0,0,1.994,5.1h0a49.871,49.871,0,0,0,6.092,14.4h0c0,1.994.443,3.655,2.1,4.874h0a7.176,7.176,0,0,0,1.994,4.1,18.552,18.552,0,0,0,3.1,8.972c-.111,2.88,0,5.76,1.994,8.085h0c1,6.092,4.209,11.408,6.092,17.279h0c0,1.994.443,3.766,1.994,4.984a13.448,13.448,0,0,0,4.1,10.19h0c3.434,5.316,7.975,9.858,10.079,16.06h0c-.111,2.88,0,5.87,1.994,8.2a75.276,75.276,0,0,0,5.1,21.377c.554,6.2,4.873,10.412,8.086,15.174h0c2.769,3.766,6.646,1.329,9.969,1.993h0v1h0a13.333,13.333,0,0,0,0,11.076h0q3.323,7.089-3.877,8.2h0c-6.646-.443-13.4-.332-20.048-.332-5.76,0-11.741-1.329-17.611.443h-.775a8.714,8.714,0,0,0-5.316,0h-.886c-2.437-1.994-5.317-2.1-8.2-1.994h0a7.254,7.254,0,0,1-4.984-1.108h0a18.052,18.052,0,0,0-13.181,0h0c-2.658,1.108-4.652.665-7.2-1.329-3.987-3.212-7.2-8.971-13.956-5.87h0c-2.991-.111-5.76,0-8.2,1.994h0c-1.772,1.661-4.984.332-6.2,2.991a11.122,11.122,0,0,0-6.867,6.867h0c-.775.776-1.551,1.44-2.215,2.215h0c-2.437.443-3.655,2.215-4.873,4.1h0c-5.427,4.1-10.855,8.085-16.282,12.184h0c-1.994.11-3.1,1.44-3.987,2.99h0c-1.883,1.661-3.877,3.212-5.649,4.984-10.633,10.744-18.94,22.706-19.6,38.545h0c-1.883,2.769-2.1,5.981-1.994,9.193h0c-3.323,7.753-3.434,16.06-4.1,24.146h0c-2.548,8.639-4.209,17.611-6.092,26.361h0c-1.994,2.215-.665,4.763-1,7.2h0v.886h0c-1.994,2.215-.665,4.762-1,7.2h0v.886h0c-1.994,2.1-.665,4.762-1,7.2h0c-1.44,4.541-1.883,9.3-4.652,13.4a6.869,6.869,0,0,0-1.44,4.652h0c-3.877,10.19-11.3,17.168-20.38,22.484h0c-1.661.222-3.544-.664-4.873,1.108h0c-2.991.886-5.87,1.883-9.193,2.88,2.326,2.659,4.209,4.984,6.2,7.2h0c0,1.883,1.108,2.88,2.991,2.99h0c.775,1.108,1.994.886,3.1,1h0a5.821,5.821,0,0,0,4.984,1.994h0c.775,1.108,1.994.886,3.1,1h0a5.828,5.828,0,0,0,5.206,1.994h0c5.427,1.44,7.864,5.649,9.968,10.3h0c-.221,2.215,1.108,3.988,1.994,5.87h0c-1.883,2.1-2.88,5.206-5.981,6.2h0c-1.772.332-4.43-1.329-5.206,1.993h0c-.222.554-.886,1.218-.775,1.772a37,37,0,0,1-3.212,22.6h0a5.7,5.7,0,0,0-1.994,4.984h0c-.886.776-1.883,2.1-1.218,2.991,3.434,4.763,4.209,11.851,11.408,13.4h0a5.627,5.627,0,0,0,5.1,1.994h0c1.218,1.661,2.991,2.1,4.984,2.1h0c4.1,1.772,8.086,3.434,12.184,5.206-1,4.1-2.769,8.307,1.108,12.073h0c.665.775,1.218,1.551,1.883,2.326,5.981,6.646,14.62,9.415,21.6,14.621,2.437,1.883,4.32,1.994,7.089.221,4.873-3.212,10.19-5.87,15.174-8.861,2.548-1.551,4.874-1.219,7.643,0,5.317,2.215,10.3,5.76,16.5,5.87h0c2.769,1.772,5.87,2.1,9.082,2.1h0c3.1,4.1,6.092,8.2,9.193,12.295h0v14.953h0c-4.984,7.643-10.079,15.285-14.288,23.37h0c-2.215,1-1.883,2.991-1.883,4.874a34.571,34.571,0,0,1-9.969,14.731c-1.218,1.108-2.548,2.215-1.772,4.32,1,2.769,1.772,5.649,2.658,8.529h0c.332,2.991.665,5.87,1,8.861-1.108.775-.886,2.1-1.108,3.212-1.883,1.662-2.1,3.766-1.994,6.092-2.769,3.544-3.766,7.753-4.1,12.184h0c-1.994,5.76-4.1,11.408-6.092,17.168a3.415,3.415,0,0,0,0,4.984h0c.443,1.772-.554,3.766,1.108,5.206h0c.554,5.981-1.218,12.073.886,18.054h0a14.285,14.285,0,0,0,3.1,6.2h0c0,1.661.221,3.212,2.1,3.876-.332,3.877.554,7.864-.775,11.852-.665,1.994.554,3.1,2.548,3.434h0a37.708,37.708,0,0,1,12.184,19.6,67.236,67.236,0,0,0,3.212,7.753h0a6.234,6.234,0,0,0,1.994,5.1h0c2.326,7.643,6.313,14.731,9.193,22.152h0c-.111,2.99,0,5.76,1.994,8.2h0c-.332,2.99,1,4.984,3.655,6.424,3.655,1.994,6.978,4.43,10.522,6.646h0c.665,2.769,1.551,5.427,3.987,7.089a77.13,77.13,0,0,1,4.1,14.177h0a16.006,16.006,0,0,0,0,12.184h0c.443,1.661-.554,3.655,1.108,5.206h0v4.874c-1.329,2.88-1.661,6.092-1.994,9.193h0a5.664,5.664,0,0,0,0,7.089h0c-.111,2.88.886,5.427,1.994,7.975h0v4.984h0c-6.535,4.652-14.62,7.864-17.168,16.725a20.6,20.6,0,0,1-9.968,13.07,16.063,16.063,0,0,0-8.418,12.959h0v4.984h0c-13.956,8.307-27.912,16.615-41.757,25.143-3.212,1.993-6.092,2.99-9.858,1.55-2.769-1-4.32.222-5.317,3.434-1.551,5.095-1.994,9.3,2.991,12.737a17.607,17.607,0,0,1,2.215,2.658h0c5.649,2.326,11.63.443,17.389,1h0c5.317,1.993,10.522,4.1,15.839,6.092,3.655,1.329,10.19,9.083,8.972,11.519-2.658,5.427,0,9.968,1.329,14.731h0v5.206h0c-1.44,3.212-1.551,6.757-2.547,9.969s-.222,5.538,2.547,7.31h0c.332,1.993.665,3.988,1.108,6.092h0a4.82,4.82,0,0,0,0,5.87h0c0,2.547-.332,5.206,1.883,7.088h0c0,3.766,3.544,5.317,5.1,8.086h0c.775,1.772,2.215,2.1,3.877,2.1h0c7.642,3.434,15.507,6.535,19.051,15.174,1,2.547,2.88,4.763,4.43,7.2h0c0,2.547.332,4.984,2.1,6.978.222,1.772-.665,3.656,1,5.1h0a43.2,43.2,0,0,0,2.991,11.076h0c2.437,1.994,4.209.111,6.092-1h0a5.569,5.569,0,0,1,3.987-1h0c2.88.111,5.76,0,8.2-1.993h21.266a13.369,13.369,0,0,0,7.2,2.1h0c1.661,1.883,3.766,2.1,6.092,1.994,1.994,2.215,2.326,5.427,4.984,7.089h0c.332.665.665,1.44,1,2.1h0v5.981h0c-1.329,1.108-.775,2.659-1,4.1h0a30.96,30.96,0,0,0-3.1,12.959h0l-11.3,11.3h0a2.823,2.823,0,0,0-2.88,2.991h0c-1.551,2.1-1.883,4.652-1.994,7.2h0c-1.994,1.661-2.1,3.877-1.994,6.2h0l-3.655,11.3c-1.108,3.1-.554,5.538,2.1,7.864,3.766,3.212,7.642,6.424,7.975,12.184,0,1.551,1.44,3.1,3.655,1.993h5.1c1.108,1.44,2.769.665,4.1,1h0c1.551,1.883,3.655,2.1,5.981,1.994,7.31,2.769,12.848,7.864,14.62,15.174,1.661,6.535,4.763,10.854,10.855,13.291h0l1.994,8.972h0c-1.329,1.108-.775,2.658-1,4.1-.886,2.659-1,5.538-2.1,8.086-3.987,3.1-7.975,6.092-11.962,9.193-3.323,1.218-3.544,4.209-4.209,6.978a17.73,17.73,0,0,0-1.994,9.194,85.306,85.306,0,0,0-.111,19.161,12.036,12.036,0,0,0,.111,1.994,33.369,33.369,0,0,1,0,12.405c-7.31,11.076-5.76,24.367-9.193,36.33-4.541,8.971-.886,18.165-.886,27.358h0c.775,2.658.886,5.538,1.994,8.085,1.218,1.551-.221,3.655,1.108,5.1,2.437,2.99,5.981,4.209,9.082,6.091,1.329.554,2.769,1,3.987-.221,1.883-3.434,7.532-4.43,6.978-9.3-1-7.421,3.544-11.852,7.753-16.725a5,5,0,0,1,5.76-1.661,231.478,231.478,0,0,1,22.817,7.975c3.1,1.218,4.1,2.769,3.1,5.981-2.1,6.756-.775,12.738,4.541,17.833,2.1,1.993,3.212,1.883,4.541-.444a64.437,64.437,0,0,1,9.3-13.18c6.313-6.756,11.962-14.177,18.386-20.823,8.418-8.75,16.282-18.054,26.472-24.921,4.209-2.88,8.418-5.649,11.408-10.412a56.957,56.957,0,0,0,8.639-23.481c1.218-8.529,4.541-16.946,1.994-25.918-1.218-4.209-3.544-8.529-2.658-12.737,2.437-11.851,2.437-23.26-1.661-34.668a2.67,2.67,0,0,1,.665-3.212c6.424-5.427,8.086-13.07,9.3-20.712,2.1-13.07,5.317-25.918-2.88-38.988-4.873-7.864-7.31-18.054,3.212-25.364.111,0,.221-.332.221-.443,3.323-4.43,3.212-7.532-.443-11.852-1.44-1.661-2.991-3.212-4.32-4.874-1.44-1.883-3.1-3.544-2.326-6.646,4.652-18.276,8.861-36.662,18.165-53.387,10.522-18.94,21.6-37.216,40.1-49.731,6.424-4.32,11.962-9.636,20.158-10.854,7.089-1.108,14.4-2.437,21.045-5.1,9.636-3.766,17.389-1.329,25.032,4.541,2.547,1.994,3.434,3.877,3.1,6.757-.554,5.316-1.661,10.744-1.551,16.06,0,5.427.332,11.408,4.32,15.617,3.987,4.32,8.75,7.864,12.294,12.626a2.971,2.971,0,0,0,3.987,1.108c1.44-.554,3.655-.775,3.877,1.108.775,6.867,5.317,3.987,8.528,3.323a17.673,17.673,0,0,0,6.424-2.88c5.427-4.1,10.19-3.544,15.285.665,2.658,2.215,5.649,2.769,9.415,1.883,4.763-1.107,8.639-3.765,13.07-5.427,9.969-3.766,16.836-10.412,18.276-21.377.664-5.317,3.434-7.421,8.418-8.307,2.326-.332,5.76.332,6.756-2.437,2.658-7.31,8.086-13.845,7.643-22.263,0-2.1.221-3.876,2.88-4.541,3.434-.776,10.19-12.849,8.529-15.839-2.769-4.762-4.541-10.854-11.076-12.294-5.649-1.218-9.082-4.762-10.965-10.079a10.429,10.429,0,0,0-7.753-7.2c-8.639-1.883-8.418-8.2-7.532-14.4,1.994-13.512,7.421-25.807,13.734-37.769,1.994-3.766,4.541-5.1,8.529-4.1,3.766,1,7.532,1.44,11.3-.221a4.39,4.39,0,0,1,5.427,1.218c5.1,5.316,11.187,3.987,13.4-2.769a4.751,4.751,0,0,1,2.326-2.547c4.32-2.215,3.212-5.538,1.661-8.529a19.618,19.618,0,0,0-5.538-6.535c-6.092-4.32-8.418-10.744-10.744-17.168-1.108-3.1-2.215-6.535.665-9.525a1.849,1.849,0,0,0,0-2.769c-3.323-3.1-6.756-6.2-10.19-9.082-1.218-1.108-2.769-.443-3.655.554-5.427,5.538-11.187,3.766-17.168,1.219a35.356,35.356,0,0,0-8.307-2.215c-5.095-.665-8.75-2.99-12.073-7.089a67.506,67.506,0,0,1-9.3-14.953c-1.661-3.655-3.544-4.541-7.753-3.877a41.618,41.618,0,0,0-26.14,14.62c-6.313,7.311-13.734,7.089-20.712.665-1-.886-1.994-1.772-3.1-2.658-6.867-5.649-13.734-11.408-18.5-19.162-1-1.661-2.326-2.99.886-4.1,6.313-2.1,6.092-2.215,4.32-8.639-1.218-4.32-4.984-6.646-7.2-10.3a1.265,1.265,0,0,0-1.661-.665c-1.772.665-4.873,8.529-3.655,9.968,1.772,2.1,4.32,4.984,0,5.87-3.212.665-1.661,4.763-5.316,4.652-5.87,0-11.408-.222-15.4-5.538-1.44-1.994-3.766-3.323-5.649-5.1-8.861-8.307-15.617-18.054-18.94-29.794a253.5,253.5,0,0,1-7.642-37.548c-1.44-10.965-4.1-21.82-4.1-33.007,0-8.639.443-17.279-.664-25.807a33.409,33.409,0,0,1,6.867-26.361c1.772-2.326,3.655-5.095,2.769-8.307-1.551-5.87-2.215-11.962-5.981-17.057a9.056,9.056,0,0,1-1.44-8.529c1.44-5.649,2.215-11.519,3.544-17.279,2.548-10.744,2.991-21.931,7.2-32.453,7.975-19.715,15.728-39.431,24.589-58.814,7.2-15.95,18.608-28.576,30.791-40.1,10.079-9.526,16.171-20.6,16.5-33.339.554-22.706-2.548-45.412-2.215-68.118,0-5.095.111-10.19-.221-15.174a221.808,221.808,0,0,1,.775-42.864c2.215-18.054,4.32-36,6.756-54.052,1.44-10.522,1.551-21.155,5.1-31.345,3.212-9.193,6.092-18.608,9.3-27.8,7.532-21.488,13.07-43.529,23.149-64.131,9.415-19.051,17.722-38.545,26.693-57.817,5.538-11.962,10.633-24.146,18.165-35a18.161,18.161,0,0,1,4.43-4.762c1.661-1,3.1-1.551,3.766,1,.443,1.883,1.108,3.212,3.434,2.1,2.658-1.218,7.864.111,7.975-3.766.332-9.968,3.877-19.937.886-29.905-1.108-3.545-.554-5.76,2.547-8.2,3.766-3.1,9.747-5.538,6.978-12.627-.443-1.108.886-2.1,1.772-2.88a70.5,70.5,0,0,1,6.535-4.763c8.307-5.095,9.525-9.858,4.541-17.943-1.218-1.994-1.883-3.1,1.772-3.545,6.535-.886,13.181-1.883,16.282-9.525,1.661-4.209,5.649-6.978,11.076-5.427,1.551.443,3.323.111,5.095.221,1.994,0,2.769-1,2.326-2.88-1-3.655-1.108-7.643-4.32-10.522-2.215-1.883-3.1-4.652-3.655-7.643a101.007,101.007,0,0,0-2.658-10.3,6.011,6.011,0,0,0-1.44,1.219c-1.883,4.652-4.984,6.646-10.19,5.76-5.095-.886-5.649-4.652-6.535-8.418-1-4.43-1.994-8.861-3.1-13.291a9.09,9.09,0,0,1,.443-5.427c4.873-14.731,9.636-29.462,14.4-44.194a41.647,41.647,0,0,1,2.215-5.095c1-1.994,2.326-3.323,4.763-1.661,2.215,1.44,2.548.221,3.212-1.772,1.772-5.759,1.883-10.965-1.883-16.06-1.661-2.215-2.99-4.763-1.994-7.975,5.759-18.386,6.092-18.94,22.706-28.687,7.2-4.209,8.972-3.434,11.187,4.32.332,1.108-.332,2.99,1.551,3.323,1.329.221,9.636-7.2,9.415-8.639-1.108-7.975,2.1-15.174,3.766-22.6.886-3.987,0-5.981-3.323-7.753-2.326-1.218-5.1-2.1-5.317-5.538-.443-5.981-3.987-10.412-7.975-14.177-3.544-3.323-2.547-5.316.554-7.975,5.87-5.095,10.412-10.965,9.747-19.494-.222-2.769,1.329-4.873,3.323-6.535a45.985,45.985,0,0,0,9.636-12.959c4.209-7.864,7.31-15.839,3.323-24.921a76.738,76.738,0,0,0-4.763-8.307c-3.655-5.76-15.064-6.313-19.383-1-1.994,2.437-3.655,5.649-6.978,6.313-6.092,1.218-10.855,4.652-15.506,8.086-2.548,1.772-3.434,1.551-4.874-.886-1.218-2.1-2.326-5.87-4.541-5.427-2.548.443-3.544,4.1-4.874,6.646a11.521,11.521,0,0,0-1,3.323c-.443,2.1-1.661,2.658-3.766,2.215a20.4,20.4,0,0,1-7.753-3.1c-7.089-4.984-11.962-11.63-16.393-18.94-7.753-12.848-18.054-24.257-19.715-40.206-1.218-11.187-6.424-21.709-6.867-33.007a544.491,544.491,0,0,1,1.107-60.143c.665-10.411-.221-20.934,1.883-31.234,9.525-46.3,18.165-92.818,29.352-138.673,6.092-25.253,15.95-49.732,25.364-74.1,16.282-41.646,30.459-84.289,52.944-123.5,12.627-22.041,24.367-44.637,39.542-65.238,5.095-6.867,13.291-8.75,20.269-3.987,2.769,1.883,4.541,1.772,6.756-.775,3.655-4.1,7.089-8.639,13.513-8.75,2.437,0,2.326-1.772,1.108-3.544-2.99-4.32-5.87-8.639-8.861-12.848-.886-1.218-1.994-2.1-1.661-3.987,1.551-8.085,1.661-16.5,4.541-24.257,2.658-7.532-.664-14.177-2.1-21.155-.221-1.329-1.551-2.215-2.88-2.769-4.652-1.772-6.646-5.316-7.089-9.968-.554-5.1-2.769-8.861-8.418-9.636-4.209-.665-5.317-3.655-4.431-7.421a50.926,50.926,0,0,0,.886-10.079c-.332-13.4,1.994-26.472,3.655-39.652.886-7.2,2.1-14.288,1.44-21.931-.664-7.532,4.32-14.953,7.532-22.152.554-1.329,3.1-1.772,4.763-2.658,5.206-2.769,10.633-5.095,15.285-8.861,5.538-4.541,11.187-8.086,19.051-6.535,4.209.886,7.532-1.108,8.307-5.87a19.579,19.579,0,0,1,1.661-4.209c1.551-3.434,2.326-6.646-1.551-9.3-1.772-1.218-1.44-3.212-1.551-5.095,0-9.636,3.434-18.5,5.317-27.69.775-3.766-.221-4.652-3.766-5.76ZM564.838,148.758ZM362.367,1668.286ZM279.3,429.315ZM547.559,57.6Zm211.11,1310.412c.775.664,1.551.332,2.437,0,1.108-.332,2.215-.886,3.1.443a2.658,2.658,0,0,1-.222,3.323c-2.88,3.323-1.108,6.314.554,9.193,2.326,4.1,1.551,5.87-3.323,6.646-4.652.665-9.3,1.44-13.956,1.994-11.3,1.44-22.484,4.1-34,2.326-11.3-1.772-22.263,3.212-33.671,1.772-5.981-.775-12.073-.554-18.054-1.883-1.883-.443-4.209,0-2.547-3.544,1-2.326-.554-5.206-1.772-7.643-2.88-5.317-5.649-10.744-8.972-15.839a28.3,28.3,0,0,1-4.763-14.731c0-5.76,4.209-10.3,8.529-14.177,4.874-4.32,11.3-4.763,17.39-6.646-1.44-3.655-6.535-3.212-7.532-6.867-1.218-4.763-9.747-4.652-7.975-10.744,1.551-5.206-1.44-9.083-1.883-13.624-.111-1.329-.332-3.1-1.218-3.766-6.867-4.652-5.427-12.627-7.753-18.94-1.218-3.323.886-7.421,2.1-9.969,2.99-5.981,3.212-13.07,7.532-18.386a18.726,18.726,0,0,0,2.99-5.206,36.583,36.583,0,0,0,2.1-8.307c.443-3.655-3.544-3.544-5.316-5.317-3.544-3.766-6.535-7.421-3.544-12.849,1.329-2.326,0-4.652-.775-6.756-3.544-8.307-6.646-16.947-14.4-22.706-4.541-3.323-3.655-9.193-4.873-13.956-1.108-4.209-2.658-6.646-7.089-6.756a4.771,4.771,0,0,1-3.877-2.1c-2.658-4.1-6.756-5.981-11.3-6.978-5.427-1.219-7.643-6.424-11.63-9.415-1.551-1.108-.221-4.32.443-6.2,3.1-8.972,0-15.617-6.535-21.709-4.1-3.766-4.984-9.082-3.323-14.4,2.437-7.864,3.987-16.06,9.3-22.817.886-1.108.554-2.548.554-3.877,0-7.2-.664-14.4.775-21.709.886-4.541.332-9.3-4.32-12.405-2.658-1.772-4.43-10.633-2.991-13.624,3.212-6.535,3.212-12.073-1.218-18.608-4.209-6.2-6.2-13.956-2.326-21.488a12.008,12.008,0,0,0,.554-10.633c-1.218-2.88-.443-5.206,1.551-7.31a66.194,66.194,0,0,0,16.614-30.57c2.99-12.405,8.2-24.257,12.294-36.329a60.841,60.841,0,0,0,2.99-11.741c.554-3.877,2.88-4.984,6.092-5.538,6.867-1.108,12.294-5.981,13.4-11.63,1.218-6.313,5.427-10.965,6.756-16.946.443-2.1,1.108-4.652,4.763-3.323,2.99,1.108,3.433,2.437,3.212,5.538-.443,6.424,1.44,12.627,4.209,18.386a131.912,131.912,0,0,0,8.972,15.839,19.681,19.681,0,0,1,2.769,12.959c-.443,4.541-1.551,9.3,3.877,12.405,2.215,1.218,1.44,4.652,2.658,7.31,2.658-1.772,2.99-4.43,4.652-6.092,1.44-1.551,3.655-3.212,5.095-1.994,1.44,1.108,1.218,3.655-.221,5.87a38.854,38.854,0,0,1-17.943,15.063c-8.418,3.434-9.193,10.079-9.636,17.389-.332,5.76-.886,11.408-1.108,17.168,0,2.658-1.218,4.209-3.433,5.649a177.5,177.5,0,0,1-28.8,15.839c-5.206,2.326-4.984,2.326-1.218,6.867a39.658,39.658,0,0,0,11.741,9.3c.775.443,1.661.665,2.1,1.329,5.538,8.2,14.288,13.291,20.048,21.266,1,1.329,1.551,3.212,2.769,4.209,3.766,3.1,3.655,6.646,2.215,10.744-.665,1.883-1.661,4.431,2.326,3.323a1.639,1.639,0,0,1,2.215,1.44c1,6.2,6.756,6.2,10.19,5.759,8.418-1.218,14.4,2.658,17.943,8.639,5.538,9.3,13.734,14.51,22.6,19.494,1.108.554,2.991.776,2.437,2.658-.332,1.329-1.883,1.218-2.991,1.44-3.655.554-4.984,1.994-3.766,6.092,2.1,7.31,1.883,7.421-5.649,5.538a8.941,8.941,0,0,0-4.32-.332c3.987,3.766,7.975,7.421,11.851,11.187,5.76,5.649,5.538,9.525-.554,14.4-3.987,3.212-8.086,6.313-5.206,12.405,1,2.1-.111,3.1-2.326,3.323-3.655.332-3.655,2.215-2.991,5.206a49.239,49.239,0,0,0,5.649,13.4c3.877,6.313,2.991,11.962-2.547,16.946-1.329,1.218-2.215,2.215-1.772,4.209.775,3.544-1.994,3.987-4.43,4.763-3.212,1-3.766-.664-4.1-3.212-.221-2.1-1.661-2.547-3.655-1.994-3.544,1-7.2,1.883-10.744,2.769-2.326.554-2.88,1.551-1,3.323,4.541,4.209,7.089,9.858,10.855,14.51,4.209,5.206,10.633,7.642,16.282,10.854,7.753,4.32,11.962,12.184,18.94,17.279,4.43,14.62,18.94,15.728,29.573,21.931,3.212,1.883,6.867,4.763,11.3,2.769,1-.443,1.662.443,1.772,1.329.886,5.206,4.209,10.079,2.1,15.728a9.86,9.86,0,0,0-.886,3.877c.886,10.411-2.326,19.715-6.2,29.241-1.551,3.766-2.437,7.975-4.763,11.63-1.329,2.215,0,3.655,1.883,4.32,5.649,1.994,5.87,5.76,3.212,10.079-2.437,4.1-1.108,6.535,2.88,8.307a9.716,9.716,0,0,1,3.323,2.215c1.994,2.1,2.991,4.1-.221,6.535-4.874,3.766-9.858,7.642-12.516,13.513-.332.886-1.329,1.661-.665,2.769Zm-138.34,161.6c-9.415-1.994-16.282-7.643-24.257-11.962a2.681,2.681,0,0,1-.443-4.652c3.877-2.1,5.206-6.424,8.75-8.861,6.092-4.209,6.978-9.747,3.766-16.393-.221-.554-.886-1.44-1.108-1.44-5.87.886-5.538-4.43-7.2-7.421-4.1-7.2-16.946-8.085-21.82-1.329-3.323,4.43-4.984,9.082-2.991,14.51.554,1.551,1.661,3.323-.443,4.43-1.329.775-2.769,0-3.544-1.219-1-1.44-1.883-3.212-.554-5.095,1.44-2.1.554-11.076-1-12.405-1-.886-1.883-.111-2.769,0-4.873,1.107-7.753-.333-8.861-5.095-1.218-5.317-2.88-10.412-6.092-14.842-1.44-1.883-1.551-4.43,0-5.538,5.87-4.209,5.76-11.076,8.307-16.725a20.858,20.858,0,0,1,1.108-2.1c2.547,2.215,5.1,4.209,7.31,6.313,1.883,1.772,1.218,3.987.443,6.092-.554,1.551-1.772,1-2.991.886-1.772-.111-4.541-1.994-4.873-.222-.554,2.326-.222,5.649,1.772,7.532,2.658,2.437,5.649,4.874,9.858,2.1,4.763-3.1,9.747-6.092,14.62-8.75,5.649-2.99,10.522-7.421,16.836-8.972,1-.222,2.215-.443,2.326-1.551.886-8.2,7.2-11.076,13.734-12.959,7.421-2.1,14.177-5.427,20.934-8.75,4.984-2.437,5.87-6.867,2.437-11.187-2.658-3.323-1.883-6.2.443-8.972,1.661-2.1,3.544-3.212,5.759-.554,1.772,1.994,5.981,2.326,5.76,5.095-.332,4.43-.443,9.636-3.323,12.959-5.317,6.313-4.209,11.63.554,17.168,1.661,1.883,3.1,3.987,4.652,5.981,2.215,2.88,3.433,5.76,1.218,9.193-1.108,1.661-.886,3.544-.332,5.317,2.1,6.424,1.994,13.734,6.978,19.161,1.329,1.551.665,3.545.111,5.317-1.218,3.655-2.326,7.421-3.655,11.076-.775,2.1-1.218,4.209-.332,6.424.332.886.664,2.658.221,2.88-4.541,2.769-3.987,7.975-5.981,11.962-.111.332-.665.554-.554.775,2.437,7.864-5.649,9.858-9.082,12.848-6.756,6.092-14.842,11.187-25.807,8.861Zm-90.713,744.423c-2.658,1-3.877,3.876-4.209,6.535-1.108,8.307-4.763,12.959-12.516,15.064-2.1.553-3.655,2.436-5.316,3.212-6.2,2.991-9.858,8.307-14.51,12.848-3.212,3.1-7.975,4.874-12.627,6.2-1.329.333-2.547,1-3.877.222-4.1-2.548-7.975-4.652-13.513-3.766-3.323.554-3.987-3.877-3.212-7.089,2.215-9.415,2.215-18.94,1.883-28.576-.332-9.3-5.649-16.725-10.744-24.146-1.994-2.88-1.883-4.874.886-6.646,3.1-1.994,2.769-3.988.222-5.87-2.991-2.215-2.437-4.652-.443-6.867,2.326-2.658,2.437-5.427,1.329-8.418-1.218-3.212-.221-4.984,3.1-5.316,4.32-.443,6.424-2.437,5.538-6.867-1.994-9.969,1.772-17.279,9.525-23.592,7.864-6.424,11.3-16.171,16.614-24.589,1.772-2.769-.443-6.2-1.329-9.193-2.1-7.532.665-13.513,5.1-19.051,2.437-2.99,5.206-5.76,7.753-8.639,4.1-4.763,8.529-7.864,15.285-8.861,6.2-.886,11.741-1.883,17.39,1.551,4.984,2.991,9.858,4.209,15.063-.222,3.987-3.433,7.643.443,9.193,3.1,5.981,10.08,9.193,21.266,10.633,32.786.664,5.87-2.548,9.747-5.981,13.956-8.086,9.858-18.5,17.168-28.133,25.253-1.772,1.44-4.763,1.551-7.2,2.1a7.155,7.155,0,0,0-4.652,2.658c-3.766,4.873-3.434,4.541,1.108,8.75,9.193,8.639,18.276,17.39,25.032,28.244a5.262,5.262,0,0,1,.665,2.88c-.665,5.317-1.108,10.633.886,15.839.665,1.661-.665,2.991-1.883,3.766-5.76,3.987-9.969,9.968-16.836,12.627ZM247.84,1271.208ZM574.917,186.084ZM206.305,429.315Zm-14.067-1.994ZM160.782,626.912Zm0,0Zm126.157,468.74h0a.841.841,0,0,0-.443.221A.841.841,0,0,0,286.939,1095.652ZM260.024,1525.4Zm16.282,1.994Zm59.7,76.093ZM213.5,1803.081Zm-13.181,73.988Zm-9.082,83.071a3.348,3.348,0,0,1-1,.332h0a3.934,3.934,0,0,0,1-.443Zm21.155,56.82Zm106.441,569.2Zm22.152,12.184Z" transform="translate(129.542 0)" fill="#00d087"/>
    <path id="Caminho_5537" data-name="Caminho 5537" d="M216.447,214.416h0c-1.772.111-2.658-1.551-4.209-1.994h0a45.218,45.218,0,0,0-15.063-14.953c-1.994-1.994-4.652-1.994-7.2-2.215h0c-6.424-2.88-11.962-7.532-18.829-9.415-8.529-2.326-12.405-9.193-16.5-15.95v-6.2c1.551-1.329,1-3.1,1-4.652V142.421h0a35.4,35.4,0,0,1,5.1-8.861c-4.32-3.987-9.968-3.655-15.285-4.209h0c-3.212.221-6.092-1-8.972-1.883-5.76-2.1-11.408-1.772-17.168-.111H89.736c-1.883,0-4.1-.775-5.76.886h-2.1c-1.661-1.44-3.323-1.44-5.1,0H67.806s-.222.221-.222.332c0,0,.222-.111.222-.221-1.329.332-2.769-1.883-4.1,0H49.53c-1.44-1.661-3.323-.775-5.095-1-1.44-1.661-3.323-.775-5.1-1-1.772-1.883-3.987-.665-6.092-1-1.44-1.661-3.323-.775-5.1-1-1.44-1.772-3.323-.775-5.095-1-1.772-1.883-4.1-.775-6.092-1h0c-1.218,0-1.772.775-1.883,1.994-1.661,1.44-.775,3.323-1,5.095-1.772,1.44-.775,3.434-1,5.206h0v.886c-1.661,1.44-.775,3.434-1,5.206h0a7.836,7.836,0,0,0-1,4.984A21.675,21.675,0,0,0,9.1,156.931h0c-1.883,4.652-.554,8.639,2.88,12.073h0c1.772,2.991,7.753,2.658,6.2,8.086-1.661,1.44-.775,3.434-.886,5.095h0v1.883c-1.661,1.44-.775,3.434-1,5.095h0a21.656,21.656,0,0,0-1,7.975c-1.883,1.772-.665,4.1-1,6.2h0A36.027,36.027,0,0,1,8.659,215.3c-2.88,4.32-5.317,8.75-7.753,13.181H.02v2.991c.665.332,1.44.665,2.1,1,2.658,2.548,3.766,5.87,4.984,9.193,0,3.212.332,6.313,2.1,9.082h0c0,1.108-.111,2.326,1,3.1.222,1.661-.665,3.655,1,4.984h0c.554,5.316,1.772,10.19,7.31,12.627a3.1,3.1,0,0,1,1.772,3.766c-1.551,6.757,1.329,12.848,3.1,19.051v17.057c0,1.329,0,1.551,1,1.883a2.212,2.212,0,0,0,1,.222h0c2.88.111,5.76,0,8.2-1.994h0c8.861-2.658,11.519-1.218,13.291,7.2.222,1,.443,2.1,1.551,2.326,1.329.332,1.551-1.108,1.994-1.883,1.44-2.215,2.88-4.541,4.32-6.756,1.108-1,2.1-1.994,3.212-3.1h0c3.434-3.877,6.424-2.547,9.193,1,.222,2.437-1.108,5.538,2.769,6.2h0A96.534,96.534,0,0,0,82.2,331.712l-1,4.984c-5.095.886-8.086,3.655-8.086,9.082-1.44,1.993-2.215,3.877.886,5.1h0c2.326,2.1,4.763,4.1,7.089,6.2-.554,1.329-3.987,1.329-1.883,3.987h0c2.658,6.756-4.1,5.206-6.756,7.421,2.658,3.655,5.095,7.31,8.75,9.858,1.883,1.772,4.209.776,6.313,1,4.32.443,8.75-1,12.959,1h0c1,1,1.994,2.1,2.991,3.1h0a27.045,27.045,0,0,0,11.851,1.993c1.551,0,3.1,0,3.212-2.1h0c.775-1.329,1.551-2.548,2.215-3.877,2.326-4.652,5.538-5.206,9.636-2.326,1.108.775,2.215,1.551,3.323,2.215.111,2.658-.665,5.76,2.88,6.978h0c1.108.664,2.1,1.44,3.212,2.1,1.994,2.326,4.1,1.551,6.092,0,1.772-.222,3.655.665,5.095-1h0c1.551-2.1-.665-2.215-1.551-2.658-3.766-1.661-3.655-3.766-1.883-7.2,1.994-3.655,4.873-5.649,8.418-7.31-.111-.332-.222-.554-.332-.886,0,.332.222.554.332.886-.111-2.215.886-4.874-2.1-6.2h0a60.36,60.36,0,0,0-5.1-5.538c-3.877-3.434-1.108-5.649,1.329-7.643,2.658-2.215,5.538-5.316,8.639-.443,1.218,1.883,2.437,3.655,4.984,3.545a27.314,27.314,0,0,0,3.212-15.285h0c4.763-5.427,11.076-8.861,17.168-12.516,1.661-1,2.769-.443,3.877.886,4.43,4.762,4.43,4.762,7.975-.443.221-.443.775-.665,1.108-1,2.88-1.772,2.215-4.541,2.215-7.2a1,1,0,0,1-.111.554,1,1,0,0,1,.111-.554c.332-2.658-.111-4.873-2.769-6.313-.886-.554-2.437-1.329-1.329-3.1,4.541-7.089,7.753-15.064,15.285-19.826,1.218,0,2.437-.332,2.658-1.772.111-1.218-.886-1.108-1.772-1.218h0c-1.994,0-3.212-1.772-4.873-2.437-2.991-1.329-5.317-4.209-9.082-3.544-2.215.222-1.772-2.547-3.434-2.991h0c-2.88-5.1-1.329-9.082,3.212-12.294,2.215.222,3.987-.332,4.209-2.991h0c3.655-4.541,8.2-8.307,9.858-14.177,3.544-3.544,3.766-7.642,2.215-12.073h.886a.839.839,0,0,0,.443-.222.839.839,0,0,0-.443.222c1.661-.111,3.766.775,4.209-1.994h0c.443-4.652,2.769-9.3,1-14.067q0-5.427-2.991-5.1ZM63.6,128.355Zm-38.545,185.3Z" transform="translate(0 1232.016)" fill="#00d087"/>
  </g>
</svg>
