<svg xmlns="http://www.w3.org/2000/svg" width="168.764" height="112.814" viewBox="0 0 168.764 112.814">
  <g id="Arte_3" data-name="Arte 3" transform="translate(84.382 56.407)">
    <g id="Grupo_14234" data-name="Grupo 14234" transform="translate(-84.382 -56.407)">
      <g id="Grupo_14227" data-name="Grupo 14227">
        <path id="Caminho_27251" data-name="Caminho 27251" d="M455.217,39.834l-.519-8.517a1.421,1.421,0,0,0-1.968-1.224l-9.1,3.811-1.09-21.091,8.347,1.527a1.421,1.421,0,0,0,1.166-.307c.011-.009.02-.019.031-.029l.013-.01.031-.029.013-.01c.011-.009.02-.019.031-.028l.014-.011.031-.029.013-.01c.011-.009.021-.02.032-.03l.013-.009.031-.029.014-.01c.011-.009.021-.02.031-.029l.013-.01c.011-.009.02-.02.031-.029l.013-.01c.011-.009.02-.02.031-.029l.013-.01.031-.029.014-.01c.011-.009.02-.02.031-.029l.013-.01c.011-.009.02-.02.031-.029l.013-.01.031-.029.013-.01.031-.029.014-.01c.011-.009.021-.02.032-.03l.013-.009.031-.029.013-.01c.011-.009.02-.019.031-.029l.013-.01c.011-.009.02-.019.03-.029l.014-.01c.011-.009.021-.019.031-.029l.013-.01c.011-.009.02-.02.031-.029l.013-.01c.011-.009.021-.019.031-.029l.013-.01c.011-.009.02-.019.031-.029l.014-.01c.011-.009.02-.019.031-.029l.013-.01.031-.029.013-.01c.011-.009.021-.02.032-.03l.013-.009c.011-.009.02-.019.031-.028l.014-.011.031-.029.013-.01c.011-.009.02-.019.031-.029l.013-.01c.011-.009.02-.019.031-.029l.013-.01c.011-.009.02-.019.031-.028l.014-.011c.011-.009.02-.019.031-.029l.013-.01c.011-.009.02-.019.031-.029l.013-.01c.011-.009.02-.019.031-.029l.013-.01c.011-.009.02-.019.03-.028l.014-.011c.011-.009.021-.02.032-.03l.012-.009.031-.029.013-.01c.011-.009.02-.019.031-.029l.013-.01.03-.029.014-.01c.011-.009.02-.019.031-.029l.013-.01c.011-.009.02-.02.031-.029l.013-.01c.011-.009.02-.019.031-.029l.013-.01c.011-.009.02-.019.031-.029l.014-.01c.011-.009.02-.02.031-.029l.013-.01c.011-.009.02-.02.031-.029l.013-.01.031-.029.013-.01c.011-.009.02-.02.031-.029l.013-.01.031-.029.013-.01c.011-.009.02-.019.031-.029l.013-.01c.011-.009.02-.019.031-.029l.013-.01c.011-.009.02-.019.031-.028l.014-.011c.011-.009.02-.019.031-.029l.013-.01a1.421,1.421,0,0,0,.511-1.092v-.427a1.419,1.419,0,0,0-.06-.409,1.431,1.431,0,0,0,.06-.408V9.275a1.421,1.421,0,0,0-1.175-1.4L434.756,4.543a1.419,1.419,0,0,0-.511-.42l-.807-.392a1.417,1.417,0,0,0-.707-.14l-.86.052a1.417,1.417,0,0,0-.871.371l-.044.039-.045.04-.045.04-.044.038-.044.039-.045.039-.045.039-.044.039-.044.038-.045.04-.045.039-.044.039-.044.039-.045.039-.044.039-.045.039-.044.038-.045.04-.044.039-.044.039-.044.038-.045.04-.045.039-.044.039-.044.038-.045.039-.045.039-.044.039-.044.038-.045.04-.045.039-.044.039-.044.039-.045.039-.045.039-.045.039-.044.038-.045.04-.045.039-.044.039-.044.038-.045.04-.045.039-.044.039-.044.039-.045.039-.045.039-.044.038-.045.04-.044.039a1.418,1.418,0,0,0-.481.808l-16.1,25.449a1.421,1.421,0,0,0,.1,1.657l.1.123c.054.065.107.13.158.195a1.421,1.421,0,0,0,2.111.148c.015-.013.031-.026.045-.04s.03-.025.044-.039.03-.025.044-.038.031-.026.045-.04.03-.025.045-.039.03-.025.044-.039.03-.025.044-.038.031-.026.046-.04.03-.025.044-.039.03-.025.045-.039.03-.025.044-.038.031-.026.045-.04.03-.025.044-.039.03-.025.044-.039.03-.025.044-.039.031-.026.045-.04.03-.025.044-.039.031-.026.045-.04.029-.024.043-.038.031-.026.045-.04.03-.025.044-.039.03-.025.044-.039.03-.025.044-.039.031-.025.045-.039.03-.025.045-.039.03-.025.044-.039.03-.025.044-.038.031-.026.046-.041.03-.025.044-.038.03-.025.044-.039.03-.025.044-.038.031-.026.045-.04.03-.025.045-.039.03-.025.044-.039.03-.025.044-.038.031-.026.045-.04.03-.025.044-.039.031-.026.045-.04.029-.025.043-.038.031-.026.045-.039.03-.025.045-.039.03-.025.044-.039.03-.025.044-.038.031-.026.045-.04.03-.025.045-.039.03-.025.044-.039.03-.025.044-.039.031-.026.046-.04.03-.025.044-.038.03-.025.044-.039a1.41,1.41,0,0,0,.256-.3l10.272-16.235-.713,7.535-11.087,16.49a1.421,1.421,0,0,0-.228.991c.027.187.05.381.068.574a1.421,1.421,0,0,0,.519.975,1.421,1.421,0,0,0-.435,1.024v.063c0,.034,0,.069,0,.1v.007q0,.123-.012.256l0,.076c-.019.352-.053.708-.083,1.01a1.418,1.418,0,0,0,.406,1.145l.061.182,0,.005c-.016.014-.032.027-.047.041s-.03.025-.044.039-.029.024-.043.037-.031.025-.045.039-.032.027-.046.041-.03.025-.044.038-.03.025-.043.038-.031.026-.045.039-.032.027-.047.041-.03.025-.043.038-.029.024-.043.038-.03.025-.044.039-.032.027-.047.041-.029.024-.043.038-.03.025-.044.038-.032.026-.046.041-.03.025-.044.038a1.418,1.418,0,0,0-.451.78l-.01.053a1.423,1.423,0,0,0-.01.506c-.065.183-.136.377-.217.585l-.065.171c-.032.086-.064.171-.1.256q-.015.036-.028.073a16.573,16.573,0,0,1-1.21,2.309,1.421,1.421,0,0,0-.388,1.361l.105.514a1.422,1.422,0,0,0,1.806,1.075l9.464-2.88-.213,2.306a1.421,1.421,0,0,0,1.415,1.552l.087,0,1.02-.062h.008l.853-.052a1.419,1.419,0,0,0,.908-.4c.015-.013.03-.025.044-.039s.03-.025.044-.038.031-.026.046-.04.03-.025.044-.039.03-.025.044-.038.031-.025.045-.04.031-.025.045-.039.03-.025.044-.039.03-.025.044-.038.031-.025.045-.04.03-.025.045-.039.03-.025.044-.039.031-.025.045-.039.031-.025.045-.039.03-.025.044-.039.031-.025.045-.039.03-.025.044-.038.031-.026.045-.04.03-.025.044-.039.031-.025.044-.039.03-.025.044-.038.031-.026.045-.04.031-.026.045-.04.03-.025.044-.039.03-.025.044-.038.031-.026.045-.04.031-.025.045-.039.03-.025.044-.039.03-.025.044-.038.031-.026.045-.04.03-.025.045-.039.03-.025.044-.039.031-.025.045-.039.03-.025.045-.039.03-.025.044-.039.03-.025.044-.039.03-.025.044-.039.031-.025.045-.039.03-.025.044-.039.03-.025.044-.039.03-.025.044-.039.031-.025.045-.039.031-.026.045-.04.03-.025.044-.038.03-.025.044-.038.031-.026.045-.04.031-.025.045-.039.03-.025.044-.039.03-.025.044-.038.031-.026.045-.04a1.414,1.414,0,0,0,.465-.911l.264-2.617,6.111-1.859.227,5.668a1.421,1.421,0,0,0,1.507,1.362l2-.122a1.41,1.41,0,0,0,.812-.322c.016-.012.029-.026.044-.039s.03-.027.045-.039.03-.027.045-.039.029-.026.044-.038.03-.027.045-.039.029-.027.045-.039.029-.027.045-.039.029-.026.044-.039.03-.027.045-.04.029-.026.044-.039.029-.026.044-.039.029-.027.044-.039.03-.027.045-.039.029-.027.044-.039.029-.026.044-.039.029-.026.044-.039.03-.027.045-.039.029-.026.045-.039.03-.027.045-.04.029-.026.044-.038.03-.027.045-.039.029-.027.044-.039.03-.027.045-.039.029-.026.044-.038.03-.027.045-.039.029-.027.044-.039.029-.026.045-.039.029-.027.045-.039.03-.027.045-.04.029-.026.044-.039.029-.026.044-.039.029-.027.044-.039.03-.027.045-.039.029-.027.044-.039.029-.027.045-.039.029-.026.044-.039.03-.027.045-.039.029-.026.044-.039.029-.027.044-.039.03-.027.045-.039.029-.026.044-.039.029-.026.044-.039.03-.027.045-.039.029-.026.044-.039.03-.027.045-.039.029-.026.045-.039.029-.026.044-.039.029-.027.044-.039.029-.027.045-.039.03-.027.045-.039a1.42,1.42,0,0,0,.565-1.209l-.288-5.573,7.7-2.342a1.418,1.418,0,0,0,.606-.37c.014-.014.031-.025.044-.039s.031-.025.044-.039.031-.025.045-.039.031-.025.045-.039.031-.025.045-.039c.03-.026.062-.05.089-.078s.031-.025.044-.039.031-.025.045-.039.031-.025.045-.039.03-.025.044-.039.031-.025.044-.039.031-.025.045-.039.031-.025.045-.039.031-.025.045-.039.031-.025.044-.039.031-.025.044-.039.031-.025.045-.04.031-.025.044-.039.031-.025.045-.039.031-.025.044-.038.031-.025.045-.039.031-.025.044-.039.031-.025.045-.039.031-.025.044-.039.031-.025.045-.04.03-.025.044-.038.031-.025.045-.039.031-.025.044-.039c.03-.026.062-.05.089-.078s.031-.025.044-.039.031-.025.044-.039.031-.025.045-.039.031-.025.045-.039.031-.025.045-.039.03-.025.044-.039c.03-.026.062-.05.089-.078s.031-.025.044-.039.031-.025.044-.039.031-.025.045-.039.031-.025.044-.039.031-.025.045-.039.03-.025.044-.039.031-.025.045-.04.031-.025.044-.039.031-.025.044-.039.031-.025.044-.039.031-.025.045-.04A1.417,1.417,0,0,0,455.217,39.834Zm-29.846-2.3L420.9,39.284l5.014-7.454Z" transform="translate(-286.456 -3.589)"/>
        <path id="Caminho_27252" data-name="Caminho 27252" d="M125.918,100.478l.042-.047.054-.06.031-.036.05-.056.045-.051.044-.05.046-.051.043-.048.045-.051.045-.05.044-.05.044-.05.044-.05.052-.058.031-.036.05-.055.046-.052.044-.049.052-.059.031-.035.052-.058.044-.05.044-.05.045-.05.045-.05.046-.051.044-.049.043-.049.046-.051.044-.05.052-.058.03-.035.051-.056.047-.053.043-.048.051-.058.031-.036.052-.058.044-.049.043-.049.046-.052.044-.05.046-.051.043-.048.044-.05.047-.052.044-.049.051-.058.031-.036a13.448,13.448,0,0,0,3.584-9.1,11.371,11.371,0,0,0-12.685-11.553,13.531,13.531,0,0,0-8.793,4.406l-.044.05-.043.048-.046.052-.044.049-.046.052-.041.047-.045.051-.047.053-.044.049-.044.05-.044.049-.047.052-.044.05-.043.048-.046.052-.044.05-.046.052-.042.048-.045.05-.018.019V80.8a1.991,1.991,0,0,0-.4-1.189,5.736,5.736,0,0,0,1.256-3.6,5.2,5.2,0,0,0-1.66-3.9,5.944,5.944,0,0,0-4.625-1.4,6.655,6.655,0,0,0-4.627,2.362c-.014.017-.03.033-.044.05s-.03.033-.045.05-.03.033-.044.05-.031.034-.045.051-.03.032-.043.048-.031.034-.046.052-.03.033-.044.05-.03.033-.044.05-.03.033-.044.05-.03.033-.045.05-.031.034-.045.051-.03.033-.044.05-.03.032-.044.049-.031.034-.045.051-.03.032-.044.05-.031.034-.045.051-.03.031-.043.048-.032.034-.046.052-.03.033-.044.05-.03.033-.045.05-.03.033-.044.05-.03.033-.045.05-.031.034-.045.051-.03.032-.044.05-.03.032-.044.049-.031.034-.045.051-.03.033-.044.05-.031.034-.045.051-.03.031-.043.048-.031.034-.045.051-.031.033-.045.051-.03.033-.044.05-.03.032-.044.05-.03.033-.045.05-.031.034-.045.051-.03.033-.044.05-.03.032-.044.049-.032.034-.046.052-.03.032-.044.05-.031.034-.045.051-.029.032-.043.048-.031.034-.045.051-.031.033-.045.051-.03.033-.044.05-.03.032-.044.05-.031.033-.045.05-.031.033-.045.051-.03.032-.044.049-.031.033-.045.051-.031.033-.045.051a5.8,5.8,0,0,0-1.344,3.735,5.643,5.643,0,0,0,.113,1.125,8.718,8.718,0,0,0-4.221-.592,9.889,9.889,0,0,0-4.428,1.464l-.037-.035a1.99,1.99,0,0,0-1.521-.513l-5.652.509a1.982,1.982,0,0,0-.31-.442l-5.239-5.636a1.987,1.987,0,0,0-1.636-.627l-8.12.731a2.164,2.164,0,0,0-1.419.787c-.016.016-.029.034-.044.05s-.03.034-.045.05a1.974,1.974,0,0,0-.134.151c-.016.016-.029.034-.044.05s-.03.034-.044.05c-.031.032-.06.066-.089.1a1.987,1.987,0,0,0-.134.151c-.016.016-.03.034-.044.05s-.03.034-.045.05a242.519,242.519,0,0,1-.268.3h0l-.043.049a1.989,1.989,0,0,0-.134.151c-.016.016-.029.034-.044.05s-.03.034-.045.05q-.07.071-.133.15a1.889,1.889,0,0,0-.135.152h0l-.043.049c-.016.016-.03.034-.045.05a1.97,1.97,0,0,0-.134.151c-.016.016-.03.034-.044.05-.047.048-.091.1-.133.15a2,2,0,0,0-.135.152h0l-.043.049c-.016.016-.03.034-.045.05a1.991,1.991,0,0,0-.134.151h0c-.014.016-.03.032-.044.049L57.18,83.372a13.34,13.34,0,0,0-3.613,1.55,1.99,1.99,0,0,0-1.963-1.1l-5.54.5V79.936a1.99,1.99,0,0,0-1.327-1.876,10.706,10.706,0,0,0-4.471-.457,9.408,9.408,0,0,0-6.518,2.983l-.044.049-.046.051-.044.05-.044.05-.045.051-.044.05-.045.051-.044.049-.044.05-.046.051-.044.049-.045.051-.043.049-.045.051-.045.051-.044.05-.045.05-.044.05-.045.051-.044.05-.044.05-.046.051-.044.049-.045.051-.044.049-.045.051-.045.051-.044.05-.045.051-.044.05-.044.05-.045.051-.044.049-.045.051-.044.049-.045.051-.044.049-.045.05-.045.051-.044.05-.045.051-.044.05-.044.05-.045.051-.044.049-.046.051-.044.049-.044.05-.046.051-.044.049a7.878,7.878,0,0,0-1.531,2.674l-.2.018a1.983,1.983,0,0,0-1.319.674l-.044.049-.044.05-.044.05-.045.05c-.016.016-.03.034-.045.051l-.044.049-.044.049-.046.052-.044.049c-.016.016-.03.034-.045.051l-.043.049-.046.051c-.015.016-.029.033-.044.05l-.044.05c-.016.016-.03.033-.044.05s-.03.033-.045.05l-.045.051-.044.049-.044.049-.046.051-.044.05c-.016.016-.03.034-.045.051l-.043.048-.045.051c-.016.016-.03.034-.045.051l-.044.049-.045.05-.044.05-.045.051-.044.05-.044.049-.046.052L27,88.112l-.045.051-.043.048-.045.051-.045.051-.044.049-.044.05-.045.05-.041.047L23.822,81a1.991,1.991,0,0,0-2.041-1.281l-7.746.7a1.985,1.985,0,0,0-1.284.637c-.016.016-.03.034-.046.051s-.029.034-.044.05-.029.034-.044.05-.029.034-.044.05-.03.034-.045.051-.03.034-.045.051-.029.033-.044.05-.029.033-.044.049-.03.034-.046.051-.029.033-.044.05-.03.034-.045.051-.029.033-.044.049-.03.034-.045.051-.03.034-.045.051-.029.033-.044.05-.029.034-.044.05-.03.034-.045.051-.03.034-.045.05-.029.034-.044.05-.029.033-.044.05-.03.034-.046.051-.029.034-.044.05-.029.034-.044.05-.03.034-.045.05-.029.034-.044.05-.03.034-.045.051-.029.033-.044.049-.03.034-.045.051-.029.034-.044.05-.03.034-.044.05-.03.034-.044.05-.03.034-.045.05-.03.034-.045.051-.029.034-.044.05-.029.034-.044.05-.03.034-.045.05-.029.034-.044.05-.03.034-.045.051-.029.033-.044.049-.03.035-.046.051-.029.034-.044.05-.029.034-.044.05-.029.034-.044.05-.03.034-.045.05-.03.034-.045.051-.029.034-.044.05-.029.034-.044.05-.03.034-.045.051-.029.033-.044.05-.03.034-.045.051a1.989,1.989,0,0,0-.456.728L.115,112.254a1.99,1.99,0,0,0,1.874,2.657c.059,0,.119,0,.179-.008l7.147-.643a1.986,1.986,0,0,0,1.3-.656c.016-.016.03-.034.045-.051s.029-.032.043-.048.03-.034.046-.052.03-.034.044-.05.029-.033.044-.05.029-.033.044-.049l.045-.051c.016-.017.03-.034.046-.051l.044-.049c.015-.016.029-.033.044-.05s.03-.034.045-.05.03-.034.045-.051.029-.033.044-.05.029-.033.044-.049.03-.034.046-.051.029-.033.044-.05.03-.034.044-.05.029-.033.044-.049.03-.034.045-.051.03-.034.045-.051.029-.033.044-.049.03-.034.045-.05.029-.033.044-.05.03-.034.045-.051.03-.034.045-.051.028-.032.043-.048.03-.034.046-.052.03-.034.044-.05.029-.033.043-.049.031-.035.047-.052.029-.033.044-.049.03-.034.045-.05.029-.033.044-.049.03-.034.045-.051.03-.034.045-.051.029-.033.044-.049l.044-.05c.016-.016.03-.034.045-.051s.03-.034.045-.051.029-.033.044-.049.029-.033.044-.05.03-.034.046-.051.029-.033.044-.049l.045-.051c.015-.016.029-.033.043-.049s.03-.034.046-.051.03-.034.045-.051.029-.033.043-.049.03-.033.045-.05.03-.033.044-.05a1.988,1.988,0,0,0,.457-.76l.487-1.493,5.078-.457,1.145,3.382a1.989,1.989,0,0,0,2.063,1.344l7.633-.687a1.985,1.985,0,0,0,.931-.334,1.987,1.987,0,0,0,.8.17c.059,0,.119,0,.179-.008l6.4-.576A1.983,1.983,0,0,0,39.335,111l.044-.049.044-.049.046-.052.044-.05c.016-.016.03-.034.045-.051l.043-.048.045-.051.045-.051c.015-.016.03-.033.044-.049s.03-.033.045-.05l.044-.05.045-.051.044-.05.044-.049.046-.052.044-.049.045-.051.043-.048.045-.051.045-.051.044-.05.044-.05.045-.05.044-.05.045-.051.043-.048c.016-.017.031-.034.046-.052l.044-.049.044-.05c.016-.016.03-.033.045-.05l.044-.05.045-.051.043-.049c.016-.017.031-.034.046-.052l.044-.049.044-.05.044-.05c.016-.016.03-.033.045-.05s.03-.034.045-.051l.044-.049.044-.049.046-.052.044-.049c.016-.016.03-.034.045-.051l.043-.048.046-.052.044-.05.044-.05.044-.05.045-.05c.029-.031.056-.064.083-.1v.774a1.99,1.99,0,0,0,1.99,1.99q.089,0,.179-.008l6.4-.576a1.984,1.984,0,0,0,1.319-.673l.044-.05.045-.051.044-.05.044-.049.046-.051.044-.049.045-.051.043-.049.045-.051.045-.051c.015-.016.03-.033.044-.05l.045-.05.044-.05c.016-.016.03-.033.044-.05l.045-.051.043-.049.046-.051.044-.049.045-.051.043-.048.045-.051.045-.051.044-.05.044-.05.045-.05.044-.05.045-.051.044-.048.046-.052.044-.049.044-.049.046-.052.044-.049.045-.051.043-.049c.016-.017.031-.034.046-.052l.044-.049.044-.05.045-.05.044-.05.045-.051.044-.049.044-.049c.016-.017.031-.034.046-.052l.044-.049c.016-.016.03-.034.045-.051l.043-.049.045-.051c.016-.016.03-.034.045-.051l.044-.049a1.984,1.984,0,0,0,.538-1.359l0-9.35c0-.112,0-.218.008-.323a13.16,13.16,0,0,1,1.706-.155,1.937,1.937,0,0,0,1.042.751,7.946,7.946,0,0,0-1.713,4.984,7.532,7.532,0,0,0,2.365,5.741,8.394,8.394,0,0,0,5.756,2.029q.514,0,1.046-.048a10.9,10.9,0,0,0,4.414-1.268,1.989,1.989,0,0,0,1.348.372l5.164-.465A1.984,1.984,0,0,0,76.6,107.8a1.991,1.991,0,0,0,1.055.3c.059,0,.119,0,.179-.008l6.4-.576a1.983,1.983,0,0,0,1.318-.673c.016-.016.03-.033.044-.05s.03-.033.045-.05l.044-.05.045-.051.043-.049.045-.051c.016-.016.03-.034.045-.051l.044-.049.044-.05c.016-.016.03-.033.045-.05s.03-.034.045-.051l.044-.049.044-.049.046-.052.044-.049c.016-.016.03-.034.045-.051l.043-.048.045-.051c.016-.016.03-.034.045-.051l.044-.049c.016-.016.03-.033.044-.05s.03-.033.045-.05l.044-.05.045-.051.043-.049.046-.051.044-.05c.016-.016.03-.034.045-.051l.043-.048.045-.051.045-.051.044-.049c.016-.016.03-.033.045-.05l.044-.05.045-.05c.016-.016.03-.034.045-.051l.043-.048.046-.052.044-.049.044-.05c.016-.016.03-.033.044-.05l.045-.05.045-.051.044-.05.045-.05.045-.05.045-.05.045-.051.043-.048.046-.052q.064-.068.12-.141v.816a1.99,1.99,0,0,0,2.168,1.982l6.4-.576a1.983,1.983,0,0,0,1.161-.511,1.988,1.988,0,0,0,1.055.3c.059,0,.119,0,.179-.008l6.4-.576a1.983,1.983,0,0,0,1.318-.673l.045-.051c.015-.016.029-.032.043-.049l.046-.052.044-.049c.016-.016.03-.034.045-.051l.043-.049.045-.051c.016-.016.03-.034.045-.051l.044-.049.045-.05c.015-.016.03-.033.044-.05s.03-.033.044-.05l.045-.051.043-.049c.016-.017.031-.034.046-.052s.029-.033.044-.049l.044-.05.044-.05c.016-.016.03-.033.045-.05l.045-.051.044-.049.044-.05.044-.05.045-.05c.016-.016.03-.034.045-.051l.043-.048.046-.052c.015-.016.029-.033.044-.05l.044-.05.045-.05.044-.05.045-.051.044-.049.044-.049.046-.052c.015-.016.029-.033.044-.05s.03-.034.045-.051l.043-.048.046-.052c.015-.016.03-.033.044-.049l.045-.05.044-.05.044-.05.045-.051c.015-.016.029-.033.044-.05l.044-.049.046-.052.035-.039a11.5,11.5,0,0,0,7.2,2.436q.582,0,1.176-.053a13.53,13.53,0,0,0,8.792-4.4Zm-7.946-8.147a2.858,2.858,0,0,1-.662-2.108c0-.185.011-.357.026-.523a1.25,1.25,0,0,1,.782.315,2.816,2.816,0,0,1,.645,2.074,5.314,5.314,0,0,1-.031.558A1.237,1.237,0,0,1,117.973,92.332Z" transform="translate(0 -50.234)"/>
        <path id="Caminho_27253" data-name="Caminho 27253" d="M150.951,223.012l.062-.07.06-.067c.021-.022.04-.046.061-.069s.04-.045.06-.068.041-.046.061-.069.04-.046.061-.068l.059-.066.062-.07.06-.067c.021-.023.041-.047.062-.07l.058-.065.062-.07c.021-.022.041-.046.061-.069s.039-.045.059-.067.041-.046.061-.069.04-.045.06-.068.041-.046.061-.069.04-.046.061-.068l.058-.066.063-.071.059-.066c.021-.022.04-.046.061-.069s.04-.045.06-.067.041-.046.061-.069l.061-.069c.02-.022.039-.045.059-.067l.061-.069.06-.067c.021-.023.041-.047.062-.069l.06-.068.058-.066c.021-.023.041-.047.062-.07s.04-.046.061-.069l.06-.067c.02-.022.039-.045.06-.067s.04-.046.061-.068.041-.047.062-.07l.059-.066.06-.067.062-.07c.021-.022.04-.046.061-.068l.06-.068c.02-.021.039-.044.059-.066s.041-.047.062-.07l.061-.068.06-.068c.02-.022.04-.045.06-.067l.061-.068.061-.069c3.807-4.094,5.858-10.3,5.856-18.223,0-7.949-2.013-13.817-5.979-17.442-3.11-2.842-7.356-4.112-12.282-3.667a17.966,17.966,0,0,0-12.069,5.794l-.059.067-.06.068-.061.069-.06.068-.062.069-.059.066-.062.07-.06.068-.06.068-.059.066-.062.07-.061.069-.059.067-.06.068-.061.069-.06.068-.062.069-.059.066-.062.07-.059.067-.061.068-.06.068-.061.069-.061.069-.06.067-.06.068-.061.069-.06.068-.062.069-.059.066-.062.07-.059.067-.061.068-.06.068-.061.069-.061.069-.059.066-.06.068-.062.07-.059.067-.062.069-.059.066-.062.07-.059.067-.061.068-.06.068-.061.069-.061.068-.059.066-.062.07a17.919,17.919,0,0,0-1.245,1.53c-.255.352-.5.718-.73,1.091a15.946,15.946,0,0,0-3.7-5.175c-3.11-2.842-7.358-4.112-12.281-3.667a17.965,17.965,0,0,0-12.067,5.792l-.062.069-.059.067-.062.069-.061.068-.059.067-.062.069-.059.066-.062.07-.059.066-.062.069-.06.068-.059.067-.061.068-.062.069-.06.068-.061.069-.058.065-.064.072-.058.065-.062.07-.059.066-.062.07-.06.067-.06.067-.061.068-.061.069-.06.068-.061.069-.058.065-.063.071-.06.067-.061.069-.059.067-.061.068-.062.07-.059.066-.061.069-.062.069-.06.068-.061.068-.058.066-.064.071-.059.067-.061.069-.059.067-.061.068-.062.069-.059.067-.062.069-.06.068c-.348.383-.678.788-1,1.207v-5.434a2.7,2.7,0,0,0-2.942-2.688L72.648,187.11a2.691,2.691,0,0,0-1.79.914c-.02.022-.04.044-.059.067s-.041.045-.061.068-.041.045-.06.068-.041.045-.061.068-.041.046-.062.069l-.059.066-.062.07c-.02.022-.04.044-.059.067s-.041.045-.061.068-.041.045-.061.068-.04.045-.06.068-.041.046-.062.069-.04.044-.059.067l-.06.067c-.021.023-.042.046-.062.07s-.04.045-.06.067-.041.046-.061.069-.039.044-.059.066-.042.046-.062.07-.04.045-.059.067l-.061.068-.061.068c-.021.022-.04.045-.06.068s-.041.046-.062.069-.04.044-.059.067-.04.044-.06.067-.042.046-.062.07-.04.045-.06.067-.041.046-.061.069-.039.044-.059.066-.041.046-.061.069-.041.046-.062.069-.04.044-.059.067-.041.045-.061.068-.041.045-.06.068-.041.046-.062.069-.04.044-.06.067l-.06.067-.062.07c-.02.022-.04.044-.059.067s-.041.046-.062.069l-.059.066c-.021.023-.041.046-.061.069l-.014.014a15.877,15.877,0,0,0-11.475-2.991A17.964,17.964,0,0,0,44.7,193.765l-.06.067-.061.069-.06.067-.061.068-.06.067-.063.07-.059.066-.062.069-.059.066-.061.069-.061.069-.061.069-.06.067-.06.068-.061.069-.06.067-.06.067-.063.07-.058.066-.062.069-.059.066-.061.069-.061.069-.061.069-.06.068-.06.068-.06.068-.062.069-.059.066-.062.07-.058.065-.063.071-.058.066-.061.069-.061.069-.061.069-.06.067-.06.068-.06.068-.062.069-.06.067-.061.069-.058.066-.062.07-.06.067-.06.068-.061.069-.059.067-.062.071-.058.065c-.288.316-.562.648-.83.989v-5.229a2.7,2.7,0,0,0-2.942-2.688l-23.424,2.109a2.7,2.7,0,0,0-1.9,1.052c-.019.023-.041.043-.06.067s-.042.044-.061.068-.042.044-.06.068-.042.044-.061.068-.042.044-.061.069-.041.043-.06.067-.042.043-.06.067-.043.045-.062.069-.042.044-.06.068-.042.044-.061.069-.041.043-.059.066-.043.045-.062.07-.041.043-.06.067-.042.044-.061.068-.042.044-.061.068-.042.044-.061.068-.042.044-.061.069-.041.043-.06.067-.042.044-.06.068-.043.044-.061.069-.042.044-.06.068-.042.044-.061.069-.041.043-.059.066-.043.044-.061.069-.042.044-.061.069-.042.044-.06.068-.042.044-.06.068-.042.044-.061.068-.042.044-.061.069-.041.043-.06.067-.042.044-.06.067-.043.045-.062.069-.042.044-.06.068-.042.044-.061.069-.041.043-.059.066-.043.044-.061.069-.042.044-.061.068-.042.044-.06.068-.042.044-.061.068-.042.044-.06.068-.042.044-.061.068-.042.044-.061.069-.042.043-.06.067-.043.045-.062.069-.041.043-.06.067-.043.044-.061.069-.041.043-.059.066-.042.044-.061.069-.042.044-.061.069-.041.043-.06.067a2.686,2.686,0,0,0-.583,1.295L5.594,219.956a2.693,2.693,0,0,0,.511,2.032c-.019.022-.039.043-.058.065s-.04.044-.059.067-.043.047-.063.071-.039.043-.058.066-.042.046-.062.069-.041.044-.06.067-.041.045-.061.068-.041.045-.061.069-.04.043-.059.066-.043.047-.063.071-.04.044-.059.066-.041.044-.06.067-.042.045-.061.069-.041.044-.06.067-.043.047-.062.071-.04.043-.058.066-.041.044-.06.067-.043.047-.063.071-.04.043-.058.066-.042.046-.062.07a2.69,2.69,0,0,0-.684,1.9,13.828,13.828,0,0,0,4.677,9.965,17.354,17.354,0,0,0,11.62,4.033c.68,0,1.372-.031,2.072-.094a19.559,19.559,0,0,0,13.094-6.178l.064-.072.059-.067.06-.067.061-.069.061-.069.062-.069.057-.065.064-.072.059-.066.061-.068.059-.067.061-.069.062-.069.059-.066.061-.068.061-.068.061-.068.062-.07.057-.064.064-.072.059-.066.061-.069.059-.067.061-.069.062-.07.059-.066.059-.066.063-.071.059-.067.062-.069.057-.064.064-.072.058-.066.061-.068.06-.067.061-.069.062-.069.059-.066.059-.066.063-.071.059-.067.062-.069.057-.064.063-.071.062-.069.059-.067.06-.067.061-.069.062-.07.059-.066c.114-.125.223-.254.333-.382a15.121,15.121,0,0,0,2.793,3.473A14.8,14.8,0,0,0,52.177,236.4q.973,0,2-.092a17.927,17.927,0,0,0,11.974-5.6c.021-.022.04-.046.061-.068s.04-.045.06-.067.04-.046.061-.069l.061-.068c.02-.022.04-.045.06-.067s.041-.047.062-.07.039-.045.059-.067l.06-.068.06-.068c.021-.023.04-.046.061-.069s.041-.047.062-.069l.058-.066c.021-.023.041-.047.062-.069s.041-.046.061-.069.04-.045.06-.068l.061-.068.06-.067.062-.07.059-.067.059-.066c.021-.023.041-.047.062-.07s.04-.045.06-.068l.062-.069.058-.065c.021-.023.041-.047.062-.069s.041-.046.061-.069.04-.045.06-.068.04-.046.061-.068.04-.045.06-.067l.062-.069c.021-.022.04-.046.06-.068s.039-.045.059-.066.041-.047.062-.07.04-.045.06-.067.041-.047.062-.069.038-.044.058-.066.04-.046.061-.068l.063-.07c.02-.022.039-.045.059-.067s.04-.046.061-.068.04-.045.06-.067.041-.047.062-.069.04-.046.06-.068.039-.044.059-.066.041-.047.062-.07.039-.045.06-.067l.061-.069c.02-.022.039-.045.059-.067s.04-.046.061-.068l.062-.07a21.438,21.438,0,0,0,4.974-9.92l0,13.6a2.7,2.7,0,0,0,2.7,2.7c.08,0,.161,0,.242-.011l9.741-.877a2.691,2.691,0,0,0,1.788-.913c.021-.022.041-.045.061-.068s.041-.046.061-.069.039-.044.058-.066.041-.046.062-.069.041-.046.062-.069.04-.045.059-.067.041-.045.061-.068.041-.045.061-.068.04-.045.06-.068.041-.046.061-.069.039-.044.059-.066.042-.047.062-.07.04-.044.059-.067.041-.045.061-.068.041-.045.06-.068.041-.045.061-.068.041-.046.062-.069.04-.045.059-.067.041-.045.06-.068.041-.045.061-.068l.061-.068c.021-.023.041-.046.061-.069s.039-.044.058-.066.042-.047.063-.07.04-.044.059-.067.041-.045.06-.068l.061-.068c.021-.022.041-.045.061-.068s.041-.046.061-.069.04-.044.06-.067l.06-.067.062-.07c.02-.022.04-.044.059-.067s.041-.046.062-.069.039-.044.058-.066.042-.047.062-.07l.06-.067c.021-.022.041-.045.06-.068l.061-.068c.021-.022.041-.045.061-.068s.041-.046.061-.069.04-.044.059-.067.04-.044.06-.067l.062-.07c.02-.022.04-.045.059-.067s.041-.046.062-.069.039-.044.058-.066.041-.046.062-.069l.061-.069c.02-.022.04-.045.06-.067a2.69,2.69,0,0,0,.721-1.673A14.464,14.464,0,0,0,93.521,228a14.8,14.8,0,0,0,10.347,3.741q.973,0,2-.092a17.928,17.928,0,0,0,11.973-5.6l.062-.07c.02-.022.04-.045.06-.067s.04-.045.06-.068l.061-.068c.021-.022.04-.046.061-.069s.04-.046.061-.068.039-.045.059-.067.041-.047.062-.07l.058-.066c.022-.023.042-.048.064-.071l.057-.065.062-.07c.02-.022.04-.045.06-.067s.041-.046.061-.069.04-.046.06-.068l.06-.068c.021-.022.04-.045.06-.067l.062-.07.058-.065.062-.07.058-.066c.022-.023.042-.048.064-.071l.057-.065.062-.07c.02-.022.039-.045.06-.067s.041-.046.061-.069l.06-.067c.021-.022.04-.046.061-.068s.039-.045.06-.067.041-.047.062-.07.038-.044.058-.065.042-.048.063-.071l.058-.065.062-.071c.02-.022.039-.045.059-.066l.062-.069c.02-.022.039-.045.06-.067s.041-.046.061-.069.04-.045.06-.068l.061-.068.06-.067.062-.07c.02-.021.038-.044.058-.065s.042-.048.063-.071.038-.044.058-.066.041-.047.062-.07l.059-.066.061-.069c.021-.022.041-.046.061-.069s.04-.046.061-.068a18.1,18.1,0,0,0,2.065-2.709,15.726,15.726,0,0,0,3.645,5.086,14.8,14.8,0,0,0,10.347,3.741q.973,0,2-.092a17.929,17.929,0,0,0,11.974-5.6Zm-10.258-12.148c-.372-.34-1.584-1.888-1.585-7.551a24.061,24.061,0,0,1,.5-5.2c.018.015.037.028.055.044.8.732,1.657,3.13,1.658,7.665a23.84,23.84,0,0,1-.49,5.15A1.016,1.016,0,0,1,140.693,210.863Zm-33.053,2.975c-.372-.339-1.584-1.888-1.585-7.551a24.06,24.06,0,0,1,.5-5.2c.018.015.037.028.054.044.8.732,1.657,3.13,1.658,7.665a23.844,23.844,0,0,1-.49,5.151A1.01,1.01,0,0,1,107.64,213.839Zm-51.691,4.654c-.372-.34-1.584-1.888-1.585-7.551a24.064,24.064,0,0,1,.5-5.2c.018.015.036.028.054.044.8.732,1.657,3.13,1.658,7.665a23.847,23.847,0,0,1-.49,5.151A1.054,1.054,0,0,1,55.949,218.492Zm-31.708,2.918a.973.973,0,0,1,.153.186,2.123,2.123,0,0,1-1.7-.586A2.345,2.345,0,0,1,24.241,221.411Z" transform="translate(-2.929 -126.43)"/>
      </g>
      <g id="Grupo_14233" data-name="Grupo 14233" transform="translate(4.264 1.421)">
        <path id="Caminho_27254" data-name="Caminho 27254" d="M454.9,23.05l.41.151-.147.22-.085.121-.1.158h0l-1.162,1.726-.541.81h0l0,0-.282.42-.193.285-2.005,2.983v0l-.315.466,0,0-.466.693-.184.279-1.286,1.9,0,.006-.965,1.437v0l-.006.006,0,.007-1.063,1.582,0,0L435.359,52.863c-.02-.217-.046-.433-.076-.643l11.285-16.785,0-.006v0l1.06-1.569,0,0,.006-.01.961-1.427,0,0,.938-1.4.19-.279.3-.456.318-.466v0l1.874-2.789.551-.82,0,0,0-.006,1.769-2.632.105-.151.085-.128Z" transform="translate(-306.927 -18.542)" fill="#fff"/>
        <path id="Caminho_27255" data-name="Caminho 27255" d="M501.955,18.906l-.151.226,0,0-.371.548-.23.341-.043-.7.243-.358.177-.263.026-.039.174.115,0,0Z" transform="translate(-352.732 -15.493)" fill="#fff"/>
        <path id="Caminho_27256" data-name="Caminho 27256" d="M440.849,8.731l-.567.893-15.9,25.129c-.089-.114-.186-.229-.279-.343L440.371,8.688l.119-.186Z" transform="translate(-299.153 -8.426)" fill="#fff"/>
        <path id="Caminho_27257" data-name="Caminho 27257" d="M446.725,121.771l-.347.406-.36-.309-.017-.013-.377-.321-.026-.021-.516-.44-2.015-1.718-.169-.144-.411.161L439.3,120.62l-.241.093-.537.212-2.548,1-.216.084c.009-.122.013-.25.017-.372,0-.072,0-.14,0-.211L443,118.593l.068.059h0l.8.69h0l1.261,1.079.923.783.013.017.076.063.025.021Z" transform="translate(-307.256 -84.975)" fill="#e4e4e4"/>
        <path id="Caminho_27258" data-name="Caminho 27258" d="M449.472,119.94l-.039-.007-2.442-.436h0l-.929-.164h0l-.013-.006h0l-.965-.171h0l-2.2-.394h-.007l-.072-.013-.3.167-.207.565-1.49,4.069v.006l-.016.043-.157.427-.378.026-.069-.2-.01-.03-1.073-3.091-.082-.239H438.5l-.187.545-1.427,4.155-.016.049,0-.013a.074.074,0,0,0-.01-.023c-.194-.584-.473-1.411-.706-2.091-.128-.374-.233-.663-.308-.866-.03-.089-.059-.158-.076-.213-.013-.02-.017-.036-.026-.052a.424.424,0,0,0-.174-.233c0,.121-.007.249-.017.371-.02.361-.052.719-.089,1.076.026-.089.046-.174.062-.25.184.519.453,1.309.831,2.445a.062.062,0,0,0,.01.023l0,.01c0,.01,0,.02.006.023.144.427.24.718.24.718h.505l.41-1.2.019-.052,1.2-3.511.916,2.629.007.033.128.361.272.177.751-.046.236-.174.391-1.066.016-.043,1.391-3.8.056-.148.755.135h0l1.342.239.968.174h.02l.932.171h0l1.569.282h0l.046,0h0l1.408.256.092-.528Z" transform="translate(-307.054 -85.084)" fill="#e4e4e4"/>
        <path id="Caminho_27259" data-name="Caminho 27259" d="M482.357,45.731v0l0,0-.18-.23,0,0-4.286-5.516,3.951-2.8.007,0,.4-.282L482.1,36.7l-.049-.069-.21.148-.02.013-4.138,2.927-3.77-4.85-.328-.427,0,0-.062-.075.072-.056,0,0,.066-.046,0,0,4.329-3.117,3.787,5.073.023.023v0l.308.42.19.253-.328-8.641v-.007l-.013-.381-.112.079-.233-.355v0l-.174-.262-2.98-4.538-.089-.141.371-.279,0,0h0l2.418-1.818h0l.748-.561-.351-.118-.427-.148-.007,0-.492-.167-.417-.144-5.215-1.775-.309-.108-.1-.033.089.141,0,0,.052.075,0,0,.22.331,0,0,2.967,4.525-3.581,2.688-.246.184h0l-.2.151-.03.019.016.02,0,0,.285.387.1.118,0,0v.007l.735.988.272.361,2.5,3.364-4.168,3.006-.377.276h0l-.19.134.351.453v0l.131.168,3.879,4.988-4.578,3.246-.919.653.712.151h0l.135.03L482.193,46l.446.1Zm-.581-10.062-3.521-4.722,3.239-2.337h0l.161-.115.282,7.394-.161-.217Zm-6.389-17.563,4.65,1.591.417.144h0l.692.236h.007l.082.03-.082.066-1.864,1.395-1.024.761,0,.006,0,0-.066.049Zm.092,9.129-.266-.361-.515-.692-.364-.486.168-.128,3.209-2.409.407-.305.151.233,2.875,4.381,0,0,.321.492,0,0,.118.184,0,0h0l-.1.076L478.062,30.7Zm-2.668,16.329,4.811-3.406,4.223,5.438L472.8,43.661l-.092-.023Z" transform="translate(-332.405 -14.685)" fill="#fff"/>
        <rect id="Ret창ngulo_54" data-name="Ret창ngulo 54" width="0.536" height="9.485" transform="translate(140.443 19.928) rotate(-76.456)" fill="#fff"/>
        <rect id="Ret창ngulo_55" data-name="Ret창ngulo 55" width="0.536" height="8.499" transform="matrix(0.275, -0.961, 0.961, 0.275, 141.415, 11.247)" fill="#fff"/>
        <path id="Caminho_27260" data-name="Caminho 27260" d="M506.746,60.717l.691-.042-.411-7.96-.266-5.148-.111-2.144v-.014l-1.433-27.726-.021-.411-.7-.144.034.656,1.445,27.91v.015l.11,2.128.264,5.087Z" transform="translate(-355.047 -14.424)" fill="#fff"/>
        <path id="Caminho_27261" data-name="Caminho 27261" d="M503.614,60.8l1.307-.08-.4-7.794-.264-5.087-.11-2.128v-.015L502.7,17.784l-.034-.656-.8.049.015.381.083,2.065v.022l.019.461.292,7.287.008.187.024.58.3,7.535.022.54.019.485.35,8.711,0,.08,0,.063.023.588v.016l.085,2.11.024.595.177,4.407Z" transform="translate(-353.222 -14.424)" fill="#e4e4e4"/>
        <path id="Caminho_27262" data-name="Caminho 27262" d="M473.489,11.374,470.721,44.02l-.96.058L473,8.253l.807.392Z" transform="translate(-330.9 -8.253)" fill="#fff"/>
        <path id="Caminho_27263" data-name="Caminho 27263" d="M483.744,109.456l-.026-1.3-.046-2.136V106l-.01-.417-.338-.069v0l-.177-.036-9.382-1.962-.141-.03-.02.256-.289,3.918c.03-.02.063-.039.1-.062a7.981,7.981,0,0,1,5.087-1.116,7.655,7.655,0,0,1,2.366.693h0l.02.01h0a8.247,8.247,0,0,1,1.946,1.316h0c.167.154.315.3.44.427v0A6.89,6.89,0,0,1,483.744,109.456Zm-1.769-2.747-.065-1.017.942.2.03.44-.9.377Zm-7.4-1.428-.069-1.017.945.2.069,1.021Zm1.237.236-.069-1.017.945.2.066,1.017Zm1.267.233-.069-1.017.945.2.065,1.017Zm1.2.233-.069-1.017.945.2.069,1.017Zm1.221.233-.066-1.017.945.2.065,1.017Zm1.24.259-.069-1.017.945.2.069,1.017Z" transform="translate(-333.372 -74.472)" fill="#fff"/>
        <g id="Grupo_14228" data-name="Grupo 14228" transform="translate(148.603 31.86)">
          <path id="Caminho_27264" data-name="Caminho 27264" d="M502.684,113.406l-.909-.194h0l-.033-.007v0h0l.9-.377v.02Z" transform="translate(-501.739 -112.825)" fill="#e4e4e4"/>
        </g>
        <path id="Caminho_27265" data-name="Caminho 27265" d="M463.9,103.4l-11.1,3.377h0l-.683.207-1.2.371L440,110.675h0l-.919.279-.007,0h0l-1.037.318-11.486,3.495-.039-.6v-.026a17.973,17.973,0,0,0,1.477-2.786v-.006a17.333,17.333,0,0,0,.666-1.871l-.19.082c0-.016.007-.036.01-.053l.19-.079,1.48-.617.249-.108.243-.1.03-.013.331-.138.332-.141,2.12-.883.249-.105.246-.1.63-.263v-.006l.338-.138.338-.144,3.341-1.4.584-.246.272-.112.177-.072h0l.016-.01.082-.033.906-.381,1.657-.7h0l.463-.193.453-.19,5.119-2.146h0l1.1-.463v0h0l.9-.377h0l.292-.121.5-.207.62-.263.679-.285h0l10.957-4.591Z" transform="translate(-300.824 -68.488)" fill="#fff"/>
        <path id="Caminho_27266" data-name="Caminho 27266" d="M463.72,118.7l-11.1,3.377-.685.212-1.2.364-10.918,3.322-.918.279-.008,0-1.041.317-11.485,3.5-.106-.516v0l-.013-.051.055-.017v0l.025-.008,11.621-3.919,1.041-.351.008,0,.931-.317,10.753-3.627,1.185-.4.681-.229,11.062-3.737Z" transform="translate(-300.641 -83.787)" fill="#f1ead9"/>
        <path id="Caminho_27267" data-name="Caminho 27267" d="M463,55.454l1.026-.063.419-4.667.372-4.143.159-1.771.016-.173,0-.032.167-1.841,3.136-34.511-.86.052-.249,2.626-3,31.66-.136,1.435-.081.854h0l-.015.158,0,.033-.013.138h0l-.165,1.782-.374,4.049Z" transform="translate(-326.197 -8.254)" fill="#e4e4e4"/>
        <path id="Caminho_27268" data-name="Caminho 27268" d="M466.373,137.017l.853-.052.493-4.9.428-4.251.2-1.979,0-.031.016-.162-.96.058-.047.519,0,.032-.018.2-.16,1.751-.378,4.147Z" transform="translate(-328.545 -89.879)" fill="#fff"/>
        <path id="Caminho_27269" data-name="Caminho 27269" d="M466.9,97.278l-10.991,4.355-.681.267-.686.275h0l-.453.178-.415.165h0l-9.869,3.91-.969.385-.013,0-1.037.41-10.423,4.126a17.763,17.763,0,0,0,.664-1.871l1.5-.635.246-.1.25-.106.33-.135.33-.14,2.146-.9.25-.106.25-.106.6-.25.339-.144.339-.144,3.356-1.409.609-.258.275-.114.148-.059.017-.008.114-.047.876-.373,1.71-.719h0l.906-.381,5.1-2.141,0,0,1.113-.466h0l.872-.368.292-.123.5-.207.622-.262.682-.288,10.956-4.6Z" transform="translate(-304.194 -68.489)" fill="#e4e4e4"/>
        <path id="Caminho_27270" data-name="Caminho 27270" d="M487.876,15.216l-.1-1.556-.02-.348-.2-.082-.19-.079-3.931-1.6-.013,0h0l-1.848-.755-.345.02-.03,0-.029.331-.158,1.723-.01.112-.007.056.059.02,0,0,.243.079,5.149,1.742.417.138.584.2v0l.3.1.138-.01Zm-.755-1.651.016.285.043.7.01.164-.092-.036-.41-.151-.282-.105-.072-1.149Zm-5.044-1.877.788.292.069,1.148-.784-.292Zm3.977,1.473.072,1.145-.788-.289-.069-1.149Zm-1.06-.4.069,1.145-.784-.289-.072-1.149Zm-1.057-.384.072,1.148-.788-.292-.069-1.149Z" transform="translate(-338.711 -10.018)" fill="#fff"/>
        <path id="Caminho_27271" data-name="Caminho 27271" d="M473.319,70.15" transform="translate(-333.374 -51.292)" fill="#e4e4e4" stroke="#fff" stroke-width="1"/>
        <path id="Caminho_27272" data-name="Caminho 27272" d="M501.811,14.14v.432l-17.99-3.17h0l-1.9-.334L481.565,11l.059-.334.017-.085.33.059Z" transform="translate(-339.108 -9.875)" fill="#fff"/>
        <path id="Caminho_27273" data-name="Caminho 27273" d="M518.548,20.99v.427l-12.514-2.289-.4-.072.076-.415.3.055Z" transform="translate(-355.846 -15.476)" fill="#fff"/>
        <g id="Grupo_14230" data-name="Grupo 14230" transform="translate(0 21.008)">
          <g id="Grupo_14229" data-name="Grupo 14229">
            <path id="Caminho_27274" data-name="Caminho 27274" d="M32.255,128.872l-9.429.849-1.683,5.165L14,135.53l9.949-27.965,7.746-.7,9.845,26.183-7.633.687Zm-7.522-4.94,5.688-.512-2.808-8.343Z" transform="translate(-13.995 -97.83)" fill="#fff"/>
            <path id="Caminho_27275" data-name="Caminho 27275" d="M102.1,127.942l0-14.665-3.742.337V108l3.742-.337v-.716c0-4.185,2.244-6.724,6.734-7.128a8.708,8.708,0,0,1,3.63.352v5.089a5.469,5.469,0,0,0-2.02-.195c-1.085.1-1.946.514-1.946,1.457v.565l4.939-.445v5.618l-4.939.445,0,14.665Z" transform="translate(-72.656 -92.893)" fill="#fff"/>
            <path id="Caminho_27276" data-name="Caminho 27276" d="M157.079,138.591l-6.4.576,0-20.283,5.875-.529v3.581a10.486,10.486,0,0,1,7.932-4.446V124.2c-4.528-.045-7.409.554-7.408,5.04Z" transform="translate(-109.033 -105.216)" fill="#fff"/>
            <path id="Caminho_27277" data-name="Caminho 27277" d="M195.505,97.254l5.275-6.582,8.12-.731,5.239,5.636-7,.63-2.32-2.581-2.282,3Zm12.8,18.415a7.7,7.7,0,0,1-5.762,2.856c-4.191.377-7-1.9-7-5.741,0-3.959,3.18-6.394,8.942-6.913a17.363,17.363,0,0,1,2.956-.04v-.98c0-1.772-1.011-2.661-2.807-2.5a3.147,3.147,0,0,0-3.03,3.025l-5.763.519c.373-4.747,3.853-8.151,8.829-8.6,5.538-.5,8.794,2.224,8.794,7.351l0,12.517-5.164.465Zm-4.266-1.727c2.133-.192,3.405-1.324,3.405-2.984v-1.281a12.5,12.5,0,0,0-2.545-.035c-2.17.2-3.33,1.016-3.33,2.411C201.57,113.373,202.467,114.083,204.039,113.942Z" transform="translate(-140.203 -86.06)" fill="#fff"/>
            <path id="Caminho_27278" data-name="Caminho 27278" d="M268.72,128.346l-6.4.576,0-20.283,5.875-.529v2.451a8.449,8.449,0,0,1,5.987-3.366c3.966-.357,6.773,2.067,6.774,7.006l0,13.044-6.4.576,0-10.9c0-2.564-.9-3.878-2.844-3.7-1.572.141-2.993,1.4-2.993,4.454Z" transform="translate(-186.66 -98.033)" fill="#fff"/>
            <path id="Caminho_27279" data-name="Caminho 27279" d="M332.26,84.578c-2.432.219-4.116-1.175-4.116-3.286a4.19,4.19,0,0,1,4.116-4.065c2.432-.219,4.116,1.175,4.117,3.324A4.184,4.184,0,0,1,332.26,84.578ZM329.12,106.2l0-20.283,6.4-.576,0,20.283Z" transform="translate(-232.431 -77.204)" fill="#fff"/>
            <path id="Caminho_27280" data-name="Caminho 27280" d="M356.643,110.542a11.638,11.638,0,0,1,10.513-11.465,9.383,9.383,0,0,1,10.516,9.572,11.638,11.638,0,0,1-10.513,11.465A9.383,9.383,0,0,1,356.643,110.542Zm14.368-1.293c0-3.167-1.871-4.544-3.854-4.366s-3.854,1.893-3.854,5.059,1.872,4.582,3.855,4.4S371.012,112.415,371.012,109.249Z" transform="translate(-252.247 -92.382)" fill="#fff"/>
          </g>
        </g>
        <g id="Grupo_14232" data-name="Grupo 14232" transform="translate(2.805 55.103)">
          <g id="Grupo_14231" data-name="Grupo 14231">
            <path id="Caminho_27281" data-name="Caminho 27281" d="M23.2,250.586l9.741-.877c.507,2.62,2.647,3.733,5.631,3.464,4.054-.365,5.067-3.067,5.067-5.109,0-2.1-1.24-4.653-5.463-4.273-2.7.243-4.73,1.5-5.574,4.019l-8.053-2,3.375-21.862,23.423-2.109,0,8.737-16.386,1.475-.787,5.007a13.89,13.89,0,0,1,5.686-1.76c9.685-.872,13.8,5.452,13.8,11.92,0,6.241-4.728,13.758-15.032,14.685C30.015,262.681,23.483,257.936,23.2,250.586Z" transform="translate(-23.2 -211.87)" fill="#fff"/>
            <path id="Caminho_27282" data-name="Caminho 27282" d="M142.561,214.23c9.741-.877,15.316,5.712,15.319,18.42,0,12.651-5.459,20.177-15.313,21.065s-15.316-5.656-15.318-18.307C127.247,222.7,132.82,215.107,142.561,214.23Zm0,30.748c3.435-.31,5.348-4.339,5.347-11.431,0-7.148-1.916-10.891-5.35-10.581s-5.349,4.453-5.347,11.545S139.018,245.3,142.566,244.978Z" transform="translate(-95.548 -206.523)" fill="#fff"/>
            <path id="Caminho_27283" data-name="Caminho 27283" d="M236.67,245.845l0-29.9-7.038.633v-8.453l16.779-1.511.006,38.35Z" transform="translate(-166.733 -201.285)" fill="#fff"/>
            <path id="Caminho_27284" data-name="Caminho 27284" d="M312.22,198.956c9.741-.877,15.316,5.712,15.319,18.421,0,12.651-5.459,20.177-15.313,21.064s-15.316-5.656-15.318-18.307C296.906,207.426,302.479,199.833,312.22,198.956Zm0,30.748c3.435-.31,5.348-4.339,5.347-11.43,0-7.148-1.916-10.891-5.35-10.581s-5.349,4.452-5.347,11.544S308.677,230.024,312.225,229.7Z" transform="translate(-213.516 -195.903)" fill="#fff"/>
            <path id="Caminho_27285" data-name="Caminho 27285" d="M420.705,189.19c9.741-.877,15.317,5.712,15.319,18.421,0,12.651-5.459,20.177-15.313,21.064s-15.316-5.656-15.318-18.307C405.391,197.66,410.964,190.067,420.705,189.19Zm0,30.748c3.435-.309,5.349-4.339,5.348-11.43,0-7.149-1.916-10.891-5.351-10.582s-5.349,4.453-5.347,11.545S417.163,220.257,420.71,219.939Z" transform="translate(-288.948 -189.113)" fill="#fff"/>
          </g>
        </g>
      </g>
    </g>
  </g>
</svg>
