<svg xmlns="http://www.w3.org/2000/svg" width="664.636" height="336.404" viewBox="0 0 664.636 336.404">
  <g id="_001_logotipo_afranio_eleicao24_v01_02" data-name="001_logotipo_afranio_eleicao24_v01_02" transform="translate(332.318 168.202)">
    <g id="Grupo_53932" data-name="Grupo 53932" transform="translate(-332.318 -168.202)">
      <g id="Grupo_53922" data-name="Grupo 53922" transform="translate(0 0)">
        <path id="Caminho_97704" data-name="Caminho 97704" d="M664.626,127.506,662.8,97.545a5,5,0,0,0-6.923-4.308l-32,13.406-3.836-74.2,29.366,5.372a4.991,4.991,0,0,0,4.1-1.078c.039-.032.072-.069.11-.1.015-.012.032-.022.047-.035.038-.032.072-.069.11-.1.015-.012.032-.022.047-.035.038-.032.07-.068.107-.1.016-.013.034-.024.05-.037.038-.032.072-.069.11-.1.015-.013.031-.023.047-.035.039-.033.073-.071.112-.1.014-.012.03-.021.044-.033.038-.032.071-.068.108-.1.016-.013.034-.024.05-.037.038-.033.072-.069.109-.1.016-.013.032-.023.047-.036.039-.032.073-.069.11-.1.015-.012.032-.022.047-.035.039-.032.072-.069.11-.1.015-.012.032-.022.047-.035.038-.032.071-.068.107-.1.017-.013.034-.024.05-.037.039-.032.072-.069.11-.1.015-.013.032-.023.047-.035.038-.033.072-.069.109-.1.016-.012.032-.022.048-.035.038-.032.072-.069.109-.1.016-.012.032-.022.047-.035.038-.031.071-.068.108-.1.016-.013.034-.024.049-.037.04-.033.074-.071.113-.1.014-.011.03-.021.044-.033.039-.032.072-.069.11-.1.015-.012.032-.022.047-.035.039-.032.072-.069.11-.1.015-.012.032-.022.047-.035.038-.032.07-.068.107-.1.016-.014.034-.024.05-.037.038-.032.072-.069.11-.1.015-.013.032-.023.047-.036.038-.032.072-.068.109-.1.016-.012.032-.022.047-.035.039-.032.073-.069.11-.1.015-.012.032-.022.047-.035.038-.032.071-.068.108-.1l.049-.037c.039-.032.073-.069.11-.1.015-.013.032-.023.047-.035.039-.033.072-.069.11-.1.015-.012.032-.022.047-.035.039-.032.074-.07.112-.1.014-.012.03-.021.045-.033.037-.032.07-.068.107-.1.016-.013.034-.023.05-.036.038-.033.072-.069.109-.1.016-.012.032-.022.048-.035.038-.032.072-.069.109-.1.016-.012.032-.022.047-.035.039-.032.073-.069.11-.1.015-.012.032-.022.047-.035.038-.032.071-.068.108-.1l.049-.037c.039-.032.073-.069.11-.1.015-.013.032-.023.047-.036.039-.032.072-.068.11-.1.015-.012.032-.022.047-.035.038-.032.072-.069.109-.1.015-.012.032-.022.047-.035.038-.032.071-.068.108-.1.016-.013.034-.024.05-.037.039-.033.073-.071.112-.105.014-.011.03-.021.044-.033.039-.032.073-.069.11-.1.015-.012.032-.022.047-.035.039-.032.072-.069.11-.1.015-.013.032-.023.047-.035.038-.032.071-.068.108-.1.016-.013.033-.023.049-.036.039-.033.072-.069.11-.1.015-.012.032-.022.047-.035.038-.032.072-.069.109-.1.016-.012.032-.022.048-.035.038-.032.072-.069.109-.1.015-.012.032-.022.047-.035.038-.032.071-.068.108-.1.016-.013.034-.024.05-.037.038-.032.072-.069.109-.1.016-.013.032-.023.047-.035.039-.033.072-.069.11-.1.015-.012.032-.022.047-.035.039-.032.072-.069.11-.1.015-.012.032-.022.047-.035.039-.032.072-.069.11-.1.015-.012.032-.022.047-.035.039-.032.072-.069.11-.1.015-.012.032-.022.047-.035.038-.032.072-.069.109-.1.016-.012.032-.022.047-.035.039-.032.073-.069.11-.1.015-.013.032-.023.047-.035.038-.032.071-.068.108-.1.016-.013.034-.023.049-.036.039-.033.073-.069.11-.1.015-.012.032-.022.047-.035a5,5,0,0,0,1.8-3.84V24.4a5,5,0,0,0-.211-1.437,5.005,5.005,0,0,0,.211-1.436V20a5,5,0,0,0-4.133-4.925L592.647,3.359a4.987,4.987,0,0,0-1.8-1.476L588.011.5a4.978,4.978,0,0,0-2.49-.494L582.5.194a4.985,4.985,0,0,0-3.065,1.3c-.053.045-.1.089-.155.136s-.107.091-.16.139-.106.092-.158.139-.1.089-.154.135-.106.09-.157.137-.106.091-.158.138-.106.091-.158.139-.1.089-.155.136-.1.089-.155.135-.107.091-.159.139-.106.091-.158.138-.1.09-.155.136-.106.091-.157.138-.106.09-.158.138-.1.09-.156.136-.106.091-.158.138-.1.089-.154.135-.107.092-.159.139-.106.091-.158.138-.1.09-.155.137-.1.089-.155.135-.108.091-.16.139-.106.091-.158.139-.1.09-.155.137-.1.089-.156.135-.106.091-.158.138-.106.091-.158.139-.1.089-.155.136-.1.089-.155.135l-.16.139c-.053.045-.1.091-.157.138s-.1.09-.156.137-.1.09-.157.137-.106.091-.157.138-.106.09-.157.137-.1.09-.156.137-.1.089-.155.136-.108.091-.16.139-.1.09-.157.137-.1.09-.156.137-.1.089-.154.135-.108.092-.16.139-.106.091-.157.138-.1.091-.157.138-.1.089-.155.136-.106.09-.158.137-.106.091-.158.139-.1.088-.153.134-.108.092-.16.139-.106.091-.157.138a4.985,4.985,0,0,0-1.691,2.843l-56.622,89.528a5,5,0,0,0,.349,5.83l.357.434c.189.228.378.456.556.684a5,5,0,0,0,7.424.521c.053-.047.109-.09.16-.139s.106-.089.156-.137.106-.088.155-.136.108-.089.159-.139.107-.088.157-.137.106-.089.157-.137.1-.088.155-.135.109-.092.161-.142.1-.088.154-.135.107-.089.157-.138.106-.087.155-.135.108-.09.159-.139.107-.089.157-.137.106-.089.156-.137.106-.088.155-.136.109-.089.159-.139.107-.088.157-.137.109-.09.159-.14.1-.086.153-.133.108-.09.159-.139.107-.089.157-.137.106-.089.157-.138.105-.087.154-.135.108-.09.159-.139.107-.088.157-.137.107-.089.157-.137.1-.088.155-.135.11-.092.161-.142.105-.088.155-.136.106-.088.156-.137.106-.087.155-.135.109-.09.159-.139.107-.089.157-.137.107-.089.156-.137.106-.088.156-.136.108-.09.159-.139.106-.088.156-.137.109-.09.16-.14.1-.086.152-.133.109-.09.159-.139.107-.089.157-.137.106-.089.157-.138.1-.087.155-.135.108-.09.159-.139.106-.089.156-.137.107-.089.157-.137.1-.088.155-.136.11-.091.161-.141.106-.088.155-.136.106-.088.157-.137a5.01,5.01,0,0,0,.9-1.052l36.137-57.114-2.509,26.506-39,58.009a5,5,0,0,0-.8,3.486c.092.66.175,1.339.237,2.02a5,5,0,0,0,1.828,3.428,5,5,0,0,0-1.532,3.6l-.005.223c0,.122-.007.243-.009.365v.025q-.012.435-.041.9l-.012.269c-.067,1.239-.186,2.492-.293,3.554a5,5,0,0,0,1.428,4.028c.069.2.146.427.217.638l-.017.019c-.054.048-.112.093-.165.144s-.1.088-.155.135-.1.086-.151.133-.106.089-.156.137-.112.093-.164.143-.105.087-.154.134-.1.087-.153.134-.107.09-.158.138-.114.1-.167.147-.1.086-.151.132-.1.086-.152.133-.106.089-.156.137-.113.094-.166.145-.1.086-.152.132-.1.088-.153.135-.112.092-.164.143-.105.087-.154.134a4.991,4.991,0,0,0-1.585,2.744l-.035.185a5.012,5.012,0,0,0-.036,1.781c-.227.645-.48,1.326-.764,2.059l-.229.6c-.114.3-.227.6-.352.9q-.054.128-.1.258a58.3,58.3,0,0,1-4.258,8.122,5,5,0,0,0-1.363,4.789l.37,1.807a5,5,0,0,0,6.354,3.78l33.292-10.132-.749,8.114a5,5,0,0,0,4.979,5.46c.1,0,.2,0,.3-.01l3.588-.219h.029l3-.183a4.987,4.987,0,0,0,3.194-1.423c.051-.046.106-.088.156-.136s.106-.088.155-.136.11-.091.161-.141.106-.088.155-.136.106-.087.155-.135.108-.09.159-.139.107-.089.157-.138.107-.088.156-.136.106-.088.155-.136.109-.089.159-.139.107-.089.157-.138.107-.088.157-.136.106-.089.156-.138.108-.088.158-.137.107-.089.157-.138.106-.088.156-.137.106-.087.155-.135.109-.09.159-.139.107-.089.157-.138.107-.088.156-.136.106-.088.155-.136.109-.089.159-.139.109-.09.159-.139.106-.088.155-.136.106-.087.155-.135.109-.09.159-.139.107-.089.157-.138.107-.088.156-.137.106-.087.155-.135.109-.089.159-.139.108-.089.158-.138.106-.088.156-.136.107-.089.156-.138.108-.089.158-.137.107-.089.157-.138.107-.088.156-.137.106-.087.155-.135.109-.09.159-.139.108-.089.157-.138.107-.088.157-.136.106-.088.155-.136.108-.089.159-.139.108-.09.159-.14.1-.087.154-.135.106-.087.155-.135.109-.09.159-.139.107-.089.157-.138.107-.088.157-.137.1-.087.155-.135.108-.09.158-.139a4.972,4.972,0,0,0,1.635-3.205l.927-9.207,21.5-6.542.8,19.939a5,5,0,0,0,5.3,4.79l7.026-.428a4.964,4.964,0,0,0,2.855-1.132c.056-.042.1-.093.157-.137s.1-.094.157-.138.1-.093.158-.138.1-.092.155-.136.1-.093.158-.138.1-.093.157-.137.1-.093.157-.137.1-.093.156-.137.105-.094.16-.139.1-.093.155-.137.1-.092.156-.136.1-.093.157-.137.1-.094.157-.138.1-.093.157-.137.1-.093.156-.137.1-.093.157-.137.1-.093.158-.138.1-.093.156-.137.1-.094.159-.139.1-.092.154-.135.1-.094.158-.138.1-.093.157-.137.1-.094.157-.138.1-.092.155-.136.1-.093.159-.138.1-.093.156-.137.1-.093.157-.137.1-.093.156-.137.1-.094.16-.139.1-.093.155-.137.1-.092.156-.136.1-.093.157-.137.1-.094.157-.138.1-.093.157-.137.1-.093.157-.138.1-.092.156-.136.1-.094.158-.138.1-.093.157-.137.1-.093.156-.137.1-.094.158-.138.1-.093.156-.137.1-.093.157-.137.1-.094.158-.138.1-.092.154-.136.1-.094.159-.138.1-.093.157-.137.1-.093.156-.137.1-.093.157-.137.1-.093.157-.138.1-.094.159-.139a4.992,4.992,0,0,0,1.988-4.252l-1.013-19.605,27.081-8.239a5,5,0,0,0,2.133-1.3c.05-.048.108-.088.157-.137s.107-.087.155-.136.11-.089.159-.139.108-.087.156-.137.109-.089.158-.139c.105-.091.217-.174.313-.273.05-.048.109-.088.157-.137s.108-.087.156-.137.11-.088.158-.138.108-.088.156-.137.109-.088.157-.137.108-.087.156-.137.11-.088.158-.138.109-.088.158-.138.108-.087.156-.137.108-.086.156-.136.11-.088.158-.139.108-.086.156-.136.109-.088.157-.138.108-.087.156-.136.109-.088.158-.138.108-.087.157-.137.108-.087.157-.137.108-.087.156-.137.11-.089.159-.139.107-.087.155-.136.109-.088.157-.137.109-.088.157-.138c.1-.091.217-.175.314-.275.05-.047.108-.087.156-.136s.109-.087.156-.137.11-.088.158-.138.109-.087.157-.137.109-.088.158-.138.108-.087.156-.137c.1-.091.217-.175.314-.274.05-.048.108-.088.156-.137s.109-.088.157-.137.109-.088.157-.138.109-.087.157-.137.108-.088.157-.137.108-.087.156-.137.11-.089.159-.139.108-.087.155-.136.109-.088.157-.138.108-.086.156-.136.11-.088.159-.139A4.981,4.981,0,0,0,664.626,127.506ZM559.632,119.4l-15.743,6.171L561.53,99.347Z"/>
        <path id="Caminho_97705" data-name="Caminho 97705" d="M237.387,259.24c.04-.035.079-.069.117-.1.053-.046.107-.09.158-.138s.106-.09.156-.137.106-.089.157-.137.106-.09.157-.137.1-.089.155-.136.107-.09.159-.139.106-.089.156-.137.106-.089.157-.137.1-.089.156-.136.106-.09.158-.138.108-.092.159-.14.105-.089.154-.136.1-.088.156-.135.107-.091.158-.139.107-.089.157-.137.106-.09.157-.137.1-.089.155-.136.107-.09.158-.138.107-.09.158-.138.1-.089.155-.136.109-.092.161-.141.1-.088.154-.135.107-.09.157-.137.1-.089.155-.136.108-.09.159-.139.106-.089.157-.137.106-.089.157-.137.1-.088.155-.136.107-.09.158-.139.106-.089.157-.136.108-.092.16-.141.1-.087.152-.133.108-.091.159-.139.106-.09.157-.137.106-.09.156-.137.1-.089.155-.136.108-.09.159-.139.107-.089.157-.137.106-.089.156-.137a4.977,4.977,0,0,0,.816-6.653l-3.984-5.649a13.351,13.351,0,0,0,4.036-9.632h0a12.3,12.3,0,0,0-3.86-9.454c-2.014-1.84-5.775-3.906-12.267-3.327l-10.49.944a4.966,4.966,0,0,0-2.708,1.119c-.057.043-.1.094-.159.139s-.1.093-.156.137-.1.093-.157.137-.1.092-.156.136-.1.1-.16.14-.1.093-.155.136-.1.093-.157.137-.1.093-.155.137-.1.093-.159.138-.1.093-.156.137-.1.093-.157.137-.1.093-.156.136-.1.094-.157.138-.1.094-.158.138-.1.093-.156.137c-.038.028-.071.063-.108.092a17.948,17.948,0,0,0-10.919-2.386,19.853,19.853,0,0,0-11.777,5.229c-.052.047-.106.09-.157.138s-.106.09-.157.137-.107.09-.158.138-.1.088-.153.134-.106.089-.156.136-.109.092-.161.141-.106.09-.157.138-.1.089-.156.136-.1.088-.154.134-.111.1-.165.145-.1.085-.149.13-.11.094-.163.144-.1.085-.15.13-.11.1-.164.144-.1.085-.149.13l-.058.049c-.038-.035-.07-.076-.108-.111-3.5-3.2-8.295-4.627-13.858-4.125l-9.521.858a4.964,4.964,0,0,0-2.709,1.121c-.056.042-.1.093-.156.137s-.1.093-.157.137-.1.092-.155.136-.1.094-.16.139-.1.094-.158.138-.1.093-.155.136-.1.093-.155.136-.1.094-.159.139-.1.093-.156.137-.1.093-.157.137-.1.092-.156.136-.1.094-.158.138-.1.094-.157.138-.1.093-.156.137-.1.092-.156.136-.1.1-.161.14-.1.092-.154.136-.1.093-.157.137-.1.092-.155.136-.1.094-.16.139-.1.093-.156.137-.1.092-.155.136-.1.093-.158.138-.1.087-.148.129l-.064-.167a5,5,0,0,0-5.116-3.19l-6.2.557a4.982,4.982,0,0,0-2.753,1.151c-.055.042-.1.092-.156.136s-.1.094-.158.139-.1.092-.156.136-.1.093-.158.138-.1.092-.155.136-.1.093-.159.138-.1.094-.158.139-.1.093-.156.137-.1.092-.155.135-.1.094-.158.139-.1.093-.157.137-.1.093-.157.137-.1.092-.154.136-.106.093-.159.138-.1.093-.157.138-.1.092-.157.137-.1.093-.158.138-.1.093-.156.137-.1.093-.157.137-.093.083-.141.123a4.973,4.973,0,0,0-4.989-2.9l-17.77,1.6a4.966,4.966,0,0,0-2.71,1.12c-.055.042-.1.093-.156.137s-.1.092-.156.136-.106.1-.161.14-.1.093-.154.136-.1.093-.157.137-.1.093-.156.137-.1.093-.157.137-.1.094-.158.138-.1.093-.156.137-.1.093-.156.136l-.026.017a17.783,17.783,0,0,0-9.175-1.3l-10.49.945a4.952,4.952,0,0,0-1.521.4,4.973,4.973,0,0,0-1.54-.128l-17.77,1.6a4.894,4.894,0,0,0-.687.128,4.921,4.921,0,0,0-.768,0l-5.675.511a4.99,4.99,0,0,0-2.788,1.181c-.055.043-.1.092-.157.137s-.1.091-.155.136-.105.093-.159.138-.1.093-.157.138-.1.092-.156.137-.1.091-.156.136-.1.092-.157.137-.107.095-.161.141-.1.091-.154.135-.1.091-.155.136-.1.093-.159.139-.1.092-.156.137-.1.092-.157.137-.1.091-.155.136-.105.093-.159.138-.1.093-.157.138-.1.091-.156.136-.105.093-.158.139-.1.092-.157.137-.1.092-.156.137-.1.092-.157.137-.1.091-.155.136-.1.093-.159.139-.1.092-.157.137-.1.091-.155.136-.1.093-.159.138-.1.092-.155.137-.107.094-.161.14-.1.09-.152.134-.1.093-.159.138-.1.093-.157.138-.1.092-.156.137-.1.091-.156.136-.1.093-.159.138l-.007.005-.435-1.264a5,5,0,0,0-5.176-3.351l-6.123.551a5,5,0,0,0-2.781,1.173c-.109.085-.211.18-.314.274s-.211.181-.314.275-.211.18-.313.274-.212.18-.314.275a5.123,5.123,0,0,0-.431.377c-.067.056-.132.113-.2.172-.11.085-.212.18-.314.275s-.212.18-.314.274-.211.18-.314.274a4.8,4.8,0,0,0-.43.378c-.067.055-.133.113-.2.172-.11.085-.212.18-.314.274s-.211.18-.313.274-.212.18-.314.275a4.945,4.945,0,0,0-.43.376c-.052.047-.108.089-.158.138l-.04.035c-.109.085-.211.18-.313.275s-.212.18-.314.274-.211.18-.314.274a5.109,5.109,0,0,0-.43.377c-.052.047-.107.089-.157.138l-.04.035c-.11.085-.212.18-.314.274s-.212.18-.314.275-.211.18-.313.274c-.055.043-.1.092-.157.137a5.006,5.006,0,0,0-.432.379,4.955,4.955,0,0,0-1.343,5.433l8.938,24.241-3.037.274a4.956,4.956,0,0,0-1.914.584,4.982,4.982,0,0,0-2.005-.233l-5.226.472a4.96,4.96,0,0,0-2.708,1.12c-.056.042-.1.093-.158.137s-.1.093-.156.137-.1.094-.158.138-.1.093-.156.137-.1.093-.157.137-.1.093-.157.137-.1.093-.157.138-.1.092-.156.136-.1.1-.16.14-.1.092-.154.135-.1.094-.157.138-.1.093-.156.137-.1.093-.158.137-.1.093-.156.137-.1.094-.158.138-.1.093-.156.137-.1.093-.158.137-.1.093-.156.137-.1.1-.159.14-.1.092-.155.135-.1.093-.157.138-.1.092-.156.136-.1.093-.157.138l-.036.026-.777-1.121a5.008,5.008,0,0,0-4.557-2.13l-6.121.551a4.966,4.966,0,0,0-2.709,1.12c-.056.042-.1.093-.157.138s-.1.092-.157.136-.1.094-.157.138-.1.093-.157.137-.1.093-.157.137-.1.093-.156.137-.105.094-.159.139-.1.092-.156.136-.1.094-.156.138-.1.092-.157.136-.1.094-.157.138-.1.093-.157.137-.1.093-.157.138-.1.092-.156.136-.1.094-.158.138-.1.093-.156.137-.1.094-.159.139-.1.092-.155.136-.1.093-.157.137-.1.093-.156.137-.1.093-.158.138-.1.092-.156.136-.1.094-.158.138-.1.093-.155.137-.1.093-.159.138-.1.092-.155.136-.105.094-.16.139-.1.093-.154.136-.1.094-.158.138-.1.092-.156.136-.1.094-.158.138-.1.093-.155.137-.1.093-.158.138-.1.092-.156.136-.1.094-.158.138-.1.093-.156.137-.1.094-.159.139-.1.092-.155.136-.1.093-.158.138-.1.092-.155.136-.1.093-.158.138-.1.092-.156.136-.1.094-.158.138-.1.093-.156.137-.1.093-.158.138-.1.092-.155.136-.105.1-.16.139-.1.093-.155.136-.1.093-.157.138-.1.093-.157.137a5,5,0,0,0-2,4l0,27a5,5,0,0,0,5,5c.15,0,.3-.007.449-.02l5.189-.468a4.971,4.971,0,0,0,2.71-1.121c.055-.042.1-.093.156-.137s.1-.093.156-.137.1-.093.157-.137.1-.093.157-.137.1-.093.157-.137.1-.093.156-.137.1-.094.158-.138.1-.093.156-.137.1-.093.157-.137.1-.094.159-.139.1-.093.155-.136.1-.093.156-.137.1-.093.158-.138.1-.092.156-.136.1-.094.158-.138.1-.093.156-.137.1-.093.157-.137.1-.093.157-.137.1-.094.157-.138.1-.094.158-.138.1-.093.156-.137.1-.093.156-.137.1-.093.157-.137.1-.093.157-.137.1-.093.157-.138c.041-.03.075-.067.115-.1l.978,1.412a5.014,5.014,0,0,0,4.56,2.133l5.563-.5a4.961,4.961,0,0,0,1.928-.593,4.989,4.989,0,0,0,1.541.262c.149,0,.3-.007.448-.02l18.032-1.624a4.973,4.973,0,0,0,2.709-1.119c.056-.042.1-.094.158-.139s.1-.092.155-.136.1-.093.158-.137.1-.094.157-.138.1-.092.156-.136.1-.094.158-.138.1-.093.156-.137.1-.1.16-.14.1-.091.154-.135.1-.093.158-.138.1-.092.156-.136.1-.094.157-.138l.067-.055a17.063,17.063,0,0,0,8.337,2.141c.554,0,1.115-.026,1.678-.076A20.02,20.02,0,0,0,76.1,310.81c.027-.022.052-.047.079-.07a4.853,4.853,0,0,0,4.351,2.591c.149,0,.3-.007.449-.02l18.032-1.624a4.965,4.965,0,0,0,2.707-1.118c.057-.043.106-.1.161-.14s.1-.093.155-.137.1-.093.157-.137.1-.092.155-.135.1-.094.159-.139.1-.1.159-.139l.053-.043a16.977,16.977,0,0,0,6.824,1.328c.656,0,1.329-.03,2.014-.092a18.243,18.243,0,0,0,11.141-4.684c.051-.047.108-.09.158-.138s.107-.089.157-.137c.012-.012.026-.022.038-.033a15.528,15.528,0,0,0,9.635,3q.986,0,2.016-.092a20.246,20.246,0,0,0,7.33-2.025,5,5,0,0,0,2.6.735c.149,0,.3-.007.449-.02l5.711-.514a4.988,4.988,0,0,0,2.773-1.169c.054-.042.1-.091.154-.135s.106-.094.16-.139.1-.093.157-.138.1-.092.156-.136.1-.092.155-.136.106-.094.16-.139.1-.092.156-.137.1-.093.157-.137.1-.093.157-.138.1-.092.157-.137.1-.093.157-.138.1-.092.156-.137.1-.091.155-.135.1-.094.159-.139.1-.093.157-.137.1-.093.157-.137.1-.092.155-.137.106-.093.159-.139.1-.093.158-.138.1-.091.155-.136.1-.091.155-.135.1-.094.159-.139.1-.093.158-.138.1-.092.155-.137.1-.091.155-.135.106-.094.16-.139.1-.093.156-.137.1-.092.155-.136.107-.1.161-.14.1-.092.156-.137.1-.092.155-.137.1-.091.155-.135.106-.094.16-.139.1-.093.157-.138.1-.092.156-.136.1-.092.155-.136.1-.093.159-.139.081-.072.123-.107l.634,1.761a5,5,0,0,0,5.153,3.288l6.084-.548a5.021,5.021,0,0,0,.85-.159c.115.008.228.032.344.032.149,0,.3-.007.448-.02l5.673-.511a4.975,4.975,0,0,0,2.939-1.31c.052-.044.1-.088.154-.135s.107-.091.159-.139.1-.09.156-.137.105-.088.156-.135.107-.091.159-.139.1-.09.156-.137.106-.09.157-.137.1-.09.155-.136.108-.092.16-.14.106-.09.157-.138.1-.089.155-.136.1-.089.156-.135.1-.09.156-.137l.023.036a5.005,5.005,0,0,0,4.6,2.191l6.757-.608a5,5,0,0,0,.987-.2,5.015,5.015,0,0,0,.505.047c.149,0,.3-.007.448-.02l5.674-.511a4.969,4.969,0,0,0,2.71-1.12c.055-.042.1-.093.156-.137s.1-.092.156-.136.1-.094.158-.138.1-.094.157-.138.1-.093.157-.137.1-.092.155-.136.1-.094.159-.138.1-.094.158-.139.1-.092.155-.136.1-.093.156-.136.1-.094.158-.139.1-.093.157-.137.1-.093.157-.137.1-.092.155-.136.1-.094.159-.138c.036-.028.067-.06.1-.088a17.481,17.481,0,0,0,9.088,2.468q.873,0,1.764-.08a19.935,19.935,0,0,0,11.824-5.25c.051-.046.1-.089.155-.136s.1-.088.155-.135.108-.092.16-.14.107-.091.158-.138.1-.089.154-.135.108-.092.16-.14.1-.089.155-.135.107-.092.159-.14.1-.089.154-.135.106-.089.156-.136.107-.091.159-.139.106-.09.157-.138.1-.088.155-.135.106-.09.157-.137.107-.091.158-.139.107-.091.158-.138.106-.09.156-.137.106-.09.156-.137.107-.09.158-.137.106-.091.157-.138.105-.089.155-.136.105-.089.156-.136.108-.091.159-.139.107-.091.158-.138.1-.089.154-.135.106-.09.157-.137.109-.093.161-.141.1-.09.156-.137.105-.089.155-.136.1-.089.155-.135.108-.092.16-.14.105-.089.155-.136.106-.089.157-.137.1-.089.156-.136.108-.092.16-.14.1-.089.155-.136.107-.091.158-.138.1-.09.156-.137.106-.09.157-.137.106-.091.157-.138.1-.089.155-.136.1-.089.156-.136.108-.092.161-.14.1-.089.155-.136.1-.09.156-.137.105-.089.156-.136.109-.093.162-.142.1-.089.154-.135.105-.09.156-.137.1-.089.156-.135a20.449,20.449,0,0,0,6.659-15.213,17.84,17.84,0,0,0-5.628-13.4A16.631,16.631,0,0,0,237.387,259.24ZM180.6,261.019Z"/>
        <path id="Caminho_97706" data-name="Caminho 97706" d="M513.909,176.755c.05-.055.1-.111.147-.165.064-.07.124-.142.188-.212.037-.041.072-.084.11-.126.06-.065.117-.131.177-.2s.1-.119.158-.178.1-.118.157-.176.106-.121.161-.181.1-.114.15-.169.106-.121.16-.18.1-.119.157-.177.1-.117.156-.175.1-.118.157-.176.1-.118.156-.177.121-.137.183-.205c.038-.042.073-.085.11-.126l.175-.195c.055-.06.108-.122.162-.182s.1-.117.155-.174.121-.138.182-.206c.037-.04.071-.082.108-.123.061-.066.121-.135.182-.2s.1-.118.157-.177.1-.117.155-.175.1-.118.157-.176.1-.118.157-.176.106-.122.161-.181.1-.117.154-.174.1-.115.153-.172.107-.121.161-.181.1-.118.156-.176.12-.137.181-.2c.037-.041.072-.083.108-.123l.178-.2c.056-.061.109-.124.165-.185s.1-.115.152-.171.118-.136.179-.2c.038-.041.073-.084.111-.126.062-.067.122-.137.184-.205s.1-.116.154-.174.1-.115.153-.172.107-.121.161-.181.1-.118.156-.175.106-.121.16-.18.1-.115.152-.171.1-.117.155-.175.109-.123.165-.184.1-.116.152-.173.119-.135.179-.2c.038-.042.073-.085.111-.126a47.312,47.312,0,0,0,12.608-32.011,40.609,40.609,0,0,0-13-30.438c-8.383-7.661-19.609-11.29-31.618-10.205a47.6,47.6,0,0,0-30.932,15.5c-.053.057-.1.117-.156.175s-.1.113-.15.169-.108.123-.163.183-.1.117-.155.174-.108.123-.163.184-.1.111-.146.165-.1.119-.159.178-.109.124-.164.185-.1.115-.153.172-.1.118-.157.176-.1.116-.153.173-.109.123-.163.183-.1.118-.156.176-.1.113-.15.169-.109.123-.163.183-.1.117-.155.174-.107.122-.162.182-.1.113-.149.168-.1.118-.157.176l-.062.068v-6.871a6.989,6.989,0,0,0-1.393-4.181,20.179,20.179,0,0,0,4.421-12.672,18.309,18.309,0,0,0-5.84-13.728c-4.111-3.756-9.892-5.514-16.27-4.935a23.408,23.408,0,0,0-16.278,8.309c-.049.06-.106.114-.155.175s-.108.116-.158.177-.107.116-.157.177-.109.117-.159.179-.1.111-.152.17-.11.119-.161.182-.106.114-.155.175-.107.115-.157.176-.107.115-.157.176-.107.116-.157.177-.109.117-.159.179-.106.114-.155.175-.106.113-.154.173-.11.118-.16.18-.107.115-.156.175-.109.118-.16.18-.1.111-.151.17-.111.119-.162.182-.106.114-.155.174-.107.116-.157.177-.107.115-.156.175-.107.116-.157.177-.109.118-.159.18-.106.114-.156.174-.105.114-.154.173-.109.118-.16.181-.106.114-.155.175-.11.118-.16.18-.1.111-.151.17-.11.118-.161.18-.107.116-.157.177-.107.115-.156.176-.107.114-.156.175-.108.116-.157.177-.109.117-.16.179-.106.115-.155.175-.105.113-.153.172-.111.119-.162.182-.106.114-.155.175-.109.117-.159.18-.1.11-.152.169-.109.118-.16.181-.108.116-.157.177-.107.115-.157.176-.106.114-.155.175-.108.115-.158.177-.108.116-.157.177-.107.114-.156.175-.108.116-.157.177-.109.117-.16.179a20.39,20.39,0,0,0-4.727,13.139,19.818,19.818,0,0,0,.4,3.958,30.663,30.663,0,0,0-14.85-2.083,34.789,34.789,0,0,0-15.579,5.15q-.064-.063-.132-.123a7,7,0,0,0-5.349-1.805l-19.882,1.79a6.989,6.989,0,0,0-1.089-1.555L332.736,87.788a6.988,6.988,0,0,0-5.755-2.206l-28.564,2.572A6.99,6.99,0,0,0,293.9,90.39q-.249.253-.474.532c-.055.056-.1.119-.156.176s-.1.119-.157.177a7.007,7.007,0,0,0-.471.53c-.055.056-.1.118-.157.176s-.1.118-.156.176c-.11.112-.211.233-.313.352a7.04,7.04,0,0,0-.472.531c-.055.056-.1.118-.156.176s-.1.119-.158.176a407.016,407.016,0,0,1-.943,1.062h0c-.052.056-.1.114-.152.172a6.827,6.827,0,0,0-.472.531c-.055.055-.1.118-.157.176s-.1.118-.157.176q-.246.25-.469.528a7.071,7.071,0,0,0-.474.533v0q-.078.084-.153.171c-.055.057-.1.12-.158.178a7.012,7.012,0,0,0-.471.53c-.054.056-.1.118-.156.176-.164.167-.321.343-.469.527a7.117,7.117,0,0,0-.475.534v0c-.051.056-.1.113-.152.171s-.1.119-.158.177a7.043,7.043,0,0,0-.473.532l0,0c-.051.058-.106.113-.154.173L272.1,116.577a46.918,46.918,0,0,0-12.709,5.452,7,7,0,0,0-6.906-3.877l-19.49,1.754V104.487a7,7,0,0,0-4.669-6.6,37.674,37.674,0,0,0-15.728-1.609c-10.02.9-17.8,4.545-22.928,10.493-.05.058-.1.114-.153.172s-.108.12-.161.181-.1.116-.155.175-.105.116-.156.175-.106.118-.158.178-.1.116-.156.175-.107.119-.159.18-.1.115-.155.174-.1.115-.155.174-.108.12-.161.181l-.154.173c-.053.06-.107.119-.159.18s-.1.114-.153.172-.107.118-.16.179-.106.118-.158.178-.1.115-.154.174-.106.118-.158.178-.1.116-.156.175-.107.119-.159.179-.1.115-.155.174-.1.116-.155.175-.108.12-.161.181-.1.114-.154.173-.107.119-.159.179-.1.114-.154.173-.107.118-.159.179-.106.117-.158.177-.1.116-.155.175-.106.118-.158.178-.1.115-.155.175-.106.116-.157.176-.107.119-.159.179l-.154.173c-.053.06-.108.12-.16.18s-.1.115-.154.174-.107.118-.16.179-.1.115-.153.173-.107.118-.159.178-.106.118-.158.178-.1.115-.155.174-.106.118-.158.178-.1.116-.156.176-.1.116-.157.176-.107.118-.159.179-.1.114-.153.172-.109.12-.161.182-.1.114-.154.172-.105.116-.156.176-.108.119-.16.18-.1.115-.154.173A27.72,27.72,0,0,0,176.437,125l-.7.063a6.977,6.977,0,0,0-4.64,2.37c-.054.057-.1.116-.155.174s-.1.117-.156.176-.1.117-.157.176-.106.118-.157.177-.107.119-.16.179-.1.116-.154.174-.1.115-.154.174-.109.12-.162.182-.1.115-.155.174-.106.119-.159.179-.1.113-.152.171-.108.121-.162.182-.1.115-.154.174-.105.117-.157.176-.105.117-.156.176-.106.118-.158.177-.106.119-.159.179-.1.116-.154.174-.1.115-.154.173-.109.121-.163.182-.1.116-.154.174-.107.119-.159.179-.1.114-.152.171-.107.119-.16.18-.106.118-.159.179-.1.115-.154.174-.1.117-.157.176-.105.117-.157.177-.107.119-.159.179-.1.115-.154.174-.1.115-.155.173-.108.121-.162.182-.1.116-.154.174-.107.119-.159.179-.1.114-.152.171-.107.119-.16.179-.107.119-.159.179-.1.116-.154.174-.1.117-.157.176-.106.118-.157.177-.1.109-.147.164l-9.934-26.419a7.007,7.007,0,0,0-7.18-4.508l-27.248,2.453a6.991,6.991,0,0,0-4.517,2.24c-.056.057-.106.121-.16.18s-.1.118-.155.175-.1.118-.157.176-.1.118-.156.176-.1.119-.158.178-.1.119-.158.177-.1.118-.156.176-.1.116-.154.173-.107.122-.161.181-.1.117-.155.175-.105.119-.158.178-.1.116-.154.173-.1.119-.159.178-.1.12-.158.178-.1.118-.155.175-.1.118-.157.176-.1.119-.158.177-.1.12-.157.178-.1.118-.156.175-.1.117-.155.175-.106.12-.16.18-.1.117-.155.174-.1.119-.157.177-.1.118-.158.177-.1.118-.156.176-.1.119-.158.178-.1.116-.154.173-.106.121-.16.18-.1.117-.156.175-.1.118-.156.176-.1.118-.157.176-.1.119-.158.177-.1.12-.158.178-.1.118-.155.175-.1.118-.156.176-.1.119-.158.177-.1.118-.156.176-.105.12-.159.179-.1.115-.153.172-.106.121-.161.181-.1.117-.155.175-.1.118-.157.176-.1.118-.156.176-.1.119-.158.177-.1.119-.158.178-.1.117-.155.175-.1.117-.155.174-.106.121-.161.18-.1.118-.155.175-.1.12-.158.178a6.988,6.988,0,0,0-1.605,2.559l-35,98.377a7,7,0,0,0,6.594,9.346q.313,0,.629-.028l25.143-2.264a6.987,6.987,0,0,0,4.578-2.307c.055-.057.105-.118.158-.177s.1-.114.152-.171.107-.121.162-.182.1-.118.156-.176.1-.118.156-.176.1-.116.154-.173.106-.119.159-.179.107-.12.16-.18.1-.116.154-.173.1-.117.156-.175.1-.118.158-.177.105-.12.158-.179.1-.118.157-.176.1-.115.153-.172.107-.121.161-.181.1-.118.156-.176.1-.118.156-.176.1-.116.155-.174.106-.119.159-.179.106-.119.159-.179.1-.116.154-.174.1-.117.157-.176.1-.117.156-.176.106-.119.159-.178.105-.119.158-.178.1-.114.151-.17.108-.122.163-.182.1-.118.156-.177.1-.114.152-.171.109-.122.163-.183.1-.116.155-.174.1-.118.157-.177.1-.115.154-.173.1-.119.159-.178.106-.12.159-.18.1-.116.155-.174.1-.117.155-.175.1-.118.158-.177.106-.12.16-.18.1-.116.154-.174.1-.116.154-.173.108-.122.162-.182.1-.116.154-.174.106-.119.159-.178.1-.115.153-.172.106-.12.16-.179.106-.12.159-.18.1-.115.153-.173.105-.118.158-.177.1-.117.156-.175a6.975,6.975,0,0,0,1.608-2.675l1.712-5.253,17.863-1.608,4.027,11.9a7,7,0,0,0,7.258,4.727l26.853-2.416a6.978,6.978,0,0,0,3.274-1.174,7,7,0,0,0,2.811.6q.313,0,.628-.028l22.51-2.027a6.979,6.979,0,0,0,4.64-2.37c.053-.057.1-.116.154-.174s.1-.115.154-.173.109-.121.163-.182.1-.116.154-.174.106-.119.159-.179.1-.114.152-.171.107-.119.16-.18.106-.119.159-.179.1-.115.154-.174.1-.117.157-.176.1-.117.157-.177.106-.119.159-.179.1-.115.154-.174.1-.115.155-.173.108-.121.162-.182.1-.116.154-.174.107-.119.159-.179.1-.114.152-.171.107-.119.16-.179.106-.119.159-.179.1-.116.154-.174.105-.117.157-.177.1-.117.157-.176.1-.117.157-.177.107-.119.159-.179.1-.113.152-.171.109-.121.162-.182.1-.115.155-.174.105-.117.156-.176.1-.117.157-.177.105-.117.157-.176.107-.119.159-.179.1-.114.152-.171.109-.121.162-.182.1-.116.155-.174.1-.117.156-.176.1-.117.157-.177.1-.117.157-.176.107-.119.16-.179.1-.116.154-.174.1-.115.154-.174.109-.12.162-.182.1-.115.155-.174.106-.119.159-.179.1-.113.152-.171.108-.121.162-.182.1-.115.154-.174.1-.117.157-.176.1-.117.156-.176.106-.118.158-.177c.1-.109.2-.224.292-.339v2.723a7,7,0,0,0,7,7c.209,0,.419-.009.628-.028l22.509-2.026a6.977,6.977,0,0,0,4.639-2.368c.054-.058.1-.117.157-.176s.106-.119.159-.179.1-.116.154-.174.1-.116.155-.174.108-.121.162-.182.1-.115.154-.173.106-.12.159-.18.1-.114.152-.171.107-.119.16-.179.106-.119.159-.179.1-.116.154-.174.105-.117.157-.177.105-.117.157-.176.1-.117.157-.176.106-.119.159-.18.1-.113.152-.171.109-.12.162-.182.1-.115.154-.173.107-.119.159-.18.1-.113.153-.171.106-.119.159-.179.106-.118.159-.179.1-.115.154-.174.106-.117.158-.176.1-.117.156-.177.1-.117.157-.176.107-.119.159-.179.1-.114.153-.171.108-.121.161-.182.1-.115.154-.174.1-.115.155-.174.109-.12.162-.182.1-.115.154-.173.107-.119.159-.179.1-.114.153-.172.108-.12.161-.182.1-.115.155-.173.1-.117.156-.176.1-.118.158-.177.105-.117.156-.177.107-.119.16-.179.1-.115.154-.173.1-.116.155-.174.108-.121.161-.182.1-.116.155-.174.106-.119.159-.179.1-.114.152-.172.107-.118.159-.178.107-.119.16-.18.1-.115.154-.173a6.984,6.984,0,0,0,1.891-4.782l-.005-32.891c0-.394.012-.767.027-1.135a46.069,46.069,0,0,1,6-.547,6.822,6.822,0,0,0,3.665,2.644,27.952,27.952,0,0,0-6.024,17.532c0,8.24,2.878,15.223,8.32,20.2,5.1,4.66,12.191,7.14,20.246,7.14q1.809,0,3.681-.168a38.35,38.35,0,0,0,15.528-4.46,7,7,0,0,0,4.744,1.31l18.165-1.636a6.984,6.984,0,0,0,4.087-1.8,7,7,0,0,0,3.711,1.067q.313,0,.628-.029l22.509-2.026a6.975,6.975,0,0,0,4.638-2.367c.054-.058.105-.117.157-.176s.105-.117.157-.177.105-.117.157-.176.107-.119.159-.18.1-.113.152-.17.107-.119.16-.18.106-.119.159-.179.1-.115.154-.174.1-.117.157-.176.105-.117.157-.177.107-.119.159-.179.1-.115.155-.174.1-.115.154-.173.109-.121.162-.182.1-.116.154-.174.107-.119.159-.179.1-.114.152-.171.107-.119.16-.179.107-.119.159-.18.1-.115.154-.173.105-.117.157-.177.106-.117.157-.176.105-.117.157-.177.107-.119.159-.179.1-.113.152-.171.109-.121.162-.182.1-.115.155-.174.106-.119.159-.179.1-.113.152-.171.107-.119.159-.179.107-.119.16-.179.1-.116.154-.174.105-.117.157-.176.1-.118.157-.177.105-.117.157-.176.106-.119.159-.18.1-.113.152-.17.108-.121.162-.183.1-.115.154-.173.1-.117.157-.177.105-.117.156-.176.106-.117.158-.177.106-.119.159-.179.1-.115.154-.174.1-.117.157-.176.105-.117.157-.177.1-.117.157-.176.107-.119.159-.179.1-.114.152-.171.109-.121.162-.182q.223-.238.423-.5v2.87a7,7,0,0,0,7.627,6.971l22.51-2.026a6.972,6.972,0,0,0,4.085-1.8,6.994,6.994,0,0,0,3.71,1.066c.209,0,.419-.009.628-.028l22.51-2.026a6.975,6.975,0,0,0,4.638-2.367c.055-.059.107-.119.159-.179s.1-.114.152-.171.108-.121.162-.183.1-.115.154-.173.107-.119.159-.18.1-.113.152-.17.107-.119.16-.18.107-.119.159-.179.1-.115.154-.174.1-.117.157-.176.106-.117.157-.177.1-.117.157-.176.107-.119.159-.179.1-.114.152-.171.109-.121.162-.182.1-.116.155-.174.1-.117.156-.176.1-.117.157-.177.106-.117.157-.176.107-.119.159-.18.1-.115.155-.173.1-.117.157-.177.105-.117.157-.176.105-.117.156-.177.107-.119.16-.179.1-.113.152-.171.108-.121.162-.182.1-.115.154-.174.105-.117.157-.176.1-.117.156-.176.106-.118.158-.177.106-.119.159-.179.1-.116.154-.174.1-.115.154-.173.109-.121.162-.182.1-.116.155-.174.106-.119.159-.18.1-.113.152-.17.108-.121.162-.183.1-.115.154-.173.105-.117.157-.177.105-.117.157-.176.1-.117.157-.177.107-.119.159-.179.1-.115.154-.174.1-.115.155-.173.108-.121.162-.182l.124-.138a40.465,40.465,0,0,0,25.322,8.57q2.049,0,4.136-.187a47.6,47.6,0,0,0,30.929-15.5C513.8,176.877,513.855,176.815,513.909,176.755ZM485.957,148.1c-1.5-1.371-2.328-4.006-2.329-7.417,0-.651.039-1.256.094-1.84a4.391,4.391,0,0,1,2.751,1.108c1.464,1.338,2.27,3.928,2.271,7.294a19.061,19.061,0,0,1-.108,1.964A4.341,4.341,0,0,1,485.957,148.1Z"/>
        <path id="Caminho_97707" data-name="Caminho 97707" d="M619.726,294.316c.055-.059.106-.122.16-.181s.1-.117.155-.174.1-.119.158-.178.1-.117.155-.175.106-.12.16-.178.1-.119.157-.177.1-.116.153-.173.106-.121.161-.18.1-.117.154-.175.107-.121.161-.181.1-.112.149-.167.107-.122.162-.182.1-.12.159-.178.1-.117.153-.173.105-.12.158-.178.1-.118.156-.175.1-.12.159-.179.1-.119.157-.177.1-.115.152-.171.108-.123.164-.184.1-.116.153-.172.1-.12.157-.178.1-.117.155-.174.105-.12.159-.179.105-.12.159-.178.1-.116.153-.173.1-.12.159-.178.1-.117.155-.174.1-.121.159-.18.1-.119.157-.177.1-.114.152-.17.107-.122.162-.182.1-.119.157-.177.1-.118.156-.175.1-.118.155-.175.1-.119.157-.176.107-.123.162-.182.1-.116.152-.172.1-.117.155-.175.107-.121.161-.18.1-.119.157-.176.1-.119.157-.177.1-.115.151-.171.107-.122.162-.181.1-.12.158-.178.1-.118.155-.175.1-.117.155-.175.1-.118.157-.176.106-.121.16-.179c9.87-10.615,15.188-26.706,15.185-47.25,0-20.611-5.22-35.826-15.5-45.224-8.064-7.37-19.073-10.661-31.845-9.508-12.74,1.147-23.46,6.315-31.293,15.021-.052.058-.1.117-.154.175s-.1.117-.156.175-.105.119-.158.178-.1.117-.156.175-.106.12-.16.18-.1.115-.152.171-.107.122-.162.182l-.155.175c-.053.058-.1.118-.157.177l-.153.171c-.054.06-.107.121-.16.181s-.106.119-.159.178-.1.117-.154.174-.1.117-.156.175-.1.119-.158.178-.1.118-.157.176l-.159.179-.153.172c-.054.06-.107.121-.161.182s-.1.116-.154.173-.1.118-.157.177-.1.117-.157.176-.105.119-.158.178-.1.119-.158.178-.1.116-.155.174-.1.117-.156.175l-.158.178-.156.176c-.054.059-.106.12-.159.179s-.1.115-.153.172l-.161.181c-.052.057-.1.116-.154.174s-.1.118-.158.177-.1.117-.156.175l-.158.178c-.054.059-.1.119-.159.179s-.1.115-.153.172-.1.117-.156.175l-.162.182-.153.173c-.054.059-.106.12-.16.18s-.1.115-.152.171-.107.122-.162.182-.1.116-.154.173-.1.119-.157.177-.1.118-.156.176-.1.119-.158.178-.105.118-.158.177l-.152.172c-.054.059-.107.12-.161.18a46.4,46.4,0,0,0-3.228,3.969c-.662.912-1.286,1.861-1.892,2.828a41.353,41.353,0,0,0-9.6-13.418c-8.064-7.369-19.078-10.662-31.843-9.507-12.739,1.146-23.457,6.314-31.289,15.017-.054.059-.106.12-.16.18s-.1.116-.154.174-.106.12-.16.179-.1.118-.157.177l-.153.172-.161.181c-.051.056-.1.115-.152.172s-.108.121-.162.181l-.153.172c-.054.06-.106.121-.16.181s-.1.117-.156.175-.1.116-.154.174-.105.118-.158.177-.106.12-.16.179-.1.118-.155.176-.1.118-.158.177-.1.113-.15.17-.111.125-.167.187-.1.112-.15.168-.107.122-.161.182-.1.115-.153.172-.107.121-.16.18-.1.117-.156.176-.1.116-.155.174-.1.118-.157.177-.106.12-.16.179-.1.117-.156.175-.1.119-.157.178-.1.113-.151.169-.109.124-.164.185-.1.116-.155.174l-.158.178c-.052.057-.1.115-.153.173s-.105.118-.158.176-.107.122-.161.182-.1.115-.152.171l-.158.178-.159.179c-.053.057-.1.117-.156.175l-.158.178c-.05.055-.1.113-.15.169s-.109.123-.165.184-.1.117-.154.175-.1.119-.158.177-.1.116-.154.173-.1.119-.157.177-.106.12-.16.18-.1.115-.153.173-.107.12-.161.18-.1.117-.156.175c-.9.993-1.758,2.044-2.583,3.13l0-14.089a7,7,0,0,0-7.628-6.971L416.7,201.228a6.979,6.979,0,0,0-4.641,2.37c-.053.057-.1.116-.154.174s-.1.117-.157.177-.105.116-.157.176-.105.117-.157.176-.107.119-.159.179-.1.114-.152.172-.109.12-.162.181-.1.116-.154.174-.105.117-.157.177-.1.117-.157.176-.105.117-.157.176-.106.119-.159.18-.1.115-.155.174-.1.115-.154.173-.108.121-.162.182-.1.115-.154.174-.107.119-.159.179-.1.114-.153.171-.108.121-.161.182-.1.115-.155.174-.105.117-.156.176-.106.117-.158.177-.1.117-.156.176-.107.119-.16.179-.1.116-.154.174-.1.116-.155.174-.108.12-.161.181-.1.116-.155.175-.106.119-.159.179-.1.113-.152.171-.107.119-.159.179-.107.119-.159.179-.1.116-.155.174-.105.117-.157.177-.1.116-.156.176-.107.119-.16.179-.1.116-.154.174-.1.115-.155.174-.108.12-.161.181-.1.116-.155.174-.107.119-.159.179-.1.114-.152.172-.107.118-.159.178c-.012.013-.026.025-.038.038-7.834-6.127-18.053-8.812-29.753-7.757-12.74,1.146-23.46,6.315-31.293,15.02l-.155.175-.158.178c-.052.057-.1.116-.154.174s-.105.118-.158.177-.1.117-.155.174-.108.123-.162.183-.1.115-.153.171-.106.121-.159.18-.1.115-.154.172l-.158.178-.158.178-.158.178c-.052.057-.1.117-.155.175s-.1.117-.156.175-.105.119-.159.178-.1.118-.155.176-.1.116-.155.174-.108.122-.163.183-.1.114-.152.171-.106.12-.16.18-.1.115-.153.172l-.158.178c-.054.059-.105.119-.159.178s-.1.119-.157.178-.1.117-.155.174-.1.118-.157.176l-.156.176c-.054.059-.106.12-.16.18s-.1.115-.153.172l-.162.182c-.051.056-.1.114-.15.169s-.109.124-.164.185-.1.113-.151.17-.105.119-.159.178-.105.119-.158.178-.105.118-.158.177l-.155.175c-.053.058-.1.118-.156.176s-.1.117-.156.175l-.16.18-.155.175c-.053.059-.105.119-.159.178s-.1.115-.152.171-.107.122-.161.182-.1.117-.156.175-.1.117-.156.175l-.158.178c-.052.057-.1.116-.154.174s-.108.122-.163.182-.1.114-.15.17c-.746.819-1.457,1.681-2.15,2.564l0-13.558a7,7,0,0,0-7.627-6.971L265.879,214.8a7,7,0,0,0-4.938,2.728c-.049.06-.107.112-.154.174s-.11.114-.158.177-.108.113-.156.175-.109.114-.158.178-.109.115-.158.178-.107.112-.155.174-.108.113-.156.175-.11.116-.159.18-.108.113-.156.176-.109.114-.157.177-.107.111-.155.173-.111.116-.16.18-.107.113-.155.174-.109.114-.157.177-.109.114-.156.176-.11.114-.158.177-.11.115-.158.179-.108.112-.155.174-.109.113-.156.175-.11.116-.159.179-.108.113-.156.176-.11.115-.158.178-.107.111-.154.172-.11.115-.159.179-.109.115-.157.178-.109.113-.156.176-.109.113-.157.175-.109.114-.157.176-.11.116-.158.179-.108.113-.155.174-.109.113-.156.175-.111.116-.16.18-.108.113-.155.175-.11.115-.159.179-.106.111-.153.172-.111.115-.159.179-.109.114-.157.177-.109.113-.157.176-.108.113-.157.176-.108.114-.156.176-.109.114-.157.177-.11.115-.158.178-.108.112-.155.174-.11.115-.159.179-.108.112-.155.174-.11.116-.159.179-.107.111-.153.173-.111.115-.159.178-.11.115-.158.178-.108.112-.155.173a6.965,6.965,0,0,0-1.512,3.357l-8.752,56.685a6.982,6.982,0,0,0,1.326,5.27c-.05.056-.1.111-.149.168s-.105.114-.154.173-.111.121-.163.184-.1.111-.151.169-.108.119-.16.18-.1.115-.155.174-.106.117-.157.178-.107.117-.158.178-.1.112-.153.171-.111.122-.164.185-.1.113-.153.172-.1.114-.155.174-.108.118-.159.179-.105.115-.155.175-.11.12-.162.183-.1.111-.151.169-.106.115-.156.175-.111.121-.164.185-.1.112-.152.17-.109.119-.16.181a6.973,6.973,0,0,0-1.772,4.922,35.847,35.847,0,0,0,12.127,25.838c7.761,6.825,18.313,10.457,30.13,10.457,1.763,0,3.557-.081,5.372-.245,14.961-1.346,26.334-7.574,33.95-16.02.056-.061.11-.124.166-.186s.1-.115.153-.172l.155-.175c.054-.059.105-.119.158-.178s.1-.118.158-.177.106-.12.159-.18.1-.112.149-.167l.166-.186c.052-.057.1-.115.152-.172s.1-.119.158-.178.1-.116.154-.173.106-.12.16-.179.106-.121.16-.181.1-.114.153-.171l.156-.176c.054-.059.1-.119.158-.178s.1-.118.157-.176.106-.121.16-.181.1-.111.148-.167.11-.124.166-.186.1-.115.153-.172.1-.118.158-.177l.154-.174c.054-.059.1-.119.159-.179s.106-.12.16-.18.1-.115.153-.172.1-.115.153-.172.109-.123.165-.185.1-.116.153-.173.107-.121.16-.181.1-.111.148-.166.111-.125.167-.187.1-.115.152-.172.105-.118.157-.176.1-.117.156-.175l.158-.178c.055-.06.107-.121.161-.181l.152-.172c.052-.057.1-.115.153-.172s.109-.123.165-.185.1-.115.153-.173.107-.12.161-.18.1-.111.147-.166.109-.123.164-.184.106-.119.159-.179.1-.116.154-.173l.155-.175c.054-.059.105-.119.158-.177s.107-.122.162-.182.1-.115.152-.172c.3-.325.577-.658.862-.99a39.2,39.2,0,0,0,7.243,9.005c7.055,6.448,16.061,9.7,26.827,9.7q2.523,0,5.176-.239c12.894-1.16,23.363-6.165,31.047-14.515.054-.058.1-.119.157-.177s.1-.117.155-.174.105-.12.158-.178.1-.119.158-.177.1-.118.155-.175.107-.122.161-.181.1-.117.154-.174.1-.118.156-.175.1-.119.157-.176.1-.12.158-.178.1-.121.16-.18.1-.114.15-.17.106-.121.16-.179.1-.12.158-.178.1-.118.156-.175.1-.119.157-.177.1-.117.155-.174.107-.123.162-.182.1-.117.153-.173.1-.116.154-.173.107-.122.162-.182.1-.117.155-.175.106-.121.16-.179.1-.115.151-.171.105-.12.159-.179.105-.12.159-.178.1-.118.155-.175.1-.119.157-.177.1-.117.155-.174.106-.121.16-.18.1-.118.157-.176.1-.116.153-.172.106-.122.161-.181.1-.118.155-.175.106-.121.16-.18.1-.115.151-.17.1-.119.158-.177.107-.123.162-.182.1-.117.153-.174.1-.119.158-.176.1-.118.155-.175.105-.121.16-.18.1-.118.156-.176.1-.116.153-.172.107-.122.161-.181.1-.118.156-.175.1-.12.158-.178.1-.116.154-.173.1-.119.157-.176.107-.123.161-.182c6.1-6.561,10.456-15.219,12.9-25.722l.005,35.273a7,7,0,0,0,7,7q.314,0,.628-.028l25.257-2.274a6.981,6.981,0,0,0,4.638-2.368c.054-.057.1-.117.157-.177s.106-.119.159-.179.1-.113.152-.171.107-.119.16-.179.106-.119.159-.179.1-.116.154-.174.105-.117.157-.176.105-.118.157-.177.1-.117.157-.176.106-.119.159-.179.1-.114.152-.171.109-.121.162-.182.1-.116.154-.174.1-.117.157-.177.105-.117.157-.176.105-.117.157-.177.106-.119.159-.179.1-.115.155-.174.1-.117.156-.176.105-.117.157-.177.105-.117.157-.176.107-.119.159-.179.1-.114.152-.171.109-.121.162-.182.1-.116.155-.174.105-.117.156-.176.1-.117.157-.176.105-.118.157-.177.107-.119.16-.179.1-.116.154-.174.1-.116.155-.174.108-.12.161-.181.1-.116.155-.175.106-.119.159-.179.1-.113.152-.171.108-.121.162-.182.1-.115.154-.174.105-.117.157-.176.1-.117.156-.176.106-.118.158-.177.106-.119.159-.179.1-.116.154-.174.1-.115.155-.174.108-.12.161-.181.1-.116.155-.174.106-.119.159-.179.1-.114.152-.171.107-.119.16-.18.106-.118.159-.178.1-.116.154-.175a6.971,6.971,0,0,0,1.87-4.338,37.437,37.437,0,0,0,2.992,3.1c7.056,6.448,16.061,9.7,26.828,9.7q2.525,0,5.177-.239c12.892-1.16,23.361-6.164,31.044-14.513.055-.059.106-.121.161-.181s.1-.117.155-.174.1-.118.155-.175.1-.119.158-.178.105-.119.158-.178.1-.118.158-.176.1-.116.153-.173.107-.122.161-.181.1-.115.152-.171.109-.124.165-.185.1-.113.148-.168.107-.122.162-.181.1-.117.155-.175.1-.12.158-.178.1-.118.156-.176.1-.118.156-.175.1-.118.156-.175.107-.123.162-.183.1-.114.151-.17.107-.122.162-.181.1-.115.151-.171.109-.124.165-.185.1-.113.149-.168.106-.121.161-.181.1-.117.155-.174.105-.12.159-.179.1-.117.155-.175.1-.119.157-.176.1-.118.156-.175.107-.123.162-.182.1-.114.149-.169.109-.124.165-.184.1-.114.149-.169.108-.123.163-.183.1-.116.153-.172.105-.121.159-.179.1-.118.155-.175.1-.12.159-.178.1-.118.155-.175.1-.119.158-.177.1-.118.155-.175.107-.122.162-.182.1-.113.149-.168.109-.124.164-.184.1-.115.151-.17.108-.123.162-.183.1-.116.153-.172.1-.119.158-.177.1-.12.158-.178.1-.119.157-.177a46.9,46.9,0,0,0,5.356-7.024,40.8,40.8,0,0,0,9.451,13.189c7.055,6.447,16.061,9.7,26.827,9.7q2.525,0,5.177-.238c12.9-1.161,23.365-6.167,31.048-14.518C619.625,294.432,619.674,294.372,619.726,294.316Zm-26.6-31.5c-.964-.88-4.109-4.895-4.11-19.578a62.378,62.378,0,0,1,1.3-13.484c.047.039.1.072.141.115,2.077,1.9,4.3,8.115,4.3,19.874a61.839,61.839,0,0,1-1.27,13.354A2.674,2.674,0,0,1,593.13,262.817Zm-85.7,7.715c-.964-.88-4.108-4.9-4.11-19.578a62.356,62.356,0,0,1,1.3-13.483c.047.038.094.071.141.114,2.076,1.9,4.3,8.115,4.3,19.874a61.779,61.779,0,0,1-1.27,13.354A2.584,2.584,0,0,1,507.428,270.532ZM373.4,282.6c-.964-.881-4.108-4.895-4.11-19.578a62.374,62.374,0,0,1,1.3-13.484c.046.039.094.072.14.114,2.077,1.9,4.3,8.115,4.3,19.875a61.843,61.843,0,0,1-1.27,13.354A2.648,2.648,0,0,1,373.4,282.6Zm-82.215,7.568a2.469,2.469,0,0,1,.4.482c-2.489-.044-3.746-.724-4.406-1.518A6.073,6.073,0,0,1,291.186,290.166Z"/>
      </g>
      <g id="Grupo_53931" data-name="Grupo 53931" transform="translate(0 0)">
        <g id="Grupo_53930" data-name="Grupo 53930">
          <path id="Caminho_97708" data-name="Caminho 97708" d="M606.508,20.859l1.443.531-.52.773-.3.428-.358.554h-.011l-4.087,6.072-1.9,2.851h-.011l-.012.012-.993,1.478-.681,1L592.02,45.056v.011l-1.109,1.64-.011.011-1.639,2.436-.647.981-4.525,6.7-.012.023-3.394,5.057v.011l-.023.023-.011.023-3.741,5.565-.011.011L537.75,125.739c-.07-.762-.162-1.524-.266-2.262l39.7-59.05.012-.023v-.011l3.728-5.519.012-.011.023-.035,3.383-5.022.011-.011,3.3-4.929.669-.982,1.074-1.6,1.12-1.64v-.011l6.592-9.813,1.939-2.886.012-.012.011-.023,6.223-9.258.369-.531.3-.451Z" fill="#fff"/>
          <path id="Caminho_97709" data-name="Caminho 97709" d="M610.895,17l-.531.8-.011.012-1.3,1.928-.808,1.2-.15-2.459.854-1.258.623-.923.092-.139.612.4.012.012Z" fill="#fff"/>
          <path id="Caminho_97710" data-name="Caminho 97710" d="M584.41,6.07l-1.994,3.141-55.932,88.4c-.313-.4-.655-.8-.983-1.206L582.728,5.921l.417-.655Z" fill="#fff"/>
          <path id="Caminho_97711" data-name="Caminho 97711" d="M576.58,134.444l-1.221,1.429-1.266-1.087-.059-.044-1.325-1.132-.089-.074-1.817-1.549-7.086-6.044-.595-.506-1.445.566L550.452,130.4l-.848.327-1.891.744-8.962,3.514-.759.3c.029-.432.044-.879.059-1.31,0-.254.015-.492.015-.745l25.413-9.959.238.208h.015l2.828,2.427h.015l4.437,3.8,3.245,2.754.045.06.268.223.089.074Z" fill="#e4e4e4"/>
          <path id="Caminho_97712" data-name="Caminho 97712" d="M586.952,127.621l-.139-.023-8.589-1.536h-.011l-3.268-.577h-.011l-.046-.023h-.012l-3.394-.6h-.011l-7.735-1.385h-.023l-.254-.047-1.051.589L561.681,126,556.44,140.32v.023l-.058.15-.554,1.5-1.328.092-.242-.716-.035-.1-3.775-10.874-.288-.843h-1.79l-.658,1.916-5.021,14.615-.058.173-.012-.046a.229.229,0,0,0-.034-.08c-.681-2.055-1.663-4.964-2.482-7.354-.451-1.316-.82-2.332-1.085-3.048-.1-.312-.208-.554-.266-.75-.046-.07-.058-.127-.092-.185a1.5,1.5,0,0,0-.612-.82c-.012.427-.023.878-.058,1.3-.069,1.27-.185,2.528-.312,3.786.093-.311.162-.611.22-.877.646,1.824,1.593,4.606,2.921,8.6a.229.229,0,0,0,.034.08l.012.035c.011.035.011.069.023.081.508,1.5.842,2.528.842,2.528h1.778l1.443-4.225.07-.185,4.236-12.352,3.221,9.247.023.115.45,1.27.959.623,2.643-.161.832-.612,1.373-3.752.058-.15,4.9-13.38.2-.519,2.655.473h.012l4.722.843,3.405.612h.069l3.279.6h.011l5.519.993h.011l.162.011h.011l4.953.9.323-1.859Z" fill="#e4e4e4"/>
          <path id="Caminho_97713" data-name="Caminho 97713" d="M613.457,114.218v-.012l-.011-.011-.635-.808-.012-.012L597.722,93.969l13.9-9.836.023-.011,1.4-.993-.485-.681-.173-.243-.739.52-.069.046-14.558,10.3L583.754,76.006l-1.155-1.5-.011-.012-.22-.266.255-.2.011-.011.231-.162.012-.012L598.1,62.88l13.323,17.848.081.081v.011l1.085,1.478.669.889-1.154-30.4v-.024l-.046-1.339-.393.277-.82-1.246v-.012l-.611-.923L599.754,33.558l-.312-.5,1.3-.981.012-.012h.011l8.508-6.4h.012l2.632-1.974-1.235-.416-1.5-.519-.023-.012-1.732-.589-1.466-.508L587.621,15.41l-1.085-.381-.358-.116.312.5.011.012.185.265.011.012.774,1.166.012.011L597.919,32.8l-12.6,9.455-.866.646h-.012l-.692.531-.1.069.058.07.011.011,1,1.362.335.416.012.012v.023l2.586,3.475.958,1.269,8.808,11.833L582.761,72.543l-1.328.97h-.011l-.67.473,1.236,1.593v.012l.461.588,13.646,17.548-16.1,11.417-3.232,2.3,2.505.531h.012l.473.1,33.132,7.089,1.57.346Zm-2.043-35.4L599.027,62.211l11.394-8.22h.012l.565-.4.993,26.009-.565-.761ZM588.937,17.038l16.359,5.6,1.466.508h.011l2.436.831h.023l.289.1-.289.231-6.557,4.906-3.6,2.678-.011.023-.012.012-.231.173Zm.324,32.116-.936-1.27-1.812-2.436-1.282-1.708.589-.45,11.291-8.474,1.431-1.074.531.82,10.113,15.412.012.011,1.131,1.732.011.012.416.646-.012.012h-.011l-.358.265-12.029,8.67ZM579.875,106.6,596.8,94.616l14.858,19.129-31.817-6.811-.323-.081Z" fill="#fff"/>
          <rect id="Ret창ngulo_122" data-name="Ret창ngulo 122" width="1.885" height="33.367" transform="translate(580.004 75.103) rotate(-76.456)" fill="#fff"/>
          <rect id="Ret창ngulo_123" data-name="Ret창ngulo 123" width="1.885" height="29.9" transform="matrix(0.275, -0.961, 0.961, 0.275, 583.425, 44.567)" fill="#fff"/>
          <path id="Caminho_97714" data-name="Caminho 97714" d="M619.6,167.853l2.43-.148-1.447-28-.937-18.111-.39-7.541V114l-5.043-97.535-.075-1.446-2.479-.508.12,2.308L616.863,115l0,.053.388,7.484.928,17.895Z" fill="#fff"/>
          <path id="Caminho_97715" data-name="Caminho 97715" d="M615,168.133l4.6-.28-1.419-27.418-.928-17.895-.388-7.484,0-.053-5.084-98.182-.12-2.308-2.813.171.053,1.34.292,7.266,0,.077.067,1.622,1.027,25.635.027.659.083,2.041L611.46,79.83l.076,1.9.068,1.705,1.23,30.643.011.281.01.22.083,2.069,0,.057.3,7.424.084,2.091.621,15.5Z" fill="#e4e4e4"/>
          <path id="Caminho_97716" data-name="Caminho 97716" d="M587.554,15.98l-9.739,114.842-3.377.206L585.825,5l2.838,1.381Z" fill="#fff"/>
          <path id="Caminho_97717" data-name="Caminho 97717" d="M614.935,128.071l-.092-4.571-.162-7.516v-.058l-.034-1.466-1.19-.242v-.012l-.623-.126-33.005-6.9-.5-.1-.069.9-1.016,13.783c.1-.069.22-.138.358-.219a28.083,28.083,0,0,1,17.894-3.925,26.908,26.908,0,0,1,8.323,2.436h.012l.069.035h.012a28.944,28.944,0,0,1,6.846,4.629h.011c.589.542,1.108,1.05,1.547,1.5v.011A24.223,24.223,0,0,1,614.935,128.071Zm-6.222-9.662-.231-3.579,3.313.7.1,1.547-3.175,1.328Zm-26.021-5.022-.243-3.579,3.325.7.243,3.591Zm4.352.831-.243-3.579,3.325.7.231,3.579Zm4.456.82-.242-3.579,3.324.7.231,3.579Zm4.214.819-.243-3.578,3.325.7.243,3.578Zm4.294.82-.231-3.579,3.325.705.231,3.578Zm4.364.912-.242-3.579,3.324.7.243,3.579Z" fill="#fff"/>
          <g id="Grupo_53923" data-name="Grupo 53923">
            <path id="Caminho_97718" data-name="Caminho 97718" d="M612.038,119.124l-3.2-.681h-.012l-.116-.023v-.012h.012l3.175-1.328v.069Z" fill="#e4e4e4"/>
          </g>
          <path id="Caminho_97719" data-name="Caminho 97719" d="M659.635,127.817,620.592,139.7h-.012l-2.4.728-4.237,1.3-38.4,11.683h-.012l-3.232.981-.023.012h-.012l-3.648,1.12-40.405,12.294-.138-2.112v-.093a63.215,63.215,0,0,0,5.2-9.8v-.023a61.056,61.056,0,0,0,2.343-6.58l-.67.289c.012-.058.024-.127.035-.185l.67-.277,5.206-2.171.877-.381.855-.357.1-.047,1.166-.484,1.166-.5,7.457-3.1.878-.37.865-.358,2.217-.923v-.023l1.189-.485,1.189-.508,11.752-4.93,2.055-.865.958-.393.624-.254h.011l.058-.034.289-.116,3.186-1.339,5.83-2.447h.011l1.628-.682,1.593-.669,18.009-7.55h.012l3.879-1.628v-.011h.011l3.175-1.328h.011l1.028-.427,1.743-.728,2.182-.923,2.39-1h.011l38.547-16.151Z" fill="#fff"/>
          <path id="Caminho_97720" data-name="Caminho 97720" d="M659.636,127.819l-39.05,11.88-2.412.744-4.228,1.28-38.41,11.687-3.23.983-.03.015-3.662,1.117-40.4,12.3-.372-1.816v-.015l-.044-.179.193-.06v-.015l.089-.03,40.881-13.786,3.662-1.236.03-.015,3.275-1.117L613.753,136.8l4.169-1.414,2.4-.8,38.915-13.146Z" fill="#f1ead9"/>
          <path id="Caminho_97721" data-name="Caminho 97721" d="M567.188,171.046l3.609-.22,1.474-16.417,1.309-14.574.559-6.231.055-.61.01-.112.588-6.475L585.826,5l-3.026.184-.875,9.239L571.386,125.8l-.478,5.048-.284,3h0l-.051.555-.012.118-.044.484v0l-.579,6.27-1.314,14.242Z" fill="#e4e4e4"/>
          <path id="Caminho_97722" data-name="Caminho 97722" d="M570.807,170.826l3-.183,1.735-17.228,1.5-14.953.7-6.961.01-.108.058-.57-3.376.206-.167,1.825-.01.112-.062.688-.563,6.16L572.305,154.4Z" fill="#fff"/>
          <path id="Caminho_97723" data-name="Caminho 97723" d="M658.311,106.277,619.649,121.6l-2.4.938-2.412.968h-.015l-1.593.625-1.459.581h-.014l-34.718,13.755-3.409,1.355-.045.015-3.647,1.444-36.668,14.515a62.933,62.933,0,0,0,2.338-6.58l5.285-2.233.863-.357.878-.372,1.162-.477,1.161-.491,7.548-3.171.878-.372.878-.372,2.114-.879,1.192-.506,1.19-.506,11.806-4.958,2.144-.908.968-.4L574.2,133l.059-.03.4-.164,3.082-1.31,6.014-2.531h.015l3.186-1.34,17.939-7.533.015-.014,3.916-1.638h.015l3.067-1.3,1.027-.432,1.741-.729,2.189-.923,2.4-1.013,38.543-16.2Z" fill="#e4e4e4"/>
          <path id="Caminho_97724" data-name="Caminho 97724" d="M610.687,23.283l-.335-5.472-.069-1.224-.716-.288-.67-.277-13.83-5.634-.046-.011h-.011l-6.5-2.656-1.212.07-.1.011-.1,1.166-.554,6.061-.035.393-.023.2.208.069.011.012.855.277,18.113,6.13,1.466.485,2.055.692V23.3l1.039.346.485-.035Zm-2.656-5.807.058,1.005.15,2.459.035.577-.323-.127-1.443-.531-.993-.37-.254-4.04Zm-17.743-6.6,2.771,1.028.242,4.04-2.759-1.028Zm13.992,5.183.254,4.029-2.771-1.015-.242-4.041Zm-3.729-1.4.242,4.029-2.759-1.016-.254-4.041Zm-3.717-1.351.253,4.04-2.77-1.027-.243-4.041Z" fill="#fff"/>
          <path id="Caminho_97725" data-name="Caminho 97725" d="M578.251,71.341" fill="#e4e4e4" stroke="#fff" stroke-width="1"/>
          <path id="Caminho_97726" data-name="Caminho 97726" d="M658.311,20v1.518L595.025,10.372h-.015L588.341,9.2l-1.251-.223L587.3,7.8l.06-.3,1.161.208Z" fill="#fff"/>
          <path id="Caminho_97727" data-name="Caminho 97727" d="M658.311,24.4v1.5l-44.022-8.054-1.4-.253.268-1.459,1.057.194Z" fill="#fff"/>
          <g id="Grupo_53925" data-name="Grupo 53925">
            <g id="Grupo_53924" data-name="Grupo 53924">
              <path id="Caminho_97728" data-name="Caminho 97728" d="M150.18,188.1l-33.172,2.986-5.922,18.172-25.142,2.264,35-98.377,27.249-2.453L182.827,202.8l-26.853,2.417Zm-26.463-17.38,20.009-1.8-9.878-29.35Z" fill="#fff"/>
              <path id="Caminho_97729" data-name="Caminho 97729" d="M189.541,202.2l-.008-51.591-13.164,1.185,0-19.762,13.163-1.184v-2.52c0-14.721,7.894-23.656,23.691-25.077a30.611,30.611,0,0,1,12.769,1.237l0,17.9a19.226,19.226,0,0,0-7.107-.685c-3.817.343-6.847,1.809-6.846,5.125v1.989l17.377-1.564,0,19.762-17.376,1.563.008,51.591Z" fill="#fff"/>
              <path id="Caminho_97730" data-name="Caminho 97730" d="M254.961,196.311l-22.509,2.026-.011-71.353,20.667-1.86,0,12.6c5.4-8.84,16.584-14.623,27.905-15.642l0,23.607c-15.929-.157-26.065,1.95-26.063,17.732Z" fill="#fff"/>
              <path id="Caminho_97731" data-name="Caminho 97731" d="M280.487,118.282l18.557-23.156,28.565-2.572,18.432,19.827L321.426,114.6l-8.164-9.078-8.028,10.536Zm45.03,64.781c-5,6.152-11.188,9.229-20.27,10.046-14.743,1.328-24.618-6.669-24.62-20.2,0-13.925,11.186-22.493,31.457-24.317a61.006,61.006,0,0,1,10.4-.141v-3.448c0-6.234-3.557-9.361-9.874-8.792-6.188.557-9.873,4.336-10.661,10.641l-20.271,1.825c1.312-16.7,13.553-28.674,31.06-30.25,19.482-1.754,30.935,7.825,30.939,25.862l.006,44.032-18.165,1.635Zm-15.008-6.076c7.5-.676,11.979-4.66,11.979-10.5l0-4.509a43.982,43.982,0,0,0-8.951-.123c-7.634.688-11.716,3.575-11.714,8.483C301.822,174.983,304.981,177.484,310.509,176.987Z" fill="#fff"/>
              <path id="Caminho_97732" data-name="Caminho 97732" d="M374.619,185.539l-22.51,2.026-.011-71.353,20.667-1.86v8.621c5.528-6.731,12.108-11.037,21.06-11.843,13.953-1.256,23.827,7.271,23.83,24.645l.007,45.889-22.509,2.026-.006-38.329c0-9.019-3.161-13.641-10.006-13.024-5.529.5-10.531,4.927-10.529,15.669Z" fill="#fff"/>
              <path id="Caminho_97733" data-name="Caminho 97733" d="M437.133,104.844c-8.557.77-14.48-4.135-14.481-11.562,0-7.559,5.921-13.531,14.477-14.3s14.481,4.136,14.483,11.695C451.613,98.1,445.689,104.074,437.133,104.844ZM426.087,180.9l-.011-71.352,22.509-2.026.011,71.353Z" fill="#fff"/>
              <path id="Caminho_97734" data-name="Caminho 97734" d="M453.2,142.789a40.942,40.942,0,0,1,36.983-40.333c20.93-1.884,36.992,13.248,36.995,33.672a40.941,40.941,0,0,1-36.983,40.332C469.262,178.344,453.2,163.212,453.2,142.789Zm50.547-4.55c0-11.141-6.584-15.987-13.56-15.359s-13.558,6.659-13.556,17.8,6.584,16.117,13.56,15.489S503.746,149.378,503.744,138.239Z" fill="#fff"/>
            </g>
          </g>
          <g id="Grupo_53927" data-name="Grupo 53927">
            <g id="Grupo_53926" data-name="Grupo 53926">
              <path id="Caminho_97735" data-name="Caminho 97735" d="M254.254,290.839l25.257-2.273c1.315,6.794,6.863,9.679,14.6,8.982,10.513-.946,13.139-7.95,13.139-13.245,0-5.442-3.213-12.066-14.163-11.081-7.007.631-12.264,3.9-14.452,10.422l-20.879-5.183,8.751-56.684,60.734-5.467,0,22.652-42.486,3.824-2.04,12.983a36.012,36.012,0,0,1,14.743-4.565c25.112-2.261,35.774,14.138,35.776,30.907,0,16.181-12.259,35.672-38.976,38.077C271.925,322.2,254.988,309.9,254.254,290.839Z" fill="#fff"/>
              <path id="Caminho_97736" data-name="Caminho 97736" d="M376.152,210.436c25.256-2.274,39.713,14.811,39.719,47.761.005,32.8-14.155,52.318-39.7,54.618s-39.713-14.666-39.718-47.468C336.444,232.4,350.895,212.709,376.152,210.436Zm.012,79.726c8.906-.8,13.867-11.252,13.865-29.638,0-18.535-4.967-28.238-13.873-27.436s-13.868,11.545-13.865,29.933S366.966,290.99,376.164,290.162Z" fill="#fff"/>
              <path id="Caminho_97737" data-name="Caminho 97737" d="M435.59,305.994l-.012-77.52-18.248,1.643,0-21.917,43.506-3.917.015,99.437Z" fill="#fff"/>
              <path id="Caminho_97738" data-name="Caminho 97738" d="M510.179,198.37c25.258-2.274,39.713,14.812,39.719,47.762.005,32.8-14.153,52.317-39.7,54.617s-39.712-14.665-39.717-47.468C470.472,220.331,484.922,200.643,510.179,198.37Zm.013,79.726c8.9-.8,13.867-11.252,13.864-29.638,0-18.534-4.967-28.237-13.873-27.436s-13.868,11.546-13.865,29.933S500.993,278.924,510.192,278.1Z" fill="#fff"/>
              <path id="Caminho_97739" data-name="Caminho 97739" d="M595.881,190.655c25.257-2.274,39.714,14.811,39.72,47.762.005,32.8-14.155,52.317-39.705,54.617s-39.712-14.665-39.717-47.467C556.173,212.617,570.624,192.928,595.881,190.655Zm.012,79.726c8.906-.8,13.868-11.252,13.866-29.638,0-18.534-4.969-28.237-13.875-27.436s-13.868,11.545-13.864,29.933S586.7,271.209,595.893,270.381Z" fill="#fff"/>
            </g>
          </g>
          <g id="Grupo_53929" data-name="Grupo 53929">
            <g id="Grupo_53928" data-name="Grupo 53928">
              <path id="Caminho_97740" data-name="Caminho 97740" d="M62.128,266.055l-6.2.557-9.637-26.136,6.122-.551,6.8,19.734,6.94-20.971,5.675-.511Z" fill="#fff"/>
              <path id="Caminho_97741" data-name="Caminho 97741" d="M91.321,263.427,73.29,265.049l0-27,17.769-1.6v4.964l-12.1,1.089v5.679l10.976-.987v4.926l-10.976.988v6.469l12.357-1.113Z" fill="#fff"/>
              <path id="Caminho_97742" data-name="Caminho 97742" d="M94.12,263.175l0-27,10.49-.945c6.758-.609,10.678,2.2,10.679,7.8,0,3.649-2.239,6.747-6.047,8.368l6.908,9.8-6.757.608-6.05-9.007-3.547.319,0,9.552Zm5.672-14.764,4.555-.411c3.435-.309,5.264-1.827,5.264-4.46,0-2.671-1.83-3.86-5.265-3.551l-4.555.41Z" fill="#fff"/>
              <path id="Caminho_97743" data-name="Caminho 97743" d="M136.12,259.393l-18.032,1.624,0-27,17.77-1.6v4.964l-12.1,1.089v5.68l10.976-.989,0,4.928-10.977.987,0,6.469,12.357-1.112Z" fill="#fff"/>
              <path id="Caminho_97744" data-name="Caminho 97744" d="M154.823,251.919l-10.417.938-2.053,5.975-5.712.515,10.077-27.911,6.2-.557,10.009,26.1-6.084.548Zm-8.812-3.759,7.244-.651-3.586-10.1Z" fill="#fff"/>
              <path id="Caminho_97745" data-name="Caminho 97745" d="M164.565,256.833l0-27,9.521-.858c8.512-.765,13.665,4.261,13.667,12.122a14.483,14.483,0,0,1-13.664,14.882Zm5.675-5.437,3.547-.32c5.339-.481,8.138-3.855,8.138-9.458,0-5.379-2.8-8.172-8.142-7.692l-3.547.32Z" fill="#fff"/>
              <path id="Caminho_97746" data-name="Caminho 97746" d="M188.532,241.137a15.117,15.117,0,0,1,13.7-15.262c7.766-.7,13.776,4.7,13.778,12.788a15.234,15.234,0,0,1-13.773,15.343C194.507,254.7,188.533,249.222,188.532,241.137Zm21.616-1.946c0-4.965-2.989-8.646-7.917-8.2-4.891.44-7.877,4.658-7.875,9.623s2.987,8.72,7.879,8.28C207.163,248.448,210.148,244.155,210.148,239.191Z" fill="#fff"/>
              <path id="Caminho_97747" data-name="Caminho 97747" d="M218.324,251.993l0-27,10.49-.944c6.758-.608,10.678,2.2,10.679,7.8,0,3.648-2.239,6.745-6.046,8.366l6.907,9.8-6.757.609-6.05-9.008L224,241.93v9.553ZM224,237.229l4.553-.41c3.435-.309,5.264-1.828,5.264-4.46,0-2.671-1.83-3.86-5.265-3.551l-4.554.41Z" fill="#fff"/>
              <path id="Caminho_97748" data-name="Caminho 97748" d="M18.189,288.82l0,18.842-5.188.468-.005-27,6.122-.551,11.689,16.849,0-17.9,5.227-.471,0,27-5.564.5Z" fill="#fff"/>
              <path id="Caminho_97749" data-name="Caminho 97749" d="M57.989,304.08,39.957,305.7l-.005-27,17.772-1.6v4.964l-12.1,1.089v5.68l10.976-.988v4.927l-10.976.987v6.469l12.357-1.111Z" fill="#fff"/>
              <path id="Caminho_97750" data-name="Caminho 97750" d="M59.219,290.43c0-7.9,5.9-14.559,13.438-15.238,7.056-.635,12.583,3.606,13.518,10.442l-6.011.541a6.7,6.7,0,0,0-7.43-5.876c-4.593.414-7.692,4.341-7.691,9.607,0,5.3,3.1,8.71,7.693,8.3a8.434,8.434,0,0,0,7.428-7.25l6.011-.541a14.769,14.769,0,0,1-13.513,12.912C65.12,304,59.22,298.365,59.219,290.43Z" fill="#fff"/>
              <path id="Caminho_97751" data-name="Caminho 97751" d="M106.559,299.707l-18.033,1.624,0-27,17.772-1.6v4.964l-12.1,1.089v5.68l10.977-.989V288.4l-10.977.988v6.469l12.359-1.113Z" fill="#fff"/>
              <path id="Caminho_97752" data-name="Caminho 97752" d="M119.1,298.955c-6.759.608-10.977-2.66-11.388-8.34l5.749-.517c.15,2.958,2.054,4.7,5.526,4.392,2.874-.26,4.928-1.723,4.928-3.9,0-1.693-1.308-2.591-3.585-2.837l-4.406-.469c-4.07-.423-7.206-2.359-7.207-6.835,0-4.814,4.217-8.653,10-9.174,6.012-.542,10.417,2.6,10.793,8.2l-5.751.518A4.3,4.3,0,0,0,118.8,275.7c-2.763.248-4.33,1.968-4.33,3.849,0,1.843,1.679,2.481,3.621,2.683l4.593.527c4.7.517,7.242,2.47,7.243,6.456C129.927,294.369,125.822,298.35,119.1,298.955Z" fill="#fff"/>
              <path id="Caminho_97753" data-name="Caminho 97753" d="M142.248,296.871c-6.758.609-10.978-2.66-11.387-8.339l5.748-.519c.15,2.959,2.054,4.706,5.525,4.392,2.875-.258,4.929-1.721,4.929-3.9,0-1.692-1.309-2.59-3.585-2.836l-4.407-.469c-4.068-.423-7.205-2.36-7.206-6.835,0-4.814,4.218-8.654,10-9.175,6.013-.541,10.417,2.6,10.793,8.2l-5.751.517a4.305,4.305,0,0,0-4.965-4.291c-2.763.249-4.33,1.969-4.33,3.85,0,1.843,1.68,2.481,3.621,2.683l4.593.526c4.7.518,7.242,2.47,7.243,6.457C153.073,292.286,148.968,296.267,142.248,296.871Z" fill="#fff"/>
              <path id="Caminho_97754" data-name="Caminho 97754" d="M170.807,288.133l-10.417.937-2.053,5.977-5.711.514L162.7,267.65l6.2-.558,10.01,26.1-6.084.548Zm-8.813-3.759,7.244-.652-3.585-10.094Zm1.193-18.347,3.732-6.09,6.011-.541-4.367,6.147Z" fill="#fff"/>
              <path id="Caminho_97755" data-name="Caminho 97755" d="M180.55,293.047l-.005-27,10.492-.945c6.757-.608,10.677,2.2,10.678,7.8,0,3.648-2.239,6.744-6.047,8.365l6.91,9.8-6.758.608-6.052-9.007-3.546.319,0,9.552Zm5.672-14.764,4.555-.411c3.435-.309,5.264-1.827,5.263-4.46,0-2.67-1.829-3.86-5.264-3.551l-4.556.41Z" fill="#fff"/>
              <path id="Caminho_97756" data-name="Caminho 97756" d="M204.518,290.889l-.005-27,5.674-.511.005,27Z" fill="#fff"/>
              <path id="Caminho_97757" data-name="Caminho 97757" d="M212.5,276.631a15.117,15.117,0,0,1,13.7-15.261c7.765-.7,13.777,4.7,13.778,12.788A15.234,15.234,0,0,1,226.208,289.5C218.479,290.2,212.505,284.717,212.5,276.631Zm21.616-1.946c0-4.965-2.987-8.645-7.915-8.2-4.892.441-7.878,4.659-7.877,9.624s2.988,8.72,7.879,8.279C231.135,283.943,234.122,279.649,234.12,274.685Z" fill="#fff"/>
            </g>
          </g>
        </g>
      </g>
    </g>
  </g>
</svg>
