<svg xmlns="http://www.w3.org/2000/svg" width="154.213" height="70.488" viewBox="0 0 154.213 70.488">
  <g id="Arte_2" data-name="Arte 2" transform="translate(77.107 35.244)">
    <g id="Grupo_56152" data-name="Grupo 56152" transform="translate(-77.107 -35.244)">
      <path id="Caminho_108356" data-name="Caminho 108356" d="M95.9,35.487c-.1-1.994-.193-3.987-.252-5.976-.021-.707-.315-.976-1.035-.955-1.733.05-3.478-.008-5.207.084-1.115.055-1.527.278-1.367-.812.61-4.235,1.22-9.051,1.8-13.294.324-2.38.652-4.761,1-7.314-2.54-.185-4.782-.341-7.032-.526-.681-.055-.951.236-.976.858-.013.379-.046.761-.063,1.144-.156,3.108-.3,6.216-.458,9.324-.055-.374-.118-.749-.2-1.127-.959-4.458-4.509-6.826-9.673-6.881a24.224,24.224,0,0,0-2.713.311A40.645,40.645,0,0,0,64.961,11.6c-6.187,2.216-9.989,5.762-9.871,12.138a8.073,8.073,0,0,0-4.281-4.08,55.986,55.986,0,0,1-5.741-3.1A8.633,8.633,0,0,1,43.243,15a2.376,2.376,0,0,1,.812-3.747c2.431-.9,2.973-.08,3.726,2.3.257.808.66,1.136.988,1.161a43.628,43.628,0,0,0,4.572.1.978.978,0,0,0,.875-.77A6.339,6.339,0,0,0,50.35,6.875a13.161,13.161,0,0,0-10.136-.248,6.249,6.249,0,0,0-3.125,2.662,6.682,6.682,0,0,0-.362.883,7.643,7.643,0,0,0-5.434-4.26c-3.886-.959-7.751-.433-11.625.147-1.081.16-1.308.669-1.308,1.623.029,6.914-.126,25.155-.172,27.363-.021.925.282.984,1.388,1.165a12.177,12.177,0,0,0,3.276-.025c1.468-.172,1.83-.214,1.8-1.354-.042-2.536.038-5.076.017-7.617a1.2,1.2,0,0,1,1.123-1.22c.854-.055,1.716-.059,2.561-.193,3.718-.606,6.763-2.12,8.189-5.72a12.654,12.654,0,0,0,.69-2.549,8.642,8.642,0,0,0,3.323,3.306c2.465,1.5,4.513,2.709,6.771,4.042a2.3,2.3,0,0,1,1.287,2.368c-.126,3.154.5,2.78-2.944,2.864-2.784.063-2.759.379-3.133-2.326a1.3,1.3,0,0,0-1.194-1.178c-1.611-.126-2.919-.244-4.71-.24a1.308,1.308,0,0,0-1.11,1.476c.118.866.214,1.6.341,2.334a8.2,8.2,0,0,0,7.074,7.158,14.959,14.959,0,0,0,4.542.059c5.573-.879,8.584-3.129,8.605-8.327A9.812,9.812,0,0,0,63.392,35.2a21.415,21.415,0,0,0,5.547.24A14.2,14.2,0,0,0,81.986,24.585q-.233,4.706-.463,9.408c-.013.269-.017.538-.017.816a1.667,1.667,0,0,0,1.661,1.657c4.05,0,7.987-.008,11.923,0,.753,0,.837-.412.812-.984M29.452,19.181a12.647,12.647,0,0,1-2.8.13c-3.7,0-3.091-.025-3.1-3.7,0-3.087.387-3.377,2.658-3.377,1.085,0,1.506-.067,2.591-.021.946.042,1.771.643,1.762,1.422-.021,1.569.063,2.258.084,3.827a1.672,1.672,0,0,1-1.2,1.72M71,27.832c-1.695-.038-3.39-.034-5.085,0-.871.013-1.14-.357-1.119-1.1.029-1.367.008-2.734.008-4.1s-.013-1.846-.013-3.213c0-.967.5-1.838,2.1-2a41,41,0,0,1,4.1-.193c.862-.017,1.1.643,1.1,1.741,0,2.734.017,5.017.029,7.751,0,.723-.236,1.131-1.119,1.115" transform="translate(58.306 17.256)" fill="#fff" fill-rule="evenodd"/>
      <path id="Caminho_108357" data-name="Caminho 108357" d="M11.386,9.471A20.136,20.136,0,0,0,4.4,14.2l-.118-.1c.429-.673.82-1.375,1.3-2a18.041,18.041,0,0,1,7.739-5.627c1.165-.488,2.389-.824,3.566-1.283a22.161,22.161,0,0,0,2.048-.967,7.118,7.118,0,0,1,1.384-.614c-.177.437-.353.871-.58,1.434.336,0,.576,0,.812,0a29.616,29.616,0,0,1,7.865.7,20.356,20.356,0,0,1,12.9,8.962,21,21,0,0,1,3.344,12.807A21.282,21.282,0,0,1,41.21,37.4c-2.574,4.138-6.38,6.54-10.628,8.277C20.757,49.7,9.784,43.9,5.831,35.458A21.557,21.557,0,0,1,4,24.039a25.578,25.578,0,0,1,1.64-7.251A16.171,16.171,0,0,1,10.831,9.9c.185-.143.37-.29.555-.433m-5,16.411a19.49,19.49,0,0,0,.686,5.472c1.594,5.56,4.828,9.56,10.161,11.486a19.736,19.736,0,0,0,13.151.017,16.139,16.139,0,0,0,8.984-6.948,19.183,19.183,0,0,0,2.65-8.857c.408-5.711-1.3-10.628-5.421-14.451-4.164-3.861-8.984-6.061-14.657-5.644A12.317,12.317,0,0,0,15.374,8.92c-5.711,4.1-8.984,9.568-8.992,16.962" transform="translate(12.44 11.581)" fill="#fff" fill-rule="evenodd"/>
      <path id="Caminho_108358" data-name="Caminho 108358" d="M23.656,12.655c-2.33-.214-4.664-.391-6.99-.677a6.669,6.669,0,0,1-2.128-.749,1.581,1.581,0,0,1-.673-.963c-.156-.719.151-1.018.866-1.043q6.567-.252,13.135-.5c.631-.025.7.013.534.669-.215.858-.5,1.7-.757,2.544a.721.721,0,0,1-.829.564c-1.047-.034-2.094-.008-3.142-.008l-.017.164" transform="translate(44.322 27.946)" fill="#fff" fill-rule="evenodd"/>
      <path id="Caminho_108359" data-name="Caminho 108359" d="M14.21,13.041a1.59,1.59,0,0,1-.4.517Q8.36,16.984,2.888,20.376c-.294.181-.509.2-.681-.206-.311-.719-.652-1.426-1.014-2.12-.185-.357-.076-.547.214-.74A44.493,44.493,0,0,1,12.637,11.7c.808-.244,1.552.311,1.573,1.346" transform="translate(3.534 37.312)" fill="#fff" fill-rule="evenodd"/>
      <path id="Caminho_108360" data-name="Caminho 108360" d="M.164,12.863A3.919,3.919,0,0,1,1.3,8.855a.834.834,0,0,1,.479-.172A46.15,46.15,0,0,1,11.844,9.3a7.151,7.151,0,0,1,1.88.753,1.513,1.513,0,0,1,.593.841c.156.543-.181.875-.778.887-2.246.042-4.492.05-6.733.139a21.542,21.542,0,0,0-6.473.951.466.466,0,0,1-.168-.008" transform="translate(0 27.787)" fill="#fff" fill-rule="evenodd"/>
      <path id="Caminho_108361" data-name="Caminho 108361" d="M11.017,20.061c0,1.089,0,2.183,0,3.272a1.441,1.441,0,0,1-1.009,1.173,1.151,1.151,0,0,1-1.476-.85c-.046-.631-.067-1.262-.1-1.888-.088-1.577-.181-3.159-.273-4.736a2.575,2.575,0,0,1,1.413-2.418,1.678,1.678,0,0,1,1.047-.265,1.284,1.284,0,0,1,.631.778c.088.257-.063.551-.088.829-.118,1.367-.227,2.734-.336,4.1l.189,0" transform="translate(26.146 45.929)" fill="#fff" fill-rule="evenodd"/>
      <path id="Caminho_108362" data-name="Caminho 108362" d="M14.625,12.05a3.815,3.815,0,0,1-.963-.349,1.045,1.045,0,0,1-.017-1.737,52.618,52.618,0,0,1,8.382-5.072,1.819,1.819,0,0,1,.492-.177,1.323,1.323,0,0,1,1.4.627,1.818,1.818,0,0,1-.669,1.922c-1.565,1.089-3.125,2.187-4.736,3.192a23.876,23.876,0,0,1-2.843,1.367,5.51,5.51,0,0,1-1.047.227" transform="translate(42.284 15.058)" fill="#fff" fill-rule="evenodd"/>
      <path id="Caminho_108363" data-name="Caminho 108363" d="M11.105,7.656a26.789,26.789,0,0,1-.816,6.527c-.2.761-.362.879-.988.774a1.02,1.02,0,0,1-.929-1.115c.029-1.072.13-2.145.109-3.217-.05-2.9-.151-5.8-.231-8.689A5.281,5.281,0,0,1,8.237.906a1.019,1.019,0,0,1,.9-.9c.488-.063.643.374.732.723.357,1.384.719,2.772.972,4.185a27.138,27.138,0,0,1,.265,2.742" transform="translate(26.327 0)" fill="#fff" fill-rule="evenodd"/>
      <path id="Caminho_108364" data-name="Caminho 108364" d="M11.2,15.246c-.214.614-.4,1.249-.648,1.851a19.7,19.7,0,0,1-3.987,6.124c-.551.572-.934.673-1.342.336a1.531,1.531,0,0,1-.257-1.687c.24-.488.551-.934.8-1.417q1.6-3.009,3.167-6.027c.374-.723.757-.972,1.325-.824.488.122.753.551.816,1.325.008.093.017.185.021.278l.1.042" transform="translate(15.452 43.476)" fill="#fff" fill-rule="evenodd"/>
      <path id="Caminho_108365" data-name="Caminho 108365" d="M18.569,1.337a3.142,3.142,0,0,1-.1,2.952q-2.126,3.527-4.265,7.036a21.552,21.552,0,0,1-1.245,1.909,2.155,2.155,0,0,1-.908.7c-.7.269-1.014-.05-.808-.812a17.98,17.98,0,0,1,.6-1.775,23.2,23.2,0,0,1,6.225-9.614c.147-.126.3-.24.5-.4" transform="translate(35.854 4.288)" fill="#fff" fill-rule="evenodd"/>
      <path id="Caminho_108366" data-name="Caminho 108366" d="M17.425,22.839c.013.669-.214.85-.728.744A2.78,2.78,0,0,1,14.9,22.2c-.972-1.594-1.88-3.23-2.767-4.874a21.944,21.944,0,0,1-.988-2.225,3.043,3.043,0,0,1-.223-.921c-.021-.324.177-.492.513-.4a2.729,2.729,0,0,1,1.813,1.27c1.3,2.33,2.6,4.652,3.89,6.99a4.291,4.291,0,0,1,.286.8" transform="translate(35.013 44.081)" fill="#fff" fill-rule="evenodd"/>
      <path id="Caminho_108367" data-name="Caminho 108367" d="M2.282,4.578A8.2,8.2,0,0,1,6.391,6.134C8.153,7.3,9.861,8.573,11.564,9.839a1.175,1.175,0,0,1,.433.887c-.025.214-.45.442-.736.538a2.159,2.159,0,0,1-2.031-.3c-2.444-1.682-4.925-3.3-7.394-4.938-.08-.055-.156-.118-.236-.172-.307-.227-.585-.543-.379-.9.114-.21.5-.265.77-.37a.953.953,0,0,1,.29,0" transform="translate(3.691 14.645)" fill="#fff" fill-rule="evenodd"/>
      <path id="Caminho_108368" data-name="Caminho 108368" d="M10.956,12.206a2.32,2.32,0,0,1-2.334-1.4C7.47,8.723,6.292,6.654,5.114,4.581c-.177-.311-.4-.593-.6-.892a1.517,1.517,0,0,1,.105-1.947c.257-.282.467-.336.782-.042a17.509,17.509,0,0,1,5.459,9.661c.046.252.059.513.1.845" transform="translate(13.497 4.821)" fill="#fff" fill-rule="evenodd"/>
      <path id="Caminho_108369" data-name="Caminho 108369" d="M14.059,11.851a4.358,4.358,0,0,1,2.3.993,15.522,15.522,0,0,0,6.094,3.533,1.137,1.137,0,0,1,.959,1.1c.08,1.009-.585,1.6-1.5,1.241a23.208,23.208,0,0,1-7.541-4.572,5.5,5.5,0,0,1-1.035-1.367c-.341-.643-.118-.942.715-.925" transform="translate(42.286 37.99)" fill="#fff" fill-rule="evenodd"/>
      <path id="Caminho_108370" data-name="Caminho 108370" d="M12.587,23.075c-.988,0-1.977-.038-2.961.017A1.185,1.185,0,0,1,8.452,22.4a4.56,4.56,0,0,1-.488-3.1C8.351,16,8.7,12.7,9,9.385A18.011,18.011,0,0,0,8.9,6.23a.892.892,0,0,1,.568-1.051,2.8,2.8,0,0,1,.959-.21c.778-.017.959.189.9,1q-.5,6.555-1.026,13.105c-.021.282-.034.568-.05.85-.055.988-.055.972.917.908,1.741-.118,3.482-.2,5.224-.328.475-.034.652.139.564.622-.021.139-.021.282-.042.421-.206,1.354-.429,1.552-1.7,1.518-.446-.008-.887-.021-1.337-.029-.425,0-.85,0-1.279,0v.042" transform="translate(25.325 15.927)" fill="#fff" fill-rule="evenodd"/>
      <path id="Caminho_108371" data-name="Caminho 108371" d="M15.554,15.643a10.526,10.526,0,0,1-6.2-1.506,6.519,6.519,0,0,1-2.78-4.117c-.042-.189.135-.437.21-.656.177.13.467.227.517.4a6.4,6.4,0,0,0,5.627,4.828,15.814,15.814,0,0,0,6.468-.2A7.613,7.613,0,0,0,24.529,9.9a3.749,3.749,0,0,1,.328-.707,1.749,1.749,0,0,1,.538-.324c.067.219.248.488.185.652a9.734,9.734,0,0,1-2.961,4.214,9.806,9.806,0,0,1-5.96,1.905c-.37.017-.736,0-1.106,0" transform="translate(21.07 28.444)" fill="#fff" fill-rule="evenodd"/>
      <path id="Caminho_108372" data-name="Caminho 108372" d="M9.686,8.21a13.044,13.044,0,0,1-.774,1.947.907.907,0,0,1-1.6.008,3.863,3.863,0,0,1-.046-3.953c.517-.711,1.279-.74,1.712.025A11.856,11.856,0,0,1,9.686,8.21" transform="translate(21.614 18.183)" fill="#fff" fill-rule="evenodd"/>
      <path id="Caminho_108373" data-name="Caminho 108373" d="M12.419,8.165a15.037,15.037,0,0,1-.719,1.943.91.91,0,0,1-1.6.118,3.751,3.751,0,0,1-.034-4.092.92.92,0,0,1,1.665.139,15.814,15.814,0,0,1,.69,1.893" transform="translate(30.371 18.178)" fill="#fff" fill-rule="evenodd"/>
    </g>
  </g>
</svg>
