<svg xmlns="http://www.w3.org/2000/svg" width="24.138" height="24.138" viewBox="0 0 24.138 24.138">
  <path id="instagram" d="M12.069,0C8.8,0,8.4,0,7.091.05A8.326,8.326,0,0,0,4.174.6,5.727,5.727,0,0,0,2.011,2.011,5.951,5.951,0,0,0,.6,4.174,8.577,8.577,0,0,0,.05,7.09C0,8.4,0,8.8,0,12.069s0,3.671.05,4.978A8.326,8.326,0,0,0,.6,19.964a5.727,5.727,0,0,0,1.408,2.162,5.951,5.951,0,0,0,2.162,1.408,8.577,8.577,0,0,0,2.917.553c1.307.05,1.71.05,4.978.05s3.671,0,4.978-.05a8.326,8.326,0,0,0,2.917-.553,5.727,5.727,0,0,0,2.162-1.408,5.951,5.951,0,0,0,1.408-2.162,8.577,8.577,0,0,0,.553-2.917c.05-1.307.05-1.71.05-4.978s0-3.671-.05-4.978a8.326,8.326,0,0,0-.553-2.917,5.727,5.727,0,0,0-1.408-2.162A5.951,5.951,0,0,0,19.964.6,8.577,8.577,0,0,0,17.047.05C15.74,0,15.338,0,12.069,0Zm0,2.162c3.218,0,3.621,0,4.878.05a7.584,7.584,0,0,1,2.263.4,4.219,4.219,0,0,1,1.408.905,3.41,3.41,0,0,1,.905,1.408,6.924,6.924,0,0,1,.4,2.263c.05,1.257.05,1.659.05,4.878s0,3.621-.05,4.878a7.584,7.584,0,0,1-.4,2.263,4.219,4.219,0,0,1-.905,1.408,3.41,3.41,0,0,1-1.408.905,6.924,6.924,0,0,1-2.263.4c-1.257.05-1.659.05-4.878.05s-3.621,0-4.878-.05a7.584,7.584,0,0,1-2.263-.4,4.219,4.219,0,0,1-1.408-.905,3.41,3.41,0,0,1-.905-1.408,6.924,6.924,0,0,1-.4-2.263c-.05-1.257-.05-1.659-.05-4.878s0-3.621.05-4.878a7.584,7.584,0,0,1,.4-2.263A4.219,4.219,0,0,1,3.52,3.52a3.41,3.41,0,0,1,1.408-.905,6.924,6.924,0,0,1,2.263-.4c1.257-.05,1.659-.05,4.878-.05Zm0,3.721a6.185,6.185,0,1,0,6.185,6.185A6.181,6.181,0,0,0,12.069,5.884Zm0,10.208a4.023,4.023,0,1,1,4.023-4.023A4.035,4.035,0,0,1,12.069,16.092Zm7.9-10.46a1.458,1.458,0,1,1-1.458-1.458,1.459,1.459,0,0,1,1.458,1.458Z" fill="#fff" fill-rule="evenodd"/>
</svg>
