<?xml version="1.0" encoding="UTF-8" standalone="no"?>
<svg
   viewBox="0 0 234.66668 208.00003"
   width="44"
   height="39"
   version="1.1"
   id="svg188"
   sodipodi:docname="social-twitter.svg"
   inkscape:version="1.2.1 (9c6d41e, 2022-07-14)"
   xmlns:inkscape="http://www.inkscape.org/namespaces/inkscape"
   xmlns:sodipodi="http://sodipodi.sourceforge.net/DTD/sodipodi-0.dtd"
   xmlns="http://www.w3.org/2000/svg"
   xmlns:svg="http://www.w3.org/2000/svg">
  <defs
     id="defs192" />
  <sodipodi:namedview
     id="namedview190"
     pagecolor="#ffffff"
     bordercolor="#000000"
     borderopacity="0.25"
     inkscape:showpageshadow="2"
     inkscape:pageopacity="0.0"
     inkscape:pagecheckerboard="0"
     inkscape:deskcolor="#d1d1d1"
     showgrid="false"
     inkscape:zoom="18.270833"
     inkscape:cx="21.701254"
     inkscape:cy="24.027366"
     inkscape:window-width="2560"
     inkscape:window-height="1080"
     inkscape:window-x="0"
     inkscape:window-y="0"
     inkscape:window-maximized="0"
     inkscape:current-layer="svg188" />
  <g
     fill="#fefefe"
     fill-rule="nonzero"
     stroke="none"
     stroke-width="1"
     stroke-linecap="butt"
     stroke-linejoin="miter"
     stroke-miterlimit="10"
     stroke-dasharray="none"
     stroke-dashoffset="0"
     font-family="none"
     font-weight="none"
     font-size="none"
     text-anchor="none"
     style="mix-blend-mode:normal"
     id="g186"
     transform="translate(-10.666667,-21.333335)">
    <g
       transform="scale(5.33333)"
       id="g184">
      <path
         d="m 42,12.429 c -1.323,0.586 -2.746,0.977 -4.247,1.162 1.526,-0.906 2.7,-2.351 3.251,-4.058 -1.428,0.837 -3.01,1.452 -4.693,1.776 C 34.967,9.884 33.05,9 30.926,9 c -4.08,0 -7.387,3.278 -7.387,7.32 0,0.572 0.067,1.129 0.193,1.67 -6.138,-0.308 -11.582,-3.226 -15.224,-7.654 -0.64,1.082 -1,2.349 -1,3.686 0,2.541 1.301,4.778 3.285,6.096 -1.211,-0.037 -2.351,-0.374 -3.349,-0.914 0,0.022 0,0.055 0,0.086 0,3.551 2.547,6.508 5.923,7.181 -0.617,0.169 -1.269,0.263 -1.941,0.263 -0.477,0 -0.942,-0.054 -1.392,-0.135 0.94,2.902 3.667,5.023 6.898,5.086 -2.528,1.96 -5.712,3.134 -9.174,3.134 -0.598,0 -1.183,-0.034 -1.761,-0.104 C 9.268,36.786 13.152,38 17.321,38 30.906,38 38.338,26.844 38.338,17.166 c 0,-0.317 -0.01,-0.633 -0.025,-0.945 1.45,-1.024 2.7,-2.316 3.687,-3.792"
         id="path182" />
    </g>
  </g>
</svg>
