<svg xmlns="http://www.w3.org/2000/svg" width="20.749" height="24.138" viewBox="0 0 20.749 24.138">
  <path id="threads" d="M334.815,190.379c-.1-.051-.212-.1-.314-.142-.182-3.429-2.064-5.392-5.21-5.412h-.04a5.072,5.072,0,0,0-4.411,2.266l1.73,1.184a3.067,3.067,0,0,1,2.681-1.325h.03a2.9,2.9,0,0,1,2.327.9,3.563,3.563,0,0,1,.739,1.76,13.525,13.525,0,0,0-2.974-.142c-2.995.172-4.917,1.922-4.785,4.34a3.732,3.732,0,0,0,1.73,2.984,5.339,5.339,0,0,0,3.207.809,4.758,4.758,0,0,0,3.652-1.77,6.6,6.6,0,0,0,1.244-3.258,3.87,3.87,0,0,1,1.609,1.75,4.4,4.4,0,0,1-1.072,4.826,7.5,7.5,0,0,1-5.716,2.054c-2.863-.02-5.038-.941-6.444-2.731-1.315-1.679-2-4.1-2.023-7.2.03-3.106.708-5.524,2.023-7.2,1.406-1.791,3.581-2.711,6.444-2.731a8.069,8.069,0,0,1,6.555,2.742,9.015,9.015,0,0,1,1.619,3.288l2.033-.546a11.175,11.175,0,0,0-2.033-4.107c-1.872-2.307-4.623-3.49-8.154-3.51h-.01c-3.531.02-6.242,1.214-8.063,3.531-1.619,2.064-2.458,4.927-2.489,8.528h0v.02c.03,3.591.86,6.464,2.489,8.528,1.821,2.317,4.532,3.5,8.063,3.531h.01c3.136-.02,5.352-.84,7.173-2.661a6.526,6.526,0,0,0,1.528-7.193,6.19,6.19,0,0,0-3.106-3.085Zm-5.412,4.977c-1.3.071-2.651-.506-2.721-1.76-.051-.931.658-1.963,2.8-2.084.243-.01.486-.02.718-.02a9.682,9.682,0,0,1,2.165.223c-.243,3.075-1.689,3.581-2.964,3.652Z" transform="translate(-318.7 -179.2)" fill="#fff"/>
</svg>
