<?xml version="1.0" standalone="no"?>
<!DOCTYPE svg PUBLIC "-//W3C//DTD SVG 20010904//EN"
 "http://www.w3.org/TR/2001/REC-SVG-20010904/DTD/svg10.dtd">
<svg version="1.0" xmlns="http://www.w3.org/2000/svg"
 width="73.000000pt" height="73.000000pt" viewBox="0 0 73.000000 73.000000"
 preserveAspectRatio="xMidYMid meet">
<metadata>
Created by potrace 1.14, written by Peter Selinger 2001-2017
</metadata>
<g transform="translate(0.000000,73.000000) scale(0.100000,-0.100000)"
fill="#000000" stroke="none">
<path d="M349 710 c-3 -29 3 -135 7 -139 10 -11 17 13 17 69 0 34 -4 65 -11
72 -9 9 -12 9 -13 -2z"/>
<path d="M180 650 c0 -7 12 -34 27 -59 19 -32 28 -41 31 -29 4 20 -20 69 -42
87 -13 11 -16 11 -16 1z"/>
<path d="M526 644 c-23 -23 -59 -95 -51 -102 8 -8 29 19 56 71 23 43 20 57 -5
31z"/>
<path d="M256 540 c-44 -22 -79 -51 -71 -58 2 -3 13 1 22 9 17 13 16 12 0 -8
-43 -50 -55 -169 -24 -230 58 -111 185 -144 294 -77 134 83 124 281 -18 354
-19 10 -64 21 -100 24 -52 5 -72 2 -103 -14z m184 -25 c69 -35 104 -92 103
-166 -2 -86 -32 -133 -106 -164 -147 -61 -281 66 -237 225 12 45 71 108 107
116 16 3 33 7 38 9 16 4 68 -7 95 -20z"/>
<path d="M341 463 c-1 -27 -4 -61 -5 -78 -4 -46 2 -54 45 -53 27 0 39 5 39 15
0 10 -9 13 -27 11 l-28 -3 2 78 c1 56 -2 77 -11 77 -8 0 -14 -17 -15 -47z"/>
<path d="M288 468 c-7 -18 2 -39 13 -32 12 7 12 44 0 44 -5 0 -11 -6 -13 -12z"/>
<path d="M400 461 c0 -11 4 -22 9 -25 11 -7 23 22 15 35 -9 16 -24 10 -24 -10z"/>
<path d="M280 332 c0 -32 67 -59 119 -47 25 5 86 55 67 55 -4 0 -16 -10 -26
-22 -27 -34 -114 -33 -141 1 -10 13 -19 19 -19 13z"/>
<path d="M50 523 c0 -4 20 -21 45 -36 53 -34 83 -26 33 8 -38 26 -78 40 -78
28z"/>
<path d="M608 502 c-50 -28 -67 -59 -25 -46 34 10 77 44 77 60 0 18 4 18 -52
-14z"/>
<path d="M7 353 c-4 -3 -7 -12 -7 -20 0 -10 16 -12 67 -9 37 2 69 8 70 13 6
17 -115 31 -130 16z"/>
<path d="M612 352 c-28 -3 -31 -6 -21 -18 17 -21 125 -19 133 2 3 9 6 17 6 19
0 3 -68 2 -118 -3z"/>
<path d="M100 207 c-43 -21 -67 -57 -38 -57 13 0 118 67 118 75 0 11 -38 3
-80 -18z"/>
<path d="M560 213 c0 -12 64 -53 83 -53 29 0 19 14 -25 38 -46 23 -58 27 -58
15z"/>
<path d="M226 112 c-28 -55 -20 -80 12 -35 26 38 32 57 22 73 -6 9 -16 -2 -34
-38z"/>
<path d="M460 141 c0 -17 49 -91 60 -91 6 0 2 17 -9 38 -21 42 -51 73 -51 53z"/>
<path d="M347 106 c-6 -14 1 -77 9 -85 8 -8 11 4 16 52 4 34 2 47 -7 47 -7 0
-15 -6 -18 -14z"/>
</g>
</svg>
